<?xml version="1.0" encoding="utf-8"?>
<!-- Generator: Adobe Illustrator 16.0.4, SVG Export Plug-In . SVG Version: 6.00 Build 0)  -->
<!DOCTYPE svg PUBLIC "-//W3C//DTD SVG 1.1//EN" "http://www.w3.org/Graphics/SVG/1.1/DTD/svg11.dtd">
<svg version="1.1" id="Layer_1" xmlns="http://www.w3.org/2000/svg" xmlns:xlink="http://www.w3.org/1999/xlink" x="0px" y="0px"
	 width="930px" height="400px" viewBox="0 0 930 400" enable-background="new 0 0 930 400" xml:space="preserve">
<line fill="none" stroke="#444444" x1="40.5" y1="369.927" x2="40.5" y2="375.927"/>
<g>
	<path d="M16.843,392.084h2.398v-7.023h-2.516v-1.163h0.82c0.364,0,0.661-0.03,0.891-0.091c0.229-0.06,0.406-0.154,0.531-0.284
		c0.125-0.131,0.209-0.299,0.254-0.505c0.044-0.205,0.066-0.457,0.066-0.754v-0.18h1.312v10H23v1.203h-6.156L16.843,392.084
		L16.843,392.084z"/>
	<path d="M29.574,381.943c0.474,0,0.934,0.065,1.379,0.198c0.445,0.134,0.841,0.325,1.188,0.578
		c0.346,0.253,0.624,0.566,0.832,0.941s0.312,0.805,0.312,1.289c0,0.25-0.033,0.501-0.098,0.754s-0.172,0.492-0.32,0.719
		c-0.148,0.228-0.345,0.431-0.59,0.613c-0.245,0.183-0.544,0.331-0.898,0.445c0.396,0.108,0.735,0.265,1.02,0.465
		c0.284,0.2,0.518,0.429,0.703,0.684s0.32,0.527,0.406,0.816s0.129,0.582,0.129,0.879c0,0.511-0.115,0.961-0.344,1.352
		c-0.229,0.392-0.534,0.716-0.914,0.978c-0.38,0.261-0.814,0.457-1.301,0.59c-0.487,0.133-0.988,0.199-1.504,0.199
		c-0.516,0-1.019-0.066-1.508-0.199c-0.49-0.133-0.925-0.329-1.305-0.59c-0.38-0.262-0.685-0.586-0.914-0.978
		c-0.229-0.391-0.344-0.841-0.344-1.352c0-0.297,0.043-0.59,0.129-0.879s0.221-0.562,0.406-0.816
		c0.185-0.255,0.419-0.482,0.703-0.684c0.284-0.2,0.624-0.355,1.02-0.465c-0.354-0.114-0.652-0.264-0.895-0.445
		c-0.243-0.183-0.438-0.387-0.586-0.613c-0.148-0.226-0.255-0.466-0.32-0.719s-0.098-0.504-0.098-0.754
		c0-0.484,0.104-0.914,0.312-1.289s0.484-0.688,0.828-0.941c0.344-0.253,0.738-0.444,1.184-0.578
		C28.632,382.009,29.094,381.943,29.574,381.943z M26.902,390.217c0,0.35,0.073,0.651,0.219,0.906s0.341,0.468,0.586,0.637
		s0.528,0.296,0.852,0.379c0.323,0.083,0.661,0.125,1.016,0.125c0.349,0,0.685-0.042,1.008-0.125s0.608-0.21,0.855-0.379
		s0.444-0.382,0.59-0.637s0.219-0.558,0.219-0.906c0-0.348-0.073-0.65-0.219-0.906c-0.146-0.255-0.343-0.468-0.59-0.637
		c-0.248-0.169-0.533-0.296-0.855-0.379c-0.323-0.083-0.659-0.125-1.008-0.125c-0.354,0-0.693,0.042-1.016,0.125
		c-0.323,0.083-0.607,0.21-0.852,0.379s-0.44,0.382-0.586,0.637S26.902,389.868,26.902,390.217z M27.238,385.061
		c0,0.309,0.065,0.582,0.195,0.824s0.302,0.445,0.516,0.609c0.213,0.164,0.461,0.289,0.742,0.375
		c0.281,0.086,0.575,0.129,0.883,0.129c0.302,0,0.594-0.043,0.875-0.129c0.281-0.086,0.53-0.211,0.746-0.375
		c0.216-0.164,0.389-0.367,0.52-0.609c0.13-0.242,0.195-0.517,0.195-0.824c0-0.307-0.065-0.58-0.195-0.819
		c-0.13-0.239-0.304-0.441-0.52-0.605c-0.216-0.164-0.465-0.289-0.746-0.375c-0.281-0.086-0.573-0.129-0.875-0.129
		c-0.308,0-0.602,0.043-0.883,0.129c-0.281,0.086-0.529,0.211-0.742,0.375c-0.214,0.164-0.386,0.366-0.516,0.605
		C27.303,384.479,27.238,384.753,27.238,385.061z"/>
</g>
<g>
	<path d="M41.513,389.894l-1.121,3.395h-1.44l3.665-10.788h1.681l3.682,10.788h-1.488l-1.153-3.395H41.513z M45.05,388.806
		l-1.056-3.104c-0.24-0.704-0.4-1.345-0.561-1.969h-0.032c-0.16,0.64-0.336,1.296-0.544,1.951l-1.056,3.122H45.05z"/>
	<path d="M56.154,391.174c0,0.801,0.016,1.505,0.064,2.113H54.97l-0.08-1.265h-0.032c-0.368,0.624-1.185,1.439-2.561,1.439
		c-1.216,0-2.673-0.672-2.673-3.394v-4.529h1.408v4.29c0,1.473,0.448,2.465,1.729,2.465c0.944,0,1.601-0.656,1.856-1.28
		c0.08-0.209,0.128-0.465,0.128-0.721v-4.754h1.408L56.154,391.174L56.154,391.174z"/>
	<path d="M65.323,385.54c-0.032,0.561-0.064,1.185-0.064,2.129v4.498c0,1.776-0.352,2.865-1.104,3.537
		c-0.752,0.704-1.841,0.929-2.817,0.929c-0.928,0-1.953-0.225-2.577-0.641l0.352-1.072c0.512,0.32,1.312,0.608,2.273,0.608
		c1.44,0,2.497-0.753,2.497-2.705v-0.864H63.85c-0.432,0.72-1.265,1.296-2.465,1.296c-1.921,0-3.297-1.633-3.297-3.777
		c0-2.625,1.712-4.112,3.489-4.112c1.345,0,2.081,0.704,2.417,1.344h0.032l0.064-1.168L65.323,385.54L65.323,385.54z
		 M63.866,388.598c0-0.239-0.016-0.447-0.08-0.641c-0.256-0.816-0.944-1.488-1.969-1.488c-1.345,0-2.305,1.137-2.305,2.93
		c0,1.521,0.769,2.784,2.289,2.784c0.864,0,1.648-0.544,1.953-1.439c0.08-0.24,0.112-0.513,0.112-0.752V388.598z"/>
</g>
<line fill="none" stroke="#444444" x1="147.875" y1="369.927" x2="147.875" y2="375.927"/>
<g>
	<path d="M125.367,392.084h5.586v1.203h-7.461v-1.312c0.713-0.479,1.356-0.922,1.93-1.327c0.573-0.406,1.078-0.79,1.516-1.152
		s0.813-0.707,1.129-1.035c0.315-0.328,0.574-0.653,0.777-0.977c0.203-0.324,0.352-0.648,0.445-0.978
		c0.093-0.329,0.141-0.675,0.141-1.039c0-0.312-0.054-0.608-0.16-0.891c-0.107-0.281-0.261-0.527-0.461-0.738
		c-0.201-0.211-0.448-0.379-0.742-0.504s-0.629-0.188-1.004-0.188c-0.302,0-0.593,0.043-0.871,0.129
		c-0.279,0.086-0.526,0.223-0.742,0.409c-0.216,0.188-0.392,0.43-0.527,0.724c-0.136,0.294-0.211,0.646-0.227,1.059l-1.297-0.147
		c0.021-0.521,0.122-0.989,0.305-1.406c0.182-0.417,0.434-0.771,0.754-1.062s0.703-0.516,1.148-0.672
		c0.445-0.155,0.941-0.233,1.488-0.233c0.531,0,1.024,0.087,1.48,0.262c0.456,0.175,0.852,0.418,1.188,0.729
		c0.336,0.312,0.599,0.684,0.789,1.109c0.19,0.427,0.285,0.895,0.285,1.398c0,0.599-0.103,1.161-0.309,1.688
		s-0.52,1.043-0.941,1.551c-0.421,0.509-0.957,1.021-1.605,1.535c-0.648,0.516-1.413,1.061-2.293,1.633l-0.32,0.203L125.367,392.084
		L125.367,392.084z"/>
	<path d="M133.386,387.592l0.586-5.508h6.398v1.203h-5.289l-0.336,3.188c0.302-0.292,0.664-0.512,1.086-0.659
		c0.422-0.148,0.854-0.224,1.297-0.224c0.531,0,1.022,0.099,1.473,0.293c0.45,0.195,0.841,0.465,1.172,0.81
		c0.331,0.344,0.588,0.75,0.773,1.219s0.277,0.974,0.277,1.516c0,0.604-0.098,1.153-0.293,1.648c-0.195,0.495-0.47,0.918-0.824,1.27
		c-0.354,0.353-0.776,0.622-1.266,0.812c-0.49,0.189-1.029,0.285-1.617,0.285c-0.464,0-0.902-0.055-1.316-0.16
		c-0.414-0.106-0.788-0.27-1.121-0.484c-0.333-0.216-0.619-0.483-0.855-0.805c-0.237-0.32-0.405-0.694-0.504-1.121l1.367-0.289
		c0.057,0.224,0.153,0.438,0.289,0.637c0.135,0.2,0.307,0.378,0.516,0.531c0.208,0.153,0.448,0.274,0.719,0.363
		s0.573,0.133,0.906,0.133c0.401,0,0.76-0.067,1.078-0.203c0.317-0.136,0.586-0.324,0.805-0.565c0.219-0.242,0.387-0.53,0.504-0.863
		s0.176-0.695,0.176-1.086c0-0.406-0.059-0.776-0.176-1.109s-0.287-0.621-0.508-0.863c-0.222-0.241-0.491-0.43-0.809-0.562
		c-0.318-0.133-0.68-0.199-1.086-0.199c-0.193,0-0.39,0.023-0.59,0.07c-0.201,0.047-0.394,0.111-0.578,0.194
		c-0.185,0.083-0.358,0.186-0.52,0.306s-0.3,0.253-0.414,0.397L133.386,387.592z"/>
</g>
<g>
	<path d="M148.888,389.894l-1.121,3.395h-1.44l3.665-10.788h1.681l3.682,10.788h-1.488l-1.153-3.395H148.888z M152.425,388.806
		l-1.056-3.104c-0.24-0.704-0.4-1.345-0.561-1.969h-0.032c-0.16,0.64-0.336,1.296-0.544,1.951l-1.056,3.122H152.425z"/>
	<path d="M163.529,391.174c0,0.801,0.016,1.505,0.064,2.113h-1.249l-0.08-1.265h-0.032c-0.368,0.624-1.185,1.439-2.561,1.439
		c-1.216,0-2.673-0.672-2.673-3.394v-4.529h1.408v4.29c0,1.473,0.448,2.465,1.729,2.465c0.944,0,1.601-0.656,1.856-1.28
		c0.08-0.209,0.128-0.465,0.128-0.721v-4.754h1.408v5.635H163.529z"/>
	<path d="M172.698,385.54c-0.032,0.561-0.064,1.185-0.064,2.129v4.498c0,1.776-0.352,2.865-1.104,3.537
		c-0.752,0.704-1.841,0.929-2.817,0.929c-0.928,0-1.953-0.225-2.577-0.641l0.352-1.072c0.512,0.32,1.312,0.608,2.273,0.608
		c1.44,0,2.497-0.753,2.497-2.705v-0.864h-0.032c-0.432,0.72-1.265,1.296-2.465,1.296c-1.921,0-3.297-1.633-3.297-3.777
		c0-2.625,1.712-4.112,3.489-4.112c1.345,0,2.081,0.704,2.417,1.344h0.032l0.064-1.168L172.698,385.54L172.698,385.54z
		 M171.241,388.598c0-0.239-0.016-0.447-0.08-0.641c-0.256-0.816-0.944-1.488-1.969-1.488c-1.345,0-2.305,1.137-2.305,2.93
		c0,1.521,0.769,2.784,2.289,2.784c0.864,0,1.648-0.544,1.953-1.439c0.08-0.24,0.112-0.513,0.112-0.752V388.598L171.241,388.598z"/>
</g>
<line fill="none" stroke="#444444" x1="255.25" y1="369.927" x2="255.25" y2="375.927"/>
<g>
	<path d="M237.093,392.084h2.398v-7.023h-2.516v-1.163h0.82c0.364,0,0.661-0.03,0.891-0.091c0.229-0.06,0.406-0.154,0.531-0.284
		c0.125-0.131,0.209-0.299,0.254-0.505c0.044-0.205,0.066-0.457,0.066-0.754v-0.18h1.312v10h2.398v1.203h-6.156v-1.203H237.093z"/>
</g>
<g>
	<path d="M249.826,391.591c0.624,0.384,1.537,0.704,2.497,0.704c1.424,0,2.257-0.753,2.257-1.841c0-1.009-0.576-1.585-2.033-2.146
		c-1.761-0.625-2.849-1.536-2.849-3.058c0-1.681,1.393-2.93,3.489-2.93c1.104,0,1.905,0.257,2.385,0.527l-0.384,1.138
		c-0.352-0.192-1.073-0.513-2.049-0.513c-1.473,0-2.033,0.881-2.033,1.616c0,1.009,0.657,1.505,2.145,2.081
		c1.825,0.704,2.753,1.584,2.753,3.169c0,1.665-1.233,3.105-3.778,3.105c-1.041,0-2.177-0.306-2.753-0.688L249.826,391.591z"/>
	<path d="M258.802,389.67c0.032,1.904,1.249,2.688,2.657,2.688c1.008,0,1.617-0.177,2.145-0.399l0.24,1.008
		c-0.496,0.226-1.344,0.48-2.577,0.48c-2.385,0-3.81-1.568-3.81-3.905s1.376-4.178,3.633-4.178c2.529,0,3.201,2.225,3.201,3.648
		c0,0.288-0.032,0.513-0.048,0.656L258.802,389.67L258.802,389.67z M262.932,388.661c0.016-0.896-0.368-2.289-1.953-2.289
		c-1.425,0-2.049,1.312-2.161,2.289H262.932z"/>
	<path d="M266.194,388.069c0-0.993-0.032-1.793-0.064-2.529h1.265l0.064,1.328h0.032c0.576-0.944,1.489-1.504,2.753-1.504
		c1.873,0,3.281,1.584,3.281,3.938c0,2.785-1.697,4.161-3.521,4.161c-1.024,0-1.921-0.448-2.385-1.216h-0.032v4.209h-1.393V388.069z
		 M267.586,390.134c0,0.208,0.032,0.4,0.064,0.576c0.256,0.977,1.104,1.648,2.113,1.648c1.489,0,2.353-1.217,2.353-2.993
		c0-1.554-0.816-2.881-2.305-2.881c-0.96,0-1.857,0.688-2.129,1.744c-0.048,0.177-0.096,0.385-0.096,0.576V390.134z"/>
</g>
<line fill="none" stroke="#444444" x1="362.625" y1="369.927" x2="362.625" y2="375.927"/>
<g>
	<path d="M347.437,381.943c0.474,0,0.934,0.065,1.379,0.198c0.445,0.134,0.841,0.325,1.188,0.578
		c0.346,0.253,0.624,0.566,0.832,0.941s0.312,0.805,0.312,1.289c0,0.25-0.033,0.501-0.098,0.754
		c-0.065,0.253-0.172,0.492-0.32,0.719c-0.148,0.228-0.345,0.431-0.59,0.613c-0.245,0.183-0.544,0.331-0.898,0.445
		c0.396,0.108,0.735,0.265,1.02,0.465c0.284,0.2,0.519,0.429,0.703,0.684c0.185,0.255,0.32,0.527,0.406,0.816
		s0.129,0.582,0.129,0.879c0,0.511-0.115,0.961-0.344,1.352c-0.229,0.392-0.534,0.716-0.914,0.978
		c-0.38,0.261-0.814,0.457-1.301,0.59s-0.988,0.199-1.504,0.199s-1.019-0.066-1.508-0.199c-0.49-0.133-0.925-0.329-1.305-0.59
		c-0.38-0.262-0.685-0.586-0.914-0.978c-0.229-0.391-0.344-0.841-0.344-1.352c0-0.297,0.043-0.59,0.129-0.879
		s0.221-0.562,0.406-0.816c0.185-0.255,0.419-0.482,0.703-0.684c0.284-0.2,0.624-0.355,1.02-0.465
		c-0.354-0.114-0.652-0.264-0.895-0.445c-0.243-0.183-0.438-0.387-0.586-0.613c-0.148-0.226-0.255-0.466-0.32-0.719
		c-0.065-0.253-0.098-0.504-0.098-0.754c0-0.484,0.104-0.914,0.312-1.289s0.484-0.688,0.828-0.941
		c0.344-0.253,0.738-0.444,1.184-0.578C346.495,382.009,346.958,381.943,347.437,381.943z M344.765,390.217
		c0,0.35,0.073,0.651,0.219,0.906s0.341,0.468,0.586,0.637c0.245,0.169,0.528,0.296,0.852,0.379
		c0.323,0.083,0.661,0.125,1.016,0.125c0.349,0,0.685-0.042,1.008-0.125c0.323-0.083,0.608-0.21,0.855-0.379s0.444-0.382,0.59-0.637
		s0.219-0.558,0.219-0.906c0-0.348-0.073-0.65-0.219-0.906c-0.146-0.255-0.343-0.468-0.59-0.637
		c-0.248-0.169-0.533-0.296-0.855-0.379c-0.323-0.083-0.659-0.125-1.008-0.125c-0.354,0-0.693,0.042-1.016,0.125
		c-0.323,0.083-0.607,0.21-0.852,0.379c-0.245,0.169-0.44,0.382-0.586,0.637S344.765,389.868,344.765,390.217z M345.101,385.061
		c0,0.309,0.065,0.582,0.195,0.824s0.302,0.445,0.516,0.609c0.213,0.164,0.461,0.289,0.742,0.375
		c0.281,0.086,0.575,0.129,0.883,0.129c0.302,0,0.594-0.043,0.875-0.129s0.53-0.211,0.746-0.375c0.216-0.164,0.389-0.367,0.52-0.609
		c0.13-0.242,0.195-0.517,0.195-0.824c0-0.307-0.065-0.58-0.195-0.819s-0.304-0.441-0.52-0.605
		c-0.216-0.164-0.465-0.289-0.746-0.375s-0.573-0.129-0.875-0.129c-0.308,0-0.602,0.043-0.883,0.129
		c-0.281,0.086-0.529,0.211-0.742,0.375c-0.214,0.164-0.386,0.366-0.516,0.605C345.166,384.479,345.101,384.753,345.101,385.061z"/>
</g>
<g>
	<path d="M357.201,391.591c0.624,0.384,1.537,0.704,2.497,0.704c1.424,0,2.257-0.753,2.257-1.841c0-1.009-0.576-1.585-2.033-2.146
		c-1.761-0.625-2.849-1.536-2.849-3.058c0-1.681,1.393-2.93,3.489-2.93c1.104,0,1.905,0.257,2.385,0.527l-0.384,1.138
		c-0.352-0.192-1.073-0.513-2.049-0.513c-1.473,0-2.033,0.881-2.033,1.616c0,1.009,0.657,1.505,2.145,2.081
		c1.825,0.704,2.753,1.584,2.753,3.169c0,1.665-1.233,3.105-3.778,3.105c-1.041,0-2.177-0.306-2.753-0.688L357.201,391.591z"/>
	<path d="M366.177,389.67c0.032,1.904,1.249,2.688,2.657,2.688c1.008,0,1.617-0.177,2.145-0.399l0.24,1.008
		c-0.496,0.226-1.344,0.48-2.577,0.48c-2.385,0-3.81-1.568-3.81-3.905s1.376-4.178,3.633-4.178c2.529,0,3.201,2.225,3.201,3.648
		c0,0.288-0.032,0.513-0.048,0.656L366.177,389.67L366.177,389.67z M370.307,388.661c0.016-0.896-0.368-2.289-1.953-2.289
		c-1.425,0-2.049,1.312-2.161,2.289H370.307z"/>
	<path d="M373.569,388.069c0-0.993-0.032-1.793-0.064-2.529h1.265l0.064,1.328h0.032c0.576-0.944,1.489-1.504,2.753-1.504
		c1.873,0,3.281,1.584,3.281,3.938c0,2.785-1.697,4.161-3.521,4.161c-1.024,0-1.921-0.448-2.385-1.216h-0.032v4.209h-1.393V388.069z
		 M374.961,390.134c0,0.208,0.032,0.4,0.064,0.576c0.256,0.977,1.104,1.648,2.113,1.648c1.489,0,2.353-1.217,2.353-2.993
		c0-1.554-0.816-2.881-2.305-2.881c-0.96,0-1.857,0.688-2.129,1.744c-0.048,0.177-0.096,0.385-0.096,0.576V390.134z"/>
</g>
<line fill="none" stroke="#444444" x1="470" y1="369.927" x2="470" y2="375.927"/>
<g>
	<path d="M446.843,392.084h2.398v-7.023h-2.517v-1.163h0.82c0.364,0,0.661-0.03,0.891-0.091c0.229-0.06,0.406-0.154,0.531-0.284
		c0.125-0.131,0.209-0.299,0.254-0.505c0.044-0.205,0.066-0.457,0.066-0.754v-0.18h1.312v10H453v1.203h-6.156L446.843,392.084
		L446.843,392.084z"/>
	<path d="M456.011,387.592l0.586-5.508h6.398v1.203h-5.289l-0.336,3.188c0.302-0.292,0.664-0.512,1.086-0.659
		c0.422-0.148,0.854-0.224,1.297-0.224c0.531,0,1.022,0.099,1.473,0.293c0.45,0.195,0.842,0.465,1.173,0.81
		c0.33,0.344,0.588,0.75,0.772,1.219s0.277,0.974,0.277,1.516c0,0.604-0.099,1.153-0.293,1.648c-0.195,0.495-0.471,0.918-0.824,1.27
		c-0.354,0.353-0.776,0.622-1.266,0.812c-0.49,0.189-1.029,0.285-1.617,0.285c-0.464,0-0.902-0.055-1.316-0.16
		c-0.414-0.106-0.788-0.27-1.121-0.484c-0.333-0.216-0.619-0.483-0.854-0.805c-0.237-0.32-0.405-0.694-0.504-1.121l1.366-0.289
		c0.058,0.224,0.153,0.438,0.289,0.637c0.136,0.2,0.308,0.378,0.517,0.531c0.208,0.153,0.447,0.274,0.719,0.363
		s0.573,0.133,0.906,0.133c0.4,0,0.76-0.067,1.078-0.203c0.316-0.136,0.586-0.324,0.805-0.565c0.219-0.242,0.387-0.53,0.504-0.863
		s0.176-0.695,0.176-1.086c0-0.406-0.059-0.776-0.176-1.109s-0.287-0.621-0.508-0.863c-0.223-0.241-0.491-0.43-0.81-0.562
		c-0.317-0.133-0.68-0.199-1.086-0.199c-0.192,0-0.39,0.023-0.59,0.07c-0.201,0.047-0.394,0.111-0.578,0.194
		s-0.357,0.186-0.52,0.306s-0.3,0.253-0.414,0.397L456.011,387.592z"/>
</g>
<g>
	<path d="M469.576,391.591c0.623,0.384,1.536,0.704,2.496,0.704c1.425,0,2.258-0.753,2.258-1.841c0-1.009-0.576-1.585-2.033-2.146
		c-1.761-0.625-2.85-1.536-2.85-3.058c0-1.681,1.393-2.93,3.49-2.93c1.104,0,1.903,0.257,2.385,0.527l-0.385,1.138
		c-0.353-0.192-1.072-0.513-2.05-0.513c-1.473,0-2.032,0.881-2.032,1.616c0,1.009,0.656,1.505,2.146,2.081
		c1.825,0.704,2.753,1.584,2.753,3.169c0,1.665-1.232,3.105-3.777,3.105c-1.041,0-2.177-0.306-2.753-0.688L469.576,391.591z"/>
	<path d="M478.552,389.67c0.032,1.904,1.249,2.688,2.657,2.688c1.008,0,1.617-0.177,2.145-0.399l0.24,1.008
		c-0.496,0.226-1.344,0.48-2.576,0.48c-2.386,0-3.811-1.568-3.811-3.905s1.377-4.178,3.634-4.178c2.528,0,3.201,2.225,3.201,3.648
		c0,0.288-0.032,0.513-0.048,0.656L478.552,389.67L478.552,389.67z M482.682,388.661c0.017-0.896-0.367-2.289-1.953-2.289
		c-1.424,0-2.049,1.312-2.159,2.289H482.682z"/>
	<path d="M485.943,388.069c0-0.993-0.031-1.793-0.063-2.529h1.265l0.064,1.328h0.031c0.576-0.944,1.488-1.504,2.754-1.504
		c1.872,0,3.281,1.584,3.281,3.938c0,2.785-1.697,4.161-3.521,4.161c-1.025,0-1.922-0.448-2.385-1.216h-0.033v4.209h-1.393V388.069z
		 M487.336,390.134c0,0.208,0.033,0.4,0.064,0.576c0.256,0.977,1.104,1.648,2.112,1.648c1.488,0,2.354-1.217,2.354-2.993
		c0-1.554-0.816-2.881-2.306-2.881c-0.96,0-1.855,0.688-2.129,1.744c-0.048,0.177-0.097,0.385-0.097,0.576L487.336,390.134
		L487.336,390.134z"/>
</g>
<line fill="none" stroke="#444444" x1="577.375" y1="369.927" x2="577.375" y2="375.927"/>
<g>
	<path d="M555.367,392.084h5.586v1.203h-7.461v-1.312c0.713-0.479,1.354-0.922,1.93-1.327c0.572-0.406,1.078-0.79,1.516-1.152
		c0.438-0.362,0.812-0.707,1.13-1.035c0.313-0.328,0.573-0.653,0.776-0.977c0.203-0.324,0.353-0.648,0.445-0.978
		s0.141-0.675,0.141-1.039c0-0.312-0.055-0.608-0.16-0.891c-0.106-0.281-0.262-0.527-0.461-0.738
		c-0.2-0.211-0.448-0.379-0.741-0.504c-0.295-0.125-0.63-0.188-1.005-0.188c-0.303,0-0.594,0.043-0.87,0.129
		c-0.279,0.086-0.527,0.223-0.742,0.409c-0.217,0.188-0.394,0.43-0.527,0.724c-0.137,0.294-0.211,0.646-0.227,1.059l-1.297-0.147
		c0.02-0.521,0.12-0.989,0.305-1.406c0.182-0.417,0.434-0.771,0.754-1.062s0.703-0.516,1.148-0.672
		c0.444-0.155,0.94-0.233,1.487-0.233c0.531,0,1.023,0.087,1.48,0.262c0.455,0.175,0.852,0.418,1.188,0.729
		c0.336,0.312,0.599,0.684,0.789,1.109c0.189,0.427,0.285,0.895,0.285,1.398c0,0.599-0.104,1.161-0.309,1.688
		c-0.207,0.526-0.521,1.043-0.941,1.551c-0.421,0.509-0.957,1.021-1.604,1.535c-0.648,0.516-1.414,1.061-2.294,1.633l-0.319,0.203
		L555.367,392.084L555.367,392.084z"/>
	<path d="M565.129,392.084h5.586v1.203h-7.461v-1.312c0.713-0.479,1.355-0.922,1.93-1.327c0.572-0.406,1.078-0.79,1.517-1.152
		c0.438-0.362,0.812-0.707,1.129-1.035c0.313-0.328,0.574-0.653,0.777-0.977c0.202-0.324,0.352-0.648,0.444-0.978
		c0.094-0.329,0.142-0.675,0.142-1.039c0-0.312-0.056-0.608-0.16-0.891c-0.107-0.281-0.263-0.527-0.461-0.738
		c-0.201-0.211-0.449-0.379-0.742-0.504c-0.295-0.125-0.629-0.188-1.004-0.188c-0.303,0-0.594,0.043-0.871,0.129
		c-0.279,0.086-0.527,0.223-0.742,0.409c-0.217,0.188-0.393,0.43-0.526,0.724c-0.138,0.294-0.212,0.646-0.228,1.059l-1.297-0.147
		c0.02-0.521,0.121-0.989,0.305-1.406c0.183-0.417,0.435-0.771,0.754-1.062c0.32-0.291,0.703-0.516,1.148-0.672
		c0.445-0.155,0.94-0.233,1.488-0.233c0.53,0,1.022,0.087,1.479,0.262c0.455,0.175,0.853,0.418,1.188,0.729
		c0.336,0.312,0.598,0.684,0.789,1.109c0.188,0.427,0.284,0.895,0.284,1.398c0,0.599-0.104,1.161-0.309,1.688
		c-0.207,0.526-0.521,1.043-0.941,1.551c-0.421,0.509-0.957,1.021-1.604,1.535c-0.648,0.516-1.414,1.061-2.293,1.633l-0.32,0.203
		L565.129,392.084L565.129,392.084z"/>
</g>
<g>
	<path d="M576.951,391.591c0.623,0.384,1.536,0.704,2.496,0.704c1.425,0,2.258-0.753,2.258-1.841c0-1.009-0.576-1.585-2.033-2.146
		c-1.761-0.625-2.85-1.536-2.85-3.058c0-1.681,1.393-2.93,3.489-2.93c1.104,0,1.904,0.257,2.386,0.527l-0.386,1.138
		c-0.352-0.192-1.071-0.513-2.049-0.513c-1.473,0-2.033,0.881-2.033,1.616c0,1.009,0.657,1.505,2.146,2.081
		c1.825,0.704,2.753,1.584,2.753,3.169c0,1.665-1.232,3.105-3.777,3.105c-1.041,0-2.177-0.306-2.753-0.688L576.951,391.591z"/>
	<path d="M585.927,389.67c0.032,1.904,1.249,2.688,2.657,2.688c1.008,0,1.617-0.177,2.145-0.399l0.24,1.008
		c-0.496,0.226-1.344,0.48-2.576,0.48c-2.386,0-3.811-1.568-3.811-3.905s1.377-4.178,3.634-4.178c2.528,0,3.201,2.225,3.201,3.648
		c0,0.288-0.032,0.513-0.048,0.656L585.927,389.67L585.927,389.67z M590.057,388.661c0.017-0.896-0.367-2.289-1.953-2.289
		c-1.424,0-2.049,1.312-2.159,2.289H590.057z"/>
	<path d="M593.318,388.069c0-0.993-0.031-1.793-0.063-2.529h1.265l0.064,1.328h0.031c0.576-0.944,1.488-1.504,2.754-1.504
		c1.872,0,3.281,1.584,3.281,3.938c0,2.785-1.697,4.161-3.521,4.161c-1.024,0-1.922-0.448-2.385-1.216h-0.033v4.209h-1.393V388.069
		L593.318,388.069z M594.711,390.134c0,0.208,0.033,0.4,0.064,0.576c0.256,0.977,1.104,1.648,2.112,1.648
		c1.488,0,2.354-1.217,2.354-2.993c0-1.554-0.816-2.881-2.306-2.881c-0.96,0-1.855,0.688-2.129,1.744
		c-0.048,0.177-0.097,0.385-0.097,0.576L594.711,390.134L594.711,390.134z"/>
</g>
<line fill="none" stroke="#444444" x1="684.75" y1="369.927" x2="684.75" y2="375.927"/>
<g>
	<path d="M662.742,392.084h5.586v1.203h-7.461v-1.312c0.713-0.479,1.354-0.922,1.93-1.327c0.572-0.406,1.078-0.79,1.516-1.152
		c0.438-0.362,0.812-0.707,1.13-1.035c0.313-0.328,0.573-0.653,0.776-0.977c0.203-0.324,0.353-0.648,0.445-0.978
		s0.141-0.675,0.141-1.039c0-0.312-0.055-0.608-0.16-0.891c-0.106-0.281-0.262-0.527-0.461-0.738
		c-0.2-0.211-0.448-0.379-0.741-0.504c-0.295-0.125-0.63-0.188-1.005-0.188c-0.303,0-0.594,0.043-0.87,0.129
		c-0.279,0.086-0.527,0.223-0.742,0.409c-0.217,0.188-0.394,0.43-0.527,0.724c-0.137,0.294-0.211,0.646-0.227,1.059l-1.297-0.147
		c0.02-0.521,0.12-0.989,0.305-1.406c0.182-0.417,0.434-0.771,0.754-1.062s0.703-0.516,1.148-0.672
		c0.444-0.155,0.94-0.233,1.487-0.233c0.531,0,1.023,0.087,1.48,0.262c0.455,0.175,0.852,0.418,1.188,0.729
		c0.336,0.312,0.599,0.684,0.789,1.109c0.189,0.427,0.285,0.895,0.285,1.398c0,0.599-0.104,1.161-0.309,1.688
		c-0.207,0.526-0.521,1.043-0.941,1.551c-0.421,0.509-0.957,1.021-1.604,1.535c-0.648,0.516-1.414,1.061-2.294,1.633l-0.319,0.203
		L662.742,392.084L662.742,392.084z"/>
	<path d="M678.34,387.365c0,0.505-0.035,1.008-0.104,1.508c-0.07,0.5-0.181,0.976-0.328,1.426c-0.148,0.45-0.34,0.87-0.574,1.258
		c-0.233,0.389-0.518,0.724-0.848,1.004c-0.332,0.281-0.711,0.504-1.142,0.664c-0.43,0.161-0.916,0.242-1.457,0.242
		c-0.391,0-0.754-0.046-1.09-0.137s-0.645-0.218-0.926-0.379s-0.531-0.353-0.75-0.57s-0.406-0.456-0.562-0.711l1.345-0.414
		c0.26,0.359,0.551,0.628,0.875,0.805c0.321,0.178,0.69,0.267,1.108,0.267c0.359,0,0.685-0.06,0.974-0.176
		c0.289-0.117,0.547-0.278,0.772-0.484c0.227-0.206,0.422-0.449,0.586-0.73c0.164-0.28,0.302-0.589,0.41-0.922
		c0.109-0.333,0.191-0.685,0.25-1.055c0.057-0.37,0.09-0.745,0.103-1.125h-0.031c-0.101,0.192-0.242,0.383-0.426,0.57
		c-0.187,0.188-0.406,0.354-0.664,0.504c-0.259,0.148-0.552,0.27-0.875,0.362c-0.326,0.095-0.677,0.142-1.052,0.142
		c-0.53,0-1.02-0.093-1.465-0.277c-0.445-0.184-0.83-0.439-1.151-0.766c-0.324-0.325-0.574-0.712-0.755-1.16
		c-0.18-0.448-0.27-0.935-0.27-1.461c0-0.536,0.094-1.036,0.285-1.5c0.188-0.464,0.453-0.867,0.793-1.211
		c0.338-0.344,0.744-0.614,1.219-0.812c0.473-0.197,0.992-0.297,1.555-0.297c0.595,0,1.146,0.112,1.656,0.336
		c0.51,0.225,0.953,0.556,1.328,0.992c0.375,0.438,0.67,0.979,0.887,1.621c0.215,0.644,0.324,1.382,0.324,2.215V387.365
		L678.34,387.365z M676.738,385.701c0-0.386-0.064-0.739-0.191-1.062c-0.129-0.322-0.305-0.601-0.531-0.832
		c-0.226-0.23-0.496-0.411-0.805-0.539c-0.311-0.128-0.65-0.19-1.02-0.19c-0.359,0-0.693,0.062-1,0.184
		c-0.31,0.122-0.572,0.296-0.793,0.521c-0.224,0.224-0.396,0.495-0.523,0.812c-0.129,0.317-0.191,0.672-0.191,1.062
		c0,0.396,0.062,0.755,0.188,1.078c0.126,0.322,0.299,0.598,0.522,0.823c0.224,0.228,0.488,0.401,0.798,0.523
		c0.307,0.122,0.645,0.184,1.016,0.184c0.375,0,0.717-0.062,1.027-0.184c0.309-0.122,0.573-0.296,0.797-0.521
		c0.221-0.224,0.395-0.492,0.52-0.809S676.738,386.087,676.738,385.701z"/>
</g>
<g>
	<path d="M684.326,391.591c0.623,0.384,1.536,0.704,2.496,0.704c1.425,0,2.258-0.753,2.258-1.841c0-1.009-0.576-1.585-2.033-2.146
		c-1.761-0.625-2.85-1.536-2.85-3.058c0-1.681,1.393-2.93,3.489-2.93c1.104,0,1.904,0.257,2.386,0.527l-0.386,1.138
		c-0.352-0.192-1.071-0.513-2.049-0.513c-1.473,0-2.033,0.881-2.033,1.616c0,1.009,0.657,1.505,2.146,2.081
		c1.825,0.704,2.753,1.584,2.753,3.169c0,1.665-1.232,3.105-3.777,3.105c-1.041,0-2.177-0.306-2.753-0.688L684.326,391.591z"/>
	<path d="M693.302,389.67c0.032,1.904,1.249,2.688,2.657,2.688c1.008,0,1.617-0.177,2.145-0.399l0.24,1.008
		c-0.496,0.226-1.344,0.48-2.576,0.48c-2.386,0-3.811-1.568-3.811-3.905s1.377-4.178,3.634-4.178c2.528,0,3.201,2.225,3.201,3.648
		c0,0.288-0.032,0.513-0.048,0.656L693.302,389.67L693.302,389.67z M697.432,388.661c0.017-0.896-0.367-2.289-1.953-2.289
		c-1.424,0-2.049,1.312-2.159,2.289H697.432z"/>
	<path d="M700.693,388.069c0-0.993-0.031-1.793-0.063-2.529h1.265l0.064,1.328h0.031c0.576-0.944,1.488-1.504,2.754-1.504
		c1.872,0,3.281,1.584,3.281,3.938c0,2.785-1.697,4.161-3.521,4.161c-1.024,0-1.922-0.448-2.385-1.216h-0.033v4.209h-1.393V388.069
		L700.693,388.069z M702.086,390.134c0,0.208,0.033,0.4,0.064,0.576c0.256,0.977,1.104,1.648,2.112,1.648
		c1.488,0,2.354-1.217,2.354-2.993c0-1.554-0.816-2.881-2.306-2.881c-0.96,0-1.855,0.688-2.129,1.744
		c-0.048,0.177-0.097,0.385-0.097,0.576L702.086,390.134L702.086,390.134z"/>
</g>
<line fill="none" stroke="#444444" x1="792.125" y1="369.927" x2="792.125" y2="375.927"/>
<g>
	<path d="M773.398,388.021c0-0.506,0.034-1.008,0.104-1.505s0.18-0.973,0.328-1.426c0.147-0.453,0.338-0.872,0.57-1.258
		c0.229-0.386,0.512-0.719,0.844-1c0.33-0.281,0.711-0.503,1.141-0.664c0.431-0.161,0.914-0.242,1.457-0.242
		c0.392,0,0.754,0.046,1.094,0.138c0.339,0.091,0.646,0.216,0.927,0.375c0.276,0.158,0.526,0.348,0.746,0.565
		c0.219,0.218,0.405,0.456,0.562,0.711l-1.344,0.422c-0.5-0.719-1.162-1.078-1.984-1.078c-0.537,0-0.996,0.128-1.379,0.384
		c-0.383,0.255-0.699,0.593-0.949,1.012s-0.438,0.897-0.559,1.438c-0.123,0.539-0.189,1.096-0.199,1.668h0.031
		c0.094-0.191,0.231-0.383,0.418-0.569c0.184-0.188,0.406-0.356,0.664-0.508c0.258-0.152,0.549-0.273,0.875-0.367
		c0.324-0.095,0.676-0.142,1.051-0.142c0.531,0,1.021,0.094,1.465,0.277c0.445,0.184,0.83,0.441,1.156,0.77
		c0.324,0.328,0.578,0.717,0.758,1.164c0.181,0.448,0.271,0.934,0.271,1.453c0,0.536-0.097,1.038-0.285,1.504
		c-0.191,0.467-0.457,0.871-0.797,1.216c-0.342,0.344-0.75,0.613-1.224,0.812c-0.475,0.198-0.991,0.297-1.555,0.297
		c-0.594,0-1.146-0.111-1.656-0.336c-0.512-0.224-0.952-0.555-1.327-0.992c-0.375-0.437-0.671-0.978-0.884-1.621
		c-0.215-0.644-0.319-1.384-0.319-2.223V388.021L773.398,388.021z M775,389.686c0,0.392,0.062,0.746,0.191,1.066
		c0.127,0.32,0.303,0.597,0.526,0.828c0.224,0.23,0.49,0.411,0.801,0.539c0.31,0.128,0.648,0.19,1.021,0.19
		c0.359,0,0.691-0.062,1-0.184c0.307-0.122,0.572-0.296,0.797-0.52c0.223-0.225,0.398-0.495,0.527-0.812
		c0.127-0.317,0.19-0.672,0.19-1.062c0-0.396-0.062-0.754-0.188-1.074s-0.302-0.594-0.523-0.82c-0.225-0.227-0.492-0.4-0.801-0.522
		c-0.312-0.122-0.65-0.185-1.021-0.185s-0.711,0.062-1.02,0.185c-0.311,0.122-0.578,0.296-0.801,0.52
		c-0.226,0.224-0.398,0.493-0.521,0.809C775.061,388.958,775,389.306,775,389.686z"/>
</g>
<g>
	<path d="M796.612,387.781c0,3.713-2.257,5.682-5.011,5.682c-2.849,0-4.851-2.209-4.851-5.474c0-3.426,2.129-5.667,5.011-5.667
		C794.707,382.322,796.612,384.579,796.612,387.781z M788.241,387.957c0,2.305,1.249,4.37,3.44,4.37
		c2.209,0,3.458-2.033,3.458-4.482c0-2.145-1.12-4.386-3.44-4.386C789.394,383.459,788.241,385.588,788.241,387.957z"/>
	<path d="M804.051,392.999c-0.367,0.192-1.184,0.448-2.225,0.448c-2.337,0-3.857-1.585-3.857-3.954c0-2.385,1.633-4.113,4.162-4.113
		c0.832,0,1.568,0.208,1.952,0.4l-0.319,1.088c-0.337-0.191-0.864-0.368-1.633-0.368c-1.776,0-2.737,1.312-2.737,2.93
		c0,1.793,1.151,2.897,2.688,2.897c0.801,0,1.328-0.209,1.729-0.385L804.051,392.999z"/>
	<path d="M807.554,383.315v2.225h2.018v1.072h-2.018v4.178c0,0.961,0.272,1.505,1.057,1.505c0.368,0,0.641-0.048,0.815-0.097
		l0.064,1.057c-0.271,0.112-0.704,0.192-1.248,0.192c-0.656,0-1.186-0.208-1.521-0.593c-0.398-0.416-0.543-1.104-0.543-2.018v-4.226
		h-1.201v-1.072h1.201v-1.856L807.554,383.315z"/>
</g>
<line fill="none" stroke="#444444" x1="899.5" y1="369.927" x2="899.5" y2="375.927"/>
<g>
	<path d="M876.844,392.084h2.398v-7.023h-2.516v-1.163h0.819c0.363,0,0.66-0.03,0.892-0.091c0.229-0.06,0.405-0.154,0.53-0.284
		c0.125-0.131,0.209-0.299,0.254-0.505c0.044-0.205,0.066-0.457,0.066-0.754v-0.18h1.312v10h2.4v1.203h-6.156V392.084z"/>
	<path d="M886.902,390.42c0.213,0.536,0.539,0.977,0.977,1.316s1.018,0.512,1.742,0.512c0.395,0,0.742-0.054,1.043-0.16
		c0.299-0.105,0.551-0.254,0.754-0.44c0.203-0.188,0.355-0.403,0.457-0.648s0.152-0.511,0.152-0.797c0-0.63-0.246-1.118-0.738-1.465
		c-0.492-0.348-1.127-0.521-1.902-0.521h-0.483v-1.203h0.438c0.427,0,0.797-0.059,1.109-0.176c0.312-0.117,0.571-0.271,0.78-0.465
		c0.207-0.192,0.363-0.409,0.466-0.648c0.102-0.238,0.151-0.48,0.151-0.727c0-0.234-0.049-0.464-0.145-0.688
		c-0.098-0.224-0.234-0.425-0.414-0.602s-0.41-0.315-0.688-0.414c-0.279-0.099-0.595-0.147-0.941-0.147
		c-0.621,0-1.146,0.158-1.578,0.477c-0.434,0.317-0.75,0.714-0.953,1.188l-1.148-0.562c0.316-0.734,0.806-1.302,1.462-1.703
		c0.655-0.401,1.395-0.602,2.219-0.602c0.52,0,1,0.073,1.438,0.223c0.438,0.149,0.816,0.359,1.138,0.633
		c0.32,0.274,0.569,0.594,0.75,0.961c0.18,0.367,0.27,0.766,0.27,1.191c0,0.344-0.055,0.656-0.16,0.938
		c-0.106,0.281-0.254,0.534-0.438,0.759c-0.186,0.224-0.406,0.409-0.664,0.559c-0.258,0.148-0.531,0.251-0.816,0.309
		c0.332,0.053,0.642,0.157,0.922,0.316c0.281,0.159,0.523,0.354,0.728,0.59s0.363,0.504,0.479,0.809
		c0.117,0.306,0.177,0.624,0.177,0.957c0,0.531-0.105,1-0.312,1.406c-0.209,0.406-0.492,0.747-0.848,1.023
		c-0.357,0.275-0.769,0.482-1.23,0.621c-0.465,0.138-0.952,0.207-1.469,0.207c-0.918,0-1.738-0.212-2.461-0.638
		c-0.725-0.425-1.238-1.031-1.539-1.823L886.902,390.42z"/>
</g>
<g>
	<path d="M908.987,387.781c0,3.713-2.257,5.682-5.011,5.682c-2.849,0-4.851-2.209-4.851-5.474c0-3.426,2.129-5.667,5.011-5.667
		C907.082,382.322,908.987,384.579,908.987,387.781z M900.616,387.957c0,2.305,1.249,4.37,3.44,4.37
		c2.209,0,3.458-2.033,3.458-4.482c0-2.145-1.12-4.386-3.44-4.386C901.77,383.459,900.616,385.588,900.616,387.957z"/>
	<path d="M916.426,392.999c-0.367,0.192-1.184,0.448-2.225,0.448c-2.337,0-3.857-1.585-3.857-3.954c0-2.385,1.633-4.113,4.162-4.113
		c0.832,0,1.568,0.208,1.952,0.4l-0.319,1.088c-0.337-0.191-0.864-0.368-1.633-0.368c-1.776,0-2.738,1.312-2.738,2.93
		c0,1.793,1.152,2.897,2.689,2.897c0.801,0,1.328-0.209,1.729-0.385L916.426,392.999z"/>
	<path d="M919.929,383.315v2.225h2.018v1.072h-2.018v4.178c0,0.961,0.272,1.505,1.057,1.505c0.368,0,0.641-0.048,0.815-0.097
		l0.064,1.057c-0.271,0.112-0.704,0.192-1.248,0.192c-0.656,0-1.186-0.208-1.521-0.593c-0.398-0.416-0.543-1.104-0.543-2.018v-4.226
		h-1.201v-1.072h1.201v-1.856L919.929,383.315z"/>
</g>
<g>
	<path d="M29.304,355.703c0.479,0,0.911,0.075,1.297,0.227c0.385,0.151,0.725,0.358,1.02,0.621c0.294,0.264,0.547,0.577,0.758,0.941
		s0.384,0.759,0.52,1.184c0.135,0.425,0.234,0.874,0.297,1.349c0.063,0.474,0.094,0.952,0.094,1.438s-0.031,0.962-0.094,1.434
		c-0.063,0.473-0.162,0.92-0.297,1.345c-0.136,0.425-0.309,0.816-0.52,1.18s-0.464,0.676-0.758,0.941s-0.634,0.473-1.02,0.621
		c-0.386,0.147-0.818,0.223-1.297,0.223s-0.912-0.074-1.297-0.223c-0.386-0.148-0.726-0.355-1.02-0.621
		c-0.294-0.267-0.547-0.579-0.758-0.941s-0.384-0.755-0.52-1.18c-0.136-0.425-0.234-0.872-0.297-1.345
		c-0.063-0.472-0.094-0.948-0.094-1.434s0.031-0.964,0.094-1.438c0.063-0.475,0.161-0.924,0.297-1.349
		c0.135-0.425,0.309-0.818,0.52-1.184s0.463-0.679,0.758-0.941c0.294-0.263,0.634-0.47,1.02-0.621
		C28.393,355.778,28.825,355.703,29.304,355.703z M29.304,365.992c0.364,0,0.704-0.098,1.02-0.289
		c0.315-0.192,0.586-0.47,0.812-0.832c0.226-0.362,0.405-0.809,0.535-1.336c0.13-0.528,0.195-1.129,0.195-1.801v-0.562
		c0-0.672-0.065-1.271-0.195-1.797s-0.309-0.972-0.535-1.336c-0.226-0.364-0.498-0.642-0.812-0.832
		c-0.315-0.19-0.655-0.285-1.02-0.285c-0.37,0-0.711,0.095-1.023,0.285c-0.312,0.19-0.582,0.468-0.809,0.832
		s-0.405,0.81-0.535,1.336s-0.195,1.125-0.195,1.797v0.562c0,0.672,0.065,1.271,0.195,1.801c0.13,0.528,0.309,0.974,0.535,1.336
		s0.496,0.64,0.809,0.832C28.594,365.895,28.934,365.992,29.304,365.992z"/>
</g>
<g>
	<path fill="#C1DFE4" d="M899.873,361.454H41V107.066l43.252-9.127l43.252-23.621l43.253,32.748l43.252,1.104
		c0,0,30.895-8.706,43.252-8.706c12.358,0,43.253,7.604,43.253,7.604h43.253l43.252-15.824l43.252,9.746l43.253-9.746l43.253,8.224
		l37.072,18.294l43.254,13.714l43.252-12.191h43.253l43.253,12.191l43.252-23.299l43.253,58.358h43.252l43.253-15.243V361.454z"/>
</g>
<g>
	<path fill="none" stroke="#097F96" stroke-width="2.5" stroke-linecap="round" stroke-linejoin="round" stroke-miterlimit="10" d="
		M41,107.066l43.252-9.127l43.252-23.621l43.253,32.748l43.252,1.104c0,0,30.895-8.706,43.252-8.706
		c12.358,0,43.253,7.604,43.253,7.604h43.253l43.252-15.824l43.252,9.746l43.253-9.746l43.253,8.224l37.072,18.294l43.254,13.714
		l43.252-12.191h43.253l43.253,12.191l43.252-23.299l43.253,58.358h43.252l43.253-15.243"/>
</g>
<text transform="matrix(1 0 0 1 3.2168 313.0615)"><tspan x="0" y="0" font-family="'NTATabularNumbers-Light'" font-size="16">10</tspan><tspan x="19.203" y="0" font-family="'GDSTransportWebsite'" font-size="16">%</tspan></text>
<text transform="matrix(1 0 0 1 3.2168 259.2842)"><tspan x="0" y="0" font-family="'NTATabularNumbers-Light'" font-size="16">20</tspan><tspan x="19.203" y="0" font-family="'GDSTransportWebsite'" font-size="16">%</tspan></text>
<text transform="matrix(1 0 0 1 3.2168 205.5078)"><tspan x="0" y="0" font-family="'NTATabularNumbers-Light'" font-size="16">30</tspan><tspan x="19.203" y="0" font-family="'GDSTransportWebsite'" font-size="16">%</tspan></text>
<text transform="matrix(1 0 0 1 3.2168 151.7314)"><tspan x="0" y="0" font-family="'NTATabularNumbers-Light'" font-size="16">40</tspan><tspan x="19.203" y="0" font-family="'GDSTransportWebsite'" font-size="16">%</tspan></text>
<text transform="matrix(1 0 0 1 3.2168 97.9541)"><tspan x="0" y="0" font-family="'NTATabularNumbers-Light'" font-size="16">50</tspan><tspan x="19.203" y="0" font-family="'GDSTransportWebsite'" font-size="16">%</tspan></text>
<text transform="matrix(1 0 0 1 3.2168 44.1777)"><tspan x="0" y="0" font-family="'NTATabularNumbers-Light'" font-size="16">60</tspan><tspan x="19.203" y="0" font-family="'GDSTransportWebsite'" font-size="16">%</tspan></text>
</svg>
