<?xml version="1.0" encoding="utf-8"?>
<!-- Generator: Adobe Illustrator 16.0.4, SVG Export Plug-In . SVG Version: 6.00 Build 0)  -->
<!DOCTYPE svg PUBLIC "-//W3C//DTD SVG 1.1//EN" "http://www.w3.org/Graphics/SVG/1.1/DTD/svg11.dtd">
<svg version="1.1" id="Layer_1" xmlns="http://www.w3.org/2000/svg" xmlns:xlink="http://www.w3.org/1999/xlink" x="0px" y="0px"
	 width="142px" height="30px" viewBox="0 0 142 30" enable-background="new 0 0 142 30" xml:space="preserve">
<g>
	<path fill="none" stroke="#108095" stroke-width="1.5" stroke-miterlimit="10" d="M140.702,10.833h-2.704l-1.639,0.204
		l-3.769-0.204l-3.264-0.748l-2.144,1.219l-1.638,0.203l-3.771-0.203l-3.263,0.363l-2.144-0.363l-2.703-0.269h-2.703h-2.706
		l-2.701-1.731l-2.707,0.47l-3.264,2.289l-2.143,0.204l-2.704,0.304L92.035,12.1l-2.704,2l-2.703-0.296l-2.703-0.471l-2.704,0.471
		l-2.703-0.471h-2.704h-2.705l-2.703,2.208H67.7l-2.703-0.749l-2.704,0.03l-1.636,0.203l-3.77-0.56l-2.706,0.356l-2.703,0.359
		h-2.702l-2.705,0.359l-2.704-0.359l-2.706,0.359c0,0-0.792,0.219-1.637,0.204c-0.843-0.015-3.769,0.084-3.769,0.084l-2.703,1.718
		l-2.704,0.317l-2.705,0.743l-1.638-1.2l-3.768,2.296l-1.64,0.204l-3.769,0.115l-2.704,0.674h-2.705L8.22,20.383l-2.704-0.359
		l-1.636,0.204H1.174"/>
</g>
</svg>
