<?xml version="1.0" encoding="utf-8"?>
<!-- Generator: Adobe Illustrator 16.0.4, SVG Export Plug-In . SVG Version: 6.00 Build 0)  -->
<!DOCTYPE svg PUBLIC "-//W3C//DTD SVG 1.1//EN" "http://www.w3.org/Graphics/SVG/1.1/DTD/svg11.dtd">
<svg version="1.1" id="Layer_1" xmlns="http://www.w3.org/2000/svg" xmlns:xlink="http://www.w3.org/1999/xlink" x="0px" y="0px"
	 width="142px" height="30px" viewBox="0 0 142 30" enable-background="new 0 0 142 30" xml:space="preserve">
<g>
	<path fill="none" stroke="#118094" stroke-width="2" d="M1.757,7.832l7-1.904l7-4.928l7,6.832l7,0.23c0,0,5-1.816,7-1.816
		s7,1.586,7,1.586h7l7-3.302l7,2.034l7-2.034l7,1.716l6,3.816l7,2.861l7-2.545h7l7,2.545l7-4.862l7,12.176h7l7-3.181"/>
</g>
<polyline fill="none" stroke="#662F8F" stroke-width="2" points="1.757,7.437 8.757,10.127 15.757,11.084 22.757,9.26 29.757,9.26 
	36.757,10.305 43.977,9.26 50.758,11.084 57.758,15.148 64.758,16.941 71.594,13.176 78.758,9.947 84.758,9.229 91.758,12.996 
	98.412,11.084 105.758,8.871 112.758,8.871 119.758,9.588 126.758,7.437 133.758,7.437 140.758,8.332 "/>
<polyline fill="none" stroke="#D6007D" stroke-width="2" points="1.756,26.081 8.756,26.75 15.756,26.988 22.756,26.535 
	29.756,26.535 36.756,26.795 43.976,26.535 50.757,26.988 57.757,27.998 64.757,28.444 71.593,27.508 78.757,26.705 84.757,26.527 
	91.757,27.464 98.411,26.988 105.757,26.438 112.757,26.438 119.757,26.616 126.757,26.081 133.757,26.081 140.757,26.304 "/>
</svg>
