<?xml version="1.0" encoding="utf-8"?>
<!-- Generator: Adobe Illustrator 17.0.0, SVG Export Plug-In . SVG Version: 6.00 Build 0)  -->
<!DOCTYPE svg PUBLIC "-//W3C//DTD SVG 1.1//EN" "http://www.w3.org/Graphics/SVG/1.1/DTD/svg11.dtd">
<svg version="1.1" id="Layer_1" xmlns="http://www.w3.org/2000/svg" xmlns:xlink="http://www.w3.org/1999/xlink" x="0px" y="0px"
	 width="142px" height="30px" viewBox="0 0 142 30" enable-background="new 0 0 142 30" xml:space="preserve">
<g>
	<path opacity="0.3" fill="none" d="M1,3.528h2.221h2.222l2.222,1.54l2.224-0.153l3.097-0.42l1.347,1.959h2.222l2.221-1.539H21
		l3.097-0.42L26.32,3.81h2.223l1.345,0.42l2.222-0.741l2.222-0.645h2.223l2.222,1.388l3.098,0.236l1.347,0.42l3.097-0.42L47.666,2
		l2.223,1.528l2.222,0.653l2.221,8.676c0,0,2.405,0.204,3.098,0.174c0.695-0.03,1.345,0.419,1.345,0.419L61,14.191l2.222-0.74
		l2.223,0.74h2.221l2.222,0.74l2.223,0.733l3.098-1.152l1.345,0.419l2.222,0.062l2.222-1.541h2.223l2.221,4.542h2.224h2.222
		l2.222-0.968l2.222,0.968l2.222-0.968l2.222-0.609H101l2.222-0.968l2.222,0.624l1.761,0.421l2.683-0.434l2.224,0.966l2.22,0.551
		h2.224h2.222l2.222-0.551l1.761-0.747l2.682,0.747l3.099-0.418l1.346,0.418l1.761,2.507l2.683-1.54l3.097-0.42l1.347,0.42H141
		L140.919,28H1V3.528z"/>
	<path fill="none" stroke="#108095" stroke-width="1.5" d="M141,17.993h-2.222l-1.347-0.42l-3.097,0.42l-2.683,1.54l-1.761-2.507
		l-1.346-0.418l-3.099,0.418l-2.682-0.747l-1.761,0.747l-2.222,0.551h-2.222h-2.224l-2.22-0.551l-2.224-0.966l-2.683,0.434
		l-1.761-0.421l-2.222-0.624L101,16.416h-2.222l-2.222,0.609l-2.222,0.968l-2.222-0.968l-2.222,0.968h-2.222h-2.224l-2.221-4.542
		h-2.223l-2.222,1.541l-2.222-0.062l-1.345-0.419l-3.098,1.152l-2.223-0.733l-2.222-0.74h-2.221l-2.223-0.74L61,14.191l-2.224-0.74
		c0,0-0.65-0.449-1.345-0.419c-0.693,0.03-3.098-0.174-3.098-0.174l-2.221-8.676l-2.222-0.653L47.666,2L46.32,4.469l-3.097,0.42
		l-1.347-0.42l-3.098-0.236l-2.222-1.388h-2.223L32.111,3.49l-2.222,0.741l-1.345-0.42H26.32l-2.223,0.684L21,4.915h-2.223
		l-2.221,1.539h-2.222l-1.347-1.959l-3.097,0.42L7.665,5.068l-2.222-1.54H3.221H1"/>
</g>
</svg>
