<?xml version="1.0" encoding="utf-8"?>
<!-- Generator: Adobe Illustrator 16.0.4, SVG Export Plug-In . SVG Version: 6.00 Build 0)  -->
<!DOCTYPE svg PUBLIC "-//W3C//DTD SVG 1.1//EN" "http://www.w3.org/Graphics/SVG/1.1/DTD/svg11.dtd">
<svg version="1.1" id="Layer_1" xmlns="http://www.w3.org/2000/svg" xmlns:xlink="http://www.w3.org/1999/xlink" x="0px" y="0px"
	 width="142px" height="30px" viewBox="0 0 142 30" enable-background="new 0 0 142 30" xml:space="preserve">
<g>
	<path fill="none" stroke="#108095" stroke-width="1.5" stroke-miterlimit="10" d="M139.051,7.832h-2.586l-1.568,0.505l-3.606-0.505
		l-3.122-1.856l-2.051,3.022L124.549,9.5l-3.607-0.503l-3.123,0.901l-2.051-0.901l-2.586-0.666h-2.589h-2.589l-2.585,0.666
		l-2.589,1.164l-3.124-0.523l-2.052,0.507l-2.586,0.754L92.48,24.025h-2.586L87.309,8.997l-2.588-1.165l-2.587,1.166l-2.588-1.166
		h-2.587h-2.59l-2.586,5.473h-2.587l-2.587-1.858l-2.587,0.076l-1.565,0.505l-3.607-1.391l-2.589,0.885l-2.587,0.892h-2.586
		l-2.588,0.89l-2.587-0.89l-2.589,0.89c0,0-0.757,0.542-1.566,0.506c-0.807-0.036-3.606,0.21-3.606,0.21l-2.586-0.108L32.977,14.7
		l-2.588,1.841l-1.567-2.975l-3.605-0.505l-1.569,0.505l-3.607,0.286l-2.587,1.671h-2.588l-2.587-0.776l-2.587-0.893l-1.567,0.507
		H5.536l-2.588-0.826"/>
</g>
</svg>
