<?xml version="1.0" encoding="utf-8"?>
<!-- Generator: Adobe Illustrator 16.0.4, SVG Export Plug-In . SVG Version: 6.00 Build 0)  -->
<!DOCTYPE svg PUBLIC "-//W3C//DTD SVG 1.1//EN" "http://www.w3.org/Graphics/SVG/1.1/DTD/svg11.dtd">
<svg version="1.1" id="Layer_1" xmlns="http://www.w3.org/2000/svg" xmlns:xlink="http://www.w3.org/1999/xlink" x="0px" y="0px"
	 width="930px" height="500.75px" viewBox="0 0 930 500.75" enable-background="new 0 0 930 500.75" xml:space="preserve">
<g>
	
		<rect x="703.58" y="442.825" fill="#CCCCCC" stroke="#B3B3B3" stroke-width="0.9629" stroke-miterlimit="10" width="225.743" height="23.07"/>
	<g>
		<text transform="matrix(1 0 0 1 709.9824 458.8008)" fill="#0B0C0C" font-family="'GDSTransportWebsite'" font-size="13.808">More</text>
	</g>
</g>
<g>
	<path fill="#B6D9E0" d="M259.626,225.352v32.547c65.297,0,131.353,76.408,197.257,76.408v-28.603
		C390.827,305.705,325.074,225.352,259.626,225.352z"/>
	<path fill="#B6D9E0" d="M259.626,273.799c65.145,0,132.568,78.735,197.257,78.735v-18.227c-66.056,0-132.416-76.408-197.257-76.408
		V273.799z"/>
</g>
<g>
	<path fill="#B6D9E0" d="M259.626,314.119v1.973c65.543,0,131.258,38.415,197.257,38.415v-1.973
		C390.827,352.534,325.227,314.119,259.626,314.119z"/>
	<path fill="#B6D9E0" d="M259.626,318.957c65.538,0,131.038,38.262,197.257,38.262v-2.712c-66.208,0-132.112-38.415-197.257-38.415
		V318.957z"/>
</g>
<g>
	<path fill="#B6D9E0" d="M259.626,369.596v1.973c65.6,0,131.428-12.377,197.257-12.377v-1.973
		C390.827,357.219,325.112,369.596,259.626,369.596z"/>
	<path fill="#B6D9E0" d="M259.626,372.707c65.6,0,131.336-10.809,197.257-10.809v-2.707c-65.942,0-131.657,12.377-197.257,12.377
		V372.707z"/>
</g>
<path fill="#B6D9E0" d="M456.883,366.583c-65.942,0-131.657,61.943-197.257,61.943v-2.919c65.6,0,131.442-63.709,197.257-63.709
	V366.583z"/>
<g>
	<path fill="#B6D9E0" d="M259.626,477.881v3.945c65.6,0,131.314-111.298,197.257-111.298v-3.945
		C391.054,366.583,325.226,477.881,259.626,477.881z"/>
	<path fill="#B6D9E0" d="M259.626,481.826v4.891c65.714,0,131.314-110.768,197.257-110.768v-5.421
		C390.94,370.528,325.226,481.826,259.626,481.826z"/>
</g>
<g>
	<path fill="#B6D9E0" d="M259.626,34.506v124.765c65.6,0,132.112,94.683,197.257,94.683V141.807
		C392.194,141.807,325.226,34.506,259.626,34.506z"/>
	<path fill="#B6D9E0" d="M259.626,159.271v8.256v35.14c65.448,0,131.353,103.038,197.257,103.038v-35.604v-16.146
		C391.13,253.954,324.923,159.271,259.626,159.271z"/>
</g>
<rect x="2.857" y="88.168" fill="#ECECEE" stroke="#B3B3B3" stroke-width="0.9629" stroke-miterlimit="10" width="225.743" height="48.729"/>
<rect x="2.857" y="293.314" fill="#ECECEE" stroke="#B3B3B3" stroke-width="0.9629" stroke-miterlimit="10" width="225.743" height="44.691"/>
<rect x="2.857" y="358.617" fill="#ECECEE" stroke="#B3B3B3" stroke-width="0.9629" stroke-miterlimit="10" width="225.743" height="25.536"/>
<rect x="2.857" y="470.067" fill="#CCCCCC" stroke="#B3B3B3" stroke-width="0.9629" stroke-miterlimit="10" width="225.743" height="25.536"/>
<rect x="2.857" y="413.796" fill="#ECECEE" stroke="#B3B3B3" stroke-width="0.9629" stroke-miterlimit="10" width="225.743" height="27.122"/>
<g>
	<text transform="matrix(1 0 0 1 12.728 107.9019)"><tspan x="0" y="0" fill="#0B0C0C" font-family="'GDSTransportWebsite'" font-size="13.808">/power-of-attorney/</tspan><tspan x="0" y="16.569" fill="#0B0C0C" font-family="'GDSTransportWebsite'" font-size="13.808">make-a-lasting-power-of-attorney</tspan></text>
</g>
<g>
	<text transform="matrix(1 0 0 1 12.4419 310.584)"><tspan x="0" y="0" fill="#0B0C0C" font-family="'GDSTransportWebsite'" font-size="13.808">/power-of-attorney/</tspan><tspan x="0" y="16.569" fill="#0B0C0C" font-family="'GDSTransportWebsite'" font-size="13.808">register-a-lasting-power-of-attorney</tspan></text>
</g>
<g>
	<text transform="matrix(1 0 0 1 12.4419 374.5938)" fill="#0B0C0C" font-family="'GDSTransportWebsite'" font-size="13.808">/search</text>
</g>
<g>
	<text transform="matrix(1 0 0 1 12.4419 486.0449)" fill="#0B0C0C" font-family="'GDSTransportWebsite'" font-size="13.808">More</text>
</g>
<g>
	<text transform="matrix(1 0 0 1 12.4419 431.7988)" fill="#0B0C0C" font-family="'GDSTransportWebsite'" font-size="13.808">Unkown</text>
</g>
<rect x="240.886" y="258.209" fill="#0D7F96" width="18.74" height="15.781"/>
<rect x="240.886" y="225.662" fill="#0D7F96" width="18.74" height="32.547"/>
<rect x="240.886" y="369.659" fill="#0D7F96" width="18.74" height="1.973"/>
<rect x="240.886" y="371.632" fill="#0D7F96" width="18.74" height="0.986"/>
<rect x="240.886" y="314.428" fill="#0D7F96" width="18.74" height="1.973"/>
<rect x="240.886" y="316.4" fill="#0D7F96" width="18.74" height="2.959"/>
<rect x="240.886" y="425.878" fill="#0D7F96" width="18.74" height="2.958"/>
<rect x="240.886" y="478.15" fill="#0D7F96" width="18.74" height="3.945"/>
<rect x="240.886" y="482.096" fill="#0D7F96" width="18.74" height="4.932"/>
<rect x="456.883" y="141.828" fill="#0D7F96" width="19.725" height="234.242"/>
<polygon points="219.771,486.424 213.789,483.088 219.771,479.247 "/>
<polygon points="922.595,458.429 916.613,455.093 922.595,451.251 "/>
<polygon fill="#0D7F96" points="259.626,34.816 259.626,34.323 240.886,34.323 240.886,159.581 259.626,159.581 "/>
<rect x="240.886" y="159.581" fill="#0D7F96" width="18.74" height="44.383"/>
<text transform="matrix(1 0 0 1 12.728 17.0166)" fill="#0E0E0E" font-family="'GDSTransportWebsite-Bold'" font-size="15.7805">Page referrer</text>
<text transform="matrix(1 0 0 1 710.0898 17.0166)" fill="#0E0E0E" font-family="'GDSTransportWebsite-Bold'" font-size="15.7805">Next page</text>
<text transform="matrix(1 0 0 1 378.3838 17.0166)" fill="#0E0E0E" font-family="'GDSTransportWebsite-Bold'" font-size="15.7805">Service start page</text>
<g>
	
		<rect x="2.857" y="229.206" fill="#ECECEE" stroke="#B3B3B3" stroke-width="0.9629" stroke-miterlimit="10" width="225.743" height="44.857"/>
	<g>
		<text transform="matrix(1 0 0 1 12.4419 246.4746)"><tspan x="0" y="0" fill="#0B0C0C" font-family="'GDSTransportWebsite'" font-size="13.808">/government/publications/</tspan><tspan x="0" y="16.568" fill="#0B0C0C" font-family="'GDSTransportWebsite'" font-size="13.808">make-a-lasting-power-of-attorney</tspan></text>
	</g>
</g>
<rect x="673.981" y="54.122" fill="#0D7F96" width="18.739" height="110.463"/>
<rect x="673.876" y="257.09" fill="#0D7F96" width="18.739" height="30.575"/>
<rect x="673.876" y="315.281" fill="#0D7F96" width="18.739" height="17.753"/>
<rect x="673.876" y="372.485" fill="#0D7F96" width="18.739" height="8.877"/>
<rect x="673.876" y="415.882" fill="#0D7F96" width="18.739" height="7.891"/>
<rect x="673.876" y="448.429" fill="#0D7F96" width="18.739" height="12.822"/>
<g>
	
		<rect x="703.58" y="251.965" fill="#ECECEE" stroke="#B3B3B3" stroke-width="1.2701" stroke-miterlimit="10" width="225.743" height="40.138"/>
	<g>
		<text transform="matrix(1 0 0 1 709.9824 268.1895)"><tspan x="0" y="0" fill="#0B0C0C" font-family="'GDSTransportWebsite'" font-size="13.808">/power-of-attorney/</tspan><tspan x="0" y="16.57" fill="#0B0C0C" font-family="'GDSTransportWebsite'" font-size="13.808">make-a-lasting-power-of-attorney</tspan></text>
	</g>
</g>
<g>
	
		<rect x="703.58" y="303.947" fill="#ECECEE" stroke="#B3B3B3" stroke-width="1.2701" stroke-miterlimit="10" width="225.743" height="40.137"/>
	<g>
		<text transform="matrix(1 0 0 1 709.9824 320.1719)"><tspan x="0" y="0" fill="#0B0C0C" font-family="'GDSTransportWebsite'" font-size="13.808">/government/publications/</tspan><tspan x="0" y="16.57" fill="#0B0C0C" font-family="'GDSTransportWebsite'" font-size="13.808">make-a-lasting-power-of-attorney</tspan></text>
	</g>
</g>
<g>
	
		<rect x="703.58" y="355.929" fill="#ECECEE" stroke="#B3B3B3" stroke-width="1.2701" stroke-miterlimit="10" width="225.743" height="40.137"/>
	<g>
		<text transform="matrix(1 0 0 1 709.9824 372.1543)"><tspan x="0" y="0" fill="#0B0C0C" font-family="'GDSTransportWebsite'" font-size="13.808">/browse/births-deaths-marriages/</tspan><tspan x="0" y="16.568" fill="#0B0C0C" font-family="'GDSTransportWebsite'" font-size="13.808">lasting-power-attorney</tspan></text>
	</g>
</g>
<g>
	
		<rect x="703.58" y="407.91" fill="#ECECEE" stroke="#B3B3B3" stroke-width="0.9629" stroke-miterlimit="10" width="225.743" height="23.071"/>
	<g>
		<text transform="matrix(1 0 0 1 709.9824 423.8848)" fill="#0B0C0C" font-family="'GDSTransportWebsite'" font-size="13.808">/power-of-attorney/overview</text>
	</g>
</g>
<g>
	
		<rect x="703.686" y="99.147" fill="#ECECEE" stroke="#B3B3B3" stroke-width="0.9629" stroke-miterlimit="10" width="225.744" height="23.071"/>
	<g>
		<text transform="matrix(1 0 0 1 710.0898 115.1226)" fill="#0B0C0C" font-family="'GDSTransportWebsite'" font-size="13.808">Exits</text>
	</g>
</g>
<rect x="673.876" y="182.341" fill="#0D7F96" width="18.739" height="57.204"/>
<g>
	<path fill="#B6D9E0" d="M673.866,257.09v30.575c-65.298,0-131.353,38.328-197.257,38.328v-26.63
		C542.664,299.363,608.417,257.09,673.866,257.09z"/>
	<path fill="#B6D9E0" d="M673.866,332.167c-67.575,0-133.479,13.038-197.257,13.038v-19.212c66.055,0,129.682-10.712,197.257-10.712
		V332.167z"/>
</g>
<g>
	<path fill="#B6D9E0" d="M673.866,372.487v8.877c-65.544,0-131.259-27.282-197.257-27.282v-8.877
		C542.664,345.205,608.265,372.487,673.866,372.487z"/>
</g>
<g>
	<path fill="#B6D9E0" d="M673.866,416.128v7.891c-65.602,0-131.429-62.293-197.257-62.293v-7.89
		C542.666,353.836,608.379,416.128,673.866,416.128z"/>
</g>
<path fill="#B6D9E0" d="M476.609,376.022c65.942,0,131.655,85.229,197.257,85.229v-12.782c-65.602,0-131.442-86.994-197.257-86.994
	V376.022z"/>
<g>
	<path fill="#B6D9E0" d="M673.866,54.886v110.423c-65.715,0-131.314,88.645-197.257,88.645V143.001
		C542.552,143.001,608.265,54.886,673.866,54.886z"/>
</g>
<g>
	<path fill="#B6D9E0" d="M673.866,182.834v56.711c-65.602,0-132.112,60.039-197.257,60.039v-45.862
		C541.299,253.722,608.265,182.834,673.866,182.834z"/>
</g>
<g>
	
		<rect x="703.58" y="198.915" fill="#ECECEE" stroke="#B3B3B3" stroke-width="0.9629" stroke-miterlimit="10" width="225.743" height="23.07"/>
	<g>
		<text transform="matrix(1 0 0 1 709.9824 214.8906)" fill="#0B0C0C" font-family="'GDSTransportWebsite'" font-size="13.808">Service begins</text>
	</g>
</g>
</svg>
