<?xml version="1.0" encoding="utf-8"?>
<!-- Generator: Adobe Illustrator 16.0.4, SVG Export Plug-In . SVG Version: 6.00 Build 0)  -->
<!DOCTYPE svg PUBLIC "-//W3C//DTD SVG 1.1//EN" "http://www.w3.org/Graphics/SVG/1.1/DTD/svg11.dtd">
<svg version="1.1" id="Layer_1" xmlns="http://www.w3.org/2000/svg" xmlns:xlink="http://www.w3.org/1999/xlink" x="0px" y="0px"
	 width="930px" height="450.5px" viewBox="0 0 930 450.5" enable-background="new 0 0 930 450.5" xml:space="preserve">
<symbol  id="Arrow" viewBox="-5.689 -9.033 11.379 18.066">
	<polygon fill="#FFFFFF" points="0.447,-9.033 2.311,-8.03 3.926,-7.191 1.357,-2.375 5.689,-2.375 -5.689,9.033 -5.689,-6.982 
		-2.373,-3.762 	"/>
	<polygon points="2.506,-6.619 0.741,-7.561 -3.022,-0.502 -1.259,0.439 	"/>
	<polygon points="-4.689,6.625 -4.689,-4.562 -1.432,-1.418 3.336,-1.418 	"/>
</symbol>
<rect x="456.833" y="375.084" fill="#EAEAEA" width="464.656" height="68"/>
<path opacity="0.5" fill="none" stroke="#EC2224" stroke-width="1.2936" d="M487.13,171.882c17.068,0,17.068,21.375,17.068,21.375"
	/>
<path opacity="0.5" fill="none" stroke="#EC2224" stroke-width="2.5873" d="M357.083,178.3c17.067,0,17.067,22.669,17.067,22.669"/>
<path opacity="0.5" fill="none" stroke="#EC2224" stroke-width="1.2936" d="M530.479,169.241c17.067,0,17.067,21.373,17.067,21.373"
	/>
<path opacity="0.5" fill="none" stroke="#EC2224" stroke-width="18.1108" d="M400.433,190.854c17.067,0,17.067,38.191,17.067,38.191
	"/>
<path opacity="0.5" fill="none" stroke="#EC2224" stroke-width="1.2936" d="M703.875,161.963c17.067,0,17.067,21.373,17.067,21.373"
	/>
<path opacity="0.5" fill="none" stroke="#EC2224" stroke-width="12.9363" d="M660.526,169.241c17.066,0,17.066,33.014,17.066,33.014
	"/>
<path opacity="0.5" fill="none" stroke="#EC2224" stroke-width="1.2936" d="M357.083,249.131c17.067,0,17.067,21.372,17.067,21.372"
	/>
<path opacity="0.5" fill="none" stroke="#EC2224" stroke-width="7.7618" d="M270.386,189.012c17.067,0,17.067,27.842,17.067,27.842"
	/>
<path opacity="0.5" fill="none" stroke="#EC2224" stroke-width="1.2936" d="M617.177,177.482c17.067,0,17.067,21.373,17.067,21.373"
	/>
<path opacity="0.5" fill="none" stroke="#EC2224" stroke-width="2.5873" d="M443.781,182.76c17.068,0,17.068,22.666,17.068,22.666"
	/>
<path opacity="0.5" fill="none" stroke="#EC2224" stroke-width="31.0471" d="M313.735,193.503c17.067,0,17.067,51.125,17.067,51.125
	"/>
<path opacity="0.5" fill="none" stroke="#EC2224" stroke-width="73.7369" d="M747.223,154.453c56.399,0,47.716,93.816,47.716,93.816
	"/>
<path opacity="0.2" fill="none" stroke="#989897" stroke-width="73.7369" d="M270.386,148.263c18.663,0,18.663,3.197,37.325,3.197"
	/>
<path opacity="0.2" fill="none" stroke="#989897" stroke-width="59.507" d="M400.433,145.579c18.662,0,18.662-2.92,37.325-2.92"/>
<path opacity="0.2" fill="none" stroke="#989897" stroke-width="56.9197" d="M10.293,127.953
	c127.035,0,127.035,11.901,254.069,11.901"/>
<path opacity="0.2" fill="none" stroke="#989897" stroke-width="54.3325" d="M617.177,148.376c18.661,0,18.661-5.009,37.324-5.009"
	/>
<path opacity="0.2" fill="none" stroke="#989897" stroke-width="49.1579" d="M443.781,156.888c18.662,0,18.662-10.231,37.325-10.231
	"/>
<path opacity="0.2" fill="none" stroke="#989897" stroke-width="45.2771" d="M487.13,148.599c18.663,0,18.663-2.646,37.326-2.646"/>
<path opacity="0.2" fill="none" stroke="#989897" stroke-width="43.9834" d="M573.828,146.459c18.663,0,18.663,7.091,37.324,7.091"
	/>
<path opacity="0.2" fill="none" stroke="#989897" stroke-width="43.9834" d="M530.479,146.602c18.663,0,18.663-0.143,37.326-0.143"
	/>
<path opacity="0.3" fill="none" stroke="#2D91A2" stroke-width="40.1025" d="M10.293,57.451
	c365.453,0,365.453,47.844,730.906,47.844"/>
<path opacity="0.2" fill="none" stroke="#989897" stroke-width="38.8089" d="M313.735,139.17c18.662,0,18.662,15.846,37.325,15.846"
	/>
<path opacity="0.2" fill="none" stroke="#989897" stroke-width="37.5153" d="M660.526,142.721c18.661,0,18.661,1.131,37.324,1.131"
	/>
<path opacity="0.2" fill="none" stroke="#989897" stroke-width="36.2217" d="M357.083,157.604c18.663,0,18.663-1.677,37.325-1.677"
	/>
<path opacity="0.2" fill="none" stroke="#2D91A2" stroke-width="32.3407" d="M747.223,101.414
	c84.124,0,84.124,184.891,168.244,184.891"/>
<path opacity="0.2" fill="none" stroke="#989897" stroke-width="29.7534" d="M703.875,138.677c18.662,0,18.662,27.417,37.324,27.417
	"/>
<path opacity="0.2" fill="none" stroke="#989897" stroke-width="19.4045" d="M357.083,237.488c18.663,0,18.663-53.749,37.325-53.749
	"/>
<path opacity="0.2" fill="none" stroke="#989897" stroke-width="18.1108" d="M313.735,167.631c18.662,0,18.662,70.503,37.325,70.503
	"/>
<path opacity="0.2" fill="none" stroke="#989897" stroke-width="10.3491" d="M10.293,93.026c192.058,0,192.058,16.33,384.116,16.33"
	/>
<path opacity="0.2" fill="none" stroke="#AA6667" stroke-width="10.3491" d="M660.526,118.789c-24.688,0-24.688,7.595-49.374,7.595"
	/>
<path opacity="0.2" fill="none" stroke="#989897" stroke-width="10.3491" d="M10.293,82.677
	c148.709,0,148.709,24.153,297.418,24.153"/>
<path opacity="0.2" fill="none" stroke="#989897" stroke-width="9.0554" d="M313.735,107.477c40.336,0,40.336,11.583,80.673,11.583"
	/>
<path opacity="0.2" fill="none" stroke="#AA6667" stroke-width="9.0554" d="M443.781,123.9c-24.687,0-24.687,4.214-49.373,4.214"/>
<path opacity="0.2" fill="none" stroke="#989897" stroke-width="9.0554" d="M400.433,108.709
	c170.384,0,170.384,22.458,340.767,22.458"/>
<path opacity="0.2" fill="none" stroke="#989897" stroke-width="7.7618" d="M443.781,115.491c148.71,0,148.71,24.084,297.418,24.084
	"/>
<path opacity="0.2" fill="none" stroke="#AA6667" stroke-width="7.7618" d="M921.488,279.19
	c-306.888,0-306.888-75.338-613.777-75.338"/>
<path opacity="0.2" fill="none" stroke="#AA6667" stroke-width="7.7618" d="M313.735,115.886c-24.687,0-24.687,56.311-49.373,56.311
	"/>
<path opacity="0.2" fill="none" stroke="#AA6667" stroke-width="6.4681" d="M921.488,286.305c-263.54,0-263.54-89.628-527.08-89.628
	"/>
<path opacity="0.2" fill="none" stroke="#AA6667" stroke-width="6.4681" d="M921.488,292.773
	c-241.864,0-241.864-111.953-483.731-111.953"/>
<path opacity="0.2" fill="none" stroke="#989897" stroke-width="6.4681" d="M10.293,432.938
	c127.035,0,127.035-243.279,254.069-243.279"/>
<path opacity="0.2" fill="none" stroke="#989897" stroke-width="5.1745" d="M10.293,328.149
	c127.035,0,127.035-144.312,254.069-144.312"/>
<path opacity="0.2" fill="none" stroke="#AA6667" stroke-width="5.1745" d="M921.488,272.722
	c-90.142,0-90.142-86.575-180.289-86.575"/>
<path opacity="0.2" fill="none" stroke="#989897" stroke-width="5.1745" d="M10.293,268.318
	c148.709,0,148.709-70.934,297.418-70.934"/>
<path opacity="0" fill="none" stroke="#989897" stroke-width="3.8809" d="M617.177,116.681c62.011,0,62.011,28.717,124.022,28.717"
	/>
<path opacity="0" fill="none" stroke="#AA6667" stroke-width="3.8809" d="M357.083,137.553c-24.686,0-24.686,55.303-49.372,55.303"
	/>
<path opacity="0" fill="none" stroke="#989897" stroke-width="3.8809" d="M10.293,159.647c322.104,0,322.104-45.387,644.208-45.387"
	/>
<path opacity="0" fill="none" stroke="#AA6667" stroke-width="2.5873" d="M921.488,297.302
	c-133.492,0-133.492-122.887-266.987-122.887"/>
<path opacity="0" fill="none" stroke="#989897" stroke-width="2.5873" d="M400.433,176.625c105.36,0,105.36-59.297,210.72-59.297"/>
<path opacity="0" fill="none" stroke="#AA6667" stroke-width="2.5873" d="M400.433,114.53c-46.361,0-46.361-1.231-92.721-1.231"/>
<path opacity="0" fill="none" stroke="#989897" stroke-width="2.5873" d="M10.293,324.269
	c365.453,0,365.453-134.243,730.906-134.243"/>
<path opacity="0" fill="none" stroke="#AA6667" stroke-width="2.5873" d="M617.177,119.916
	c-111.384,0-111.384,15.313-222.768,15.313"/>
<path opacity="0" fill="none" stroke="#AA6667" stroke-width="2.5873" d="M703.875,157.436
	c-133.059,0-133.059,17.563-266.118,17.563"/>
<path opacity="0" fill="none" stroke="#AA6667" stroke-width="2.5873" d="M703.875,160.021c-24.688,0-24.688,11.806-49.374,11.806"
	/>
<path opacity="0" fill="none" stroke="#AA6667" stroke-width="2.5873" d="M443.781,129.721c-89.709,0-89.709,47.649-179.419,47.649"
	/>
<path opacity="0" fill="none" stroke="#989897" stroke-width="2.5873" d="M487.13,123.372c127.036,0,127.036,25.259,254.069,25.259"
	/>
<path opacity="0" fill="none" stroke="#AA6667" stroke-width="2.5873" d="M400.433,179.212c-24.687,0-24.687-3.497-49.373-3.497"/>
<path opacity="0" fill="none" stroke="#AA6667" stroke-width="2.5873" d="M703.875,154.847
	c-198.082,0-198.082,34.775-396.164,34.775"/>
<path opacity="0" fill="none" stroke="#989897" stroke-width="1.2936" d="M10.293,265.084c365.453,0,365.453-82.173,730.906-82.173"
	/>
<path opacity="0" fill="none" stroke="#989897" stroke-width="1.2936" d="M10.293,166.116c170.383,0,170.383,62.317,340.767,62.317"
	/>
<path opacity="0" fill="none" stroke="#989897" stroke-width="1.2936" d="M10.293,271.551c127.035,0,127.035-90.947,254.069-90.947"
	/>
<path opacity="0" fill="none" stroke="#AA6667" stroke-width="1.2936" d="M530.479,122.669c-68.035,0-68.035,14.5-136.07,14.5"/>
<path opacity="0" fill="none" stroke="#989897" stroke-width="1.2936" d="M573.828,123.821c83.687,0,83.687,26.751,167.371,26.751"
	/>
<path opacity="0" fill="none" stroke="#AA6667" stroke-width="1.2936" d="M357.083,247.837c-46.36,0-46.36-68.527-92.721-68.527"/>
<path opacity="0" fill="none" stroke="#989897" stroke-width="1.2936" d="M10.293,164.823c343.779,0,343.779-40.375,687.558-40.375"
	/>
<path opacity="0" fill="none" stroke="#989897" stroke-width="1.2936" d="M47.618,331.943"/>
<path opacity="0" fill="none" stroke="#AA6667" stroke-width="1.2936" d="M530.479,123.963c-24.686,0-24.686,47.919-49.372,47.919"
	/>
<path opacity="0" fill="none" stroke="#989897" stroke-width="1.2936" d="M10.293,272.845c300.43,0,300.43-96.655,600.859-96.655"/>
<path opacity="0" fill="none" stroke="#AA6667" stroke-width="1.2936" d="M660.526,112.967
	c-133.061,0-133.061,20.321-266.118,20.321"/>
<path opacity="0" fill="none" stroke="#989897" stroke-width="1.2936" d="M53.642,111.417c278.756,0,278.756,7.852,557.511,7.852"/>
<path opacity="0" fill="none" stroke="#989897" stroke-width="1.2936" d="M53.642,331.943c127.035,0,127.035-123.564,254.07-123.564
	"/>
<path opacity="0" fill="none" stroke="#989897" stroke-width="1.2936" d="M313.735,102.302c213.73,0,213.73,23.691,427.464,23.691"
	/>
<path opacity="0" fill="none" stroke="#989897" stroke-width="1.2936" d="M443.781,131.661c83.685,0,83.685-11.098,167.371-11.098"
	/>
<path opacity="0" fill="none" stroke="#AA6667" stroke-width="1.2936" d="M921.488,299.242
	c-155.167,0-155.167-121.76-310.336-121.76"/>
<path opacity="0" fill="none" stroke="#989897" stroke-width="1.2936" d="M10.293,162.234c300.43,0,300.43-46.845,600.859-46.845"/>
<path opacity="0" fill="none" stroke="#AA6667" stroke-width="1.2936" d="M487.13,125.312c-24.687,0-24.687,47.746-49.373,47.746"/>
<path opacity="0" fill="none" stroke="#AA6667" stroke-width="1.2936" d="M617.177,176.19c-24.686,0-24.686-52.369-49.372-52.369"/>
<path opacity="0" fill="none" stroke="#989897" stroke-width="1.2936" d="M357.083,176.361c40.337,0,40.337,0.578,80.674,0.578"/>
<path opacity="0" fill="none" stroke="#989897" stroke-width="1.2936" d="M10.293,157.06c213.732,0,213.732-44.802,427.464-44.802"
	/>
<path opacity="0" fill="none" stroke="#989897" stroke-width="1.2936" d="M10.293,98.848c18.663,0,18.663,12.57,37.325,12.57"/>
<path opacity="0" fill="none" stroke="#AA6667" stroke-width="1.2936" d="M921.488,300.536
	c-198.515,0-198.515-131.295-397.032-131.295"/>
<path opacity="0" fill="none" stroke="#989897" stroke-width="1.2936" d="M10.293,163.529c257.081,0,257.081-40.86,514.163-40.86"/>
<path opacity="0" fill="none" stroke="#989897" stroke-width="1.2936" d="M741.199,181.619"/>
<path opacity="0" fill="none" stroke="#989897" stroke-width="1.2936" d="M10.293,274.139c170.383,0,170.383-25.008,340.767-25.008"
	/>
<path opacity="0" fill="none" stroke="#AA6667" stroke-width="1.2936" d="M660.526,162.126
	c-154.733,0-154.733,15.529-309.466,15.529"/>
<path opacity="0" fill="none" stroke="#AA6667" stroke-width="1.2936" d="M400.433,181.153c-24.687,0-24.687,66.684-49.373,66.684"
	/>
<path opacity="0" fill="none" stroke="#989897" stroke-width="1.2936" d="M10.293,331.384
	c170.383,0,170.383-152.434,340.767-152.434"/>
<rect x="481.106" y="122.079" opacity="0.9" fill="#ADC6E7" width="6.023" height="50.452"/>
<rect x="481.106" y="122.079" fill="none" stroke="#556172" stroke-width="0.4016" width="6.023" height="50.452"/>
<rect x="351.06" y="135.613" opacity="0.9" fill="#FBB979" width="6.023" height="43.983"/>
<rect x="351.06" y="135.613" fill="none" stroke="#7D5C3B" stroke-width="0.4016" width="6.023" height="43.983"/>
<rect x="4.27" y="429.704" opacity="0.9" fill="#2D9F48" width="6.023" height="6.471"/>
<rect x="4.27" y="429.704" fill="none" stroke="#214E25" stroke-width="0.4016" width="6.023" height="6.471"/>
<rect x="524.456" y="122.022" opacity="0.9" fill="#9CCF88" width="6.022" height="47.865"/>
<rect x="524.456" y="122.022" fill="none" stroke="#4B6D43" stroke-width="0.4016" width="6.022" height="47.865"/>
<rect x="394.409" y="104.182" opacity="0.9" fill="#D52A28" width="6.024" height="95.729"/>
<rect x="394.409" y="104.182" fill="none" stroke="#681515" stroke-width="0.4016" width="6.024" height="95.729"/>
<rect x="567.805" y="123.174" opacity="0.9" fill="#F59696" width="6.023" height="45.277"/>
<rect x="567.805" y="123.174" fill="none" stroke="#7C4A49" stroke-width="0.4016" width="6.023" height="45.277"/>
<rect x="697.851" y="123.801" opacity="0.9" fill="#9167AB" width="6.024" height="38.809"/>
<rect x="697.851" y="123.801" fill="none" stroke="#48325C" stroke-width="0.4016" width="6.024" height="38.809"/>
<rect x="4.27" y="37.399" opacity="0.9" fill="#C4AFD4" width="6.023" height="129.363"/>
<rect x="4.27" y="37.399" fill="none" stroke="#615769" stroke-width="0.4016" width="6.023" height="129.363"/>
<rect x="4.27" y="264.437" opacity="0.9" fill="#8B574C" width="6.023" height="10.349"/>
<rect x="4.27" y="264.437" fill="none" stroke="#452B24" stroke-width="0.4016" width="6.023" height="10.349"/>
<rect x="654.501" y="112.32" opacity="0.9" fill="#C49B93" width="6.025" height="63.389"/>
<rect x="654.501" y="112.32" fill="none" stroke="#614D48" stroke-width="0.4016" width="6.025" height="63.389"/>
<rect x="351.06" y="227.785" opacity="0.9" fill="#F6B5D1" width="6.023" height="21.992"/>
<rect x="351.06" y="227.785" fill="none" stroke="#7A5A66" stroke-width="0.4016" width="6.023" height="21.992"/>
<rect x="264.362" y="111.396" opacity="0.9" fill="#BBBD32" width="6.024" height="81.499"/>
<rect x="264.362" y="111.396" fill="none" stroke="#5D5D28" stroke-width="0.4016" width="6.024" height="81.499"/>
<rect x="611.152" y="114.741" opacity="0.9" fill="#DADA8C" width="6.024" height="63.388"/>
<rect x="611.152" y="114.741" fill="none" stroke="#6B6C46" stroke-width="0.4016" width="6.024" height="63.388"/>
<rect x="437.757" y="111.611" opacity="0.9" fill="#21BECE" width="6.024" height="72.443"/>
<rect x="437.757" y="111.611" fill="none" stroke="#0B5D65" stroke-width="0.4016" width="6.024" height="72.443"/>
<rect x="307.711" y="101.656" opacity="0.9" fill="#9FDAE4" width="6.024" height="107.372"/>
<rect x="307.711" y="101.656" fill="none" stroke="#4E6A70" stroke-width="0.4016" width="6.024" height="107.372"/>
<rect x="4.27" y="322.977" opacity="0.9" fill="#ADC6E7" width="6.023" height="9.055"/>
<rect x="4.27" y="322.977" fill="none" stroke="#556172" stroke-width="0.4016" width="6.023" height="9.055"/>
<rect x="741.199" y="85.243" opacity="0.7" fill="#118094" width="6.023" height="106.078"/>
<rect x="741.199" y="85.243" fill="none" stroke="#118094" stroke-width="2" width="6.023" height="106.078"/>
<text transform="matrix(1 0 0 1 752.5967 72.3545)" font-family="'GDSTransportWebsite'" font-size="14">&apos;/create/complete</text>
<text transform="matrix(1 0 0 1 530.5967 426.5498)" font-family="'GDSTransportWebsite'" font-size="14">&apos;/create/complete</text>
<text transform="matrix(1 0 0 1 530.5967 400.5508)" font-family="'GDSTransportWebsite-Bold'" font-size="14">Stage name</text>
<text transform="matrix(1 0 0 1 820.4121 426.5498)" font-family="'GDSTransportWebsite'" font-size="14">68% (1.35k)</text>
<text transform="matrix(1 0 0 1 820.4121 400.5508)" font-family="'GDSTransportWebsite-Bold'" font-size="14">Drop-offs</text>
<text transform="matrix(1 0 0 1 666.3457 400.5508)" font-family="'GDSTransportWebsite-Bold'" font-size="14">Drop offs over time</text>
<rect x="915.467" y="270.134" opacity="0.9" fill="#2077B4" width="6.021" height="32.343"/>
<rect x="915.467" y="270.134" fill="none" stroke="#0F3A58" stroke-width="0.4016" width="6.021" height="32.343"/>
<use xlink:href="#Arrow"  width="11.379" height="18.066" x="-5.689" y="-9.033" transform="matrix(1 0 0 -1 752.5967 113.9146)" overflow="visible"/>
<g>
	
		<linearGradient id="SVGID_1_" gradientUnits="userSpaceOnUse" x1="507.1152" y1="121.4409" x2="507.1152" y2="144.2949" gradientTransform="matrix(1 0 0 -1 219 554)">
		<stop  offset="0" style="stop-color:#BD1622"/>
		<stop  offset="0.0357" style="stop-color:#C03640"/>
		<stop  offset="0.0932" style="stop-color:#C4636A"/>
		<stop  offset="0.1511" style="stop-color:#C7898D"/>
		<stop  offset="0.2085" style="stop-color:#CAA6A8"/>
		<stop  offset="0.2653" style="stop-color:#CCBABB"/>
		<stop  offset="0.3211" style="stop-color:#CDC7C7"/>
		<stop  offset="0.375" style="stop-color:#CDCBCB"/>
		<stop  offset="0.4736" style="stop-color:#CBCAC7"/>
		<stop  offset="0.5758" style="stop-color:#C3C8BA"/>
		<stop  offset="0.6797" style="stop-color:#B7C5A6"/>
		<stop  offset="0.7847" style="stop-color:#A6C089"/>
		<stop  offset="0.8895" style="stop-color:#91BA64"/>
		<stop  offset="0.9937" style="stop-color:#77B237"/>
	</linearGradient>
	<path fill="none" stroke="url(#SVGID_1_)" stroke-width="1.6935" d="M667.941,418.317l5.852-2.056l5.852-5.32l5.852,7.376
		l5.854,0.249c0,0,4.18-1.961,5.852-1.961s5.852,1.714,5.852,1.714h5.852l5.852-3.565l5.852,2.195l5.852-2.195l5.852,1.853
		l5.016,4.12l5.852,3.09l5.852-2.747h5.852l5.852,2.747l5.852-5.248l5.852,13.145h5.852l5.852-3.434"/>
</g>
<path fill="#333333" d="M510.284,409.217c0,9.572-7.761,17.333-17.334,17.333s-17.333-7.761-17.333-17.333
	c0-9.576,7.76-17.334,17.333-17.334S510.284,399.641,510.284,409.217z"/>
<g>
	<path fill="#FFFFFF" d="M494.426,401.921v13.146h-2.121v-9.146h-2.274v-1.859h0.358c1.614,0,2.065-0.675,2.065-2.009v-0.132
		H494.426z"/>
</g>
</svg>
