<?xml version="1.0" encoding="utf-8"?>
<!-- Generator: Adobe Illustrator 16.0.4, SVG Export Plug-In . SVG Version: 6.00 Build 0)  -->
<!DOCTYPE svg PUBLIC "-//W3C//DTD SVG 1.1//EN" "http://www.w3.org/Graphics/SVG/1.1/DTD/svg11.dtd">
<svg version="1.1" id="Layer_1" xmlns="http://www.w3.org/2000/svg" xmlns:xlink="http://www.w3.org/1999/xlink" x="0px" y="0px"
	 width="930px" height="400px" viewBox="0 0 930 400" enable-background="new 0 0 930 400" xml:space="preserve">
<rect x="759" y="91" fill="#BFC1C3" width="180" height="1"/>
<text transform="matrix(1 0 0 1 779 40)"><tspan x="0" y="0" fill="#0B0C0C" font-family="'GDSTransportWebsite'" font-size="16" letter-spacing="-1">T</tspan><tspan x="7.071" y="0" fill="#0B0C0C" font-family="'GDSTransportWebsite'" font-size="16">o</tspan><tspan x="15.757" y="0" fill="#0B0C0C" font-family="'GDSTransportWebsite'" font-size="16">tal</tspan></text>
<text transform="matrix(1 0 0 1 779 64)" fill="#0B0C0C" font-family="'NTATabular-Bold'" font-size="21">38</text>
<text transform="matrix(1 0 0 1 804.8398 64)" fill="#0B0C0C" font-family="'GDSTransportWebsite-Bold'" font-size="21">.</text>
<text transform="matrix(1 0 0 1 810.5918 64)" fill="#0B0C0C" font-family="'NTATabular-Bold'" font-size="21">8</text>
<text transform="matrix(1 0 0 1 823.5117 64)" fill="#0B0C0C" font-family="'GDSTransportWebsite-Bold'" font-size="21">m</text>
<text transform="matrix(1 0 0 1 841.5693 64)" fill="#0B0C0C" font-family="'GDSTransportWebsite'" font-size="16"> </text>
<text transform="matrix(1 0 0 1 844.7725 64)" fill="#6F777B" font-family="'GDSTransportWebsite'" font-size="14">(</text>
<text transform="matrix(1 0 0 1 850.1934 64)" fill="#6F777B" font-family="'NTATabularNumbers-Light'" font-size="14">100</text>
<text transform="matrix(1 0 0 1 875.3965 64)" fill="#6F777B" font-family="'GDSTransportWebsite'" font-size="14">%)</text>
<text transform="matrix(1 0 0 1 779 86)" fill="#0B0C0C" font-family="'GDSTransportWebsite'" font-size="16">last </text>
<text transform="matrix(1 0 0 1 807.7422 86)" fill="#0B0C0C" font-family="'NTATabularNumbers-Light'" font-size="16">12</text>
<text transform="matrix(1 0 0 1 826.9453 86)" fill="#0B0C0C" font-family="'GDSTransportWebsite'" font-size="16"> months</text>
<rect x="759" y="179" fill="#097F96" width="14" height="14"/>
<text transform="matrix(1 0 0 1 777 193)"><tspan x="0" y="0" fill="#0B0C0C" font-family="'GDSTransportWebsite'" font-size="16">D</tspan><tspan x="11.107" y="0" fill="#0B0C0C" font-family="'GDSTransportWebsite'" font-size="16">igital</tspan></text>
<text transform="matrix(1 0 0 1 777 213)" fill="#0B0C0C" font-family="'NTATabularNumbers-Light'" font-size="16">21</text>
<text transform="matrix(1 0 0 1 796.2031 213)" fill="#0B0C0C" font-family="'GDSTransportWebsite'" font-size="16">.</text>
<text transform="matrix(1 0 0 1 800.4297 213)" fill="#0B0C0C" font-family="'NTATabularNumbers-Light'" font-size="16">0</text>
<text transform="matrix(1 0 0 1 810.0312 213)" fill="#0B0C0C" font-family="'GDSTransportWebsite'" font-size="16">m</text>
<text transform="matrix(1 0 0 1 823.0547 213)" fill="#0B0C0C" font-family="'GDSTransportWebsite'" font-size="16"> </text>
<text transform="matrix(1 0 0 1 826.2578 213)" fill="#6F777B" font-family="'GDSTransportWebsite'" font-size="14">(</text>
<text transform="matrix(1 0 0 1 831.6787 213)" fill="#6F777B" font-family="'NTATabularNumbers-Light'" font-size="14">54</text>
<text transform="matrix(1 0 0 1 848.4814 213)" fill="#6F777B" font-family="'GDSTransportWebsite'" font-size="14">%)</text>
<rect x="759" y="293" fill="#112684" width="14" height="14"/>
<text transform="matrix(1 0 0 1 777 307)"><tspan x="0" y="0" fill="#0B0C0C" font-family="'GDSTransportWebsite'" font-size="16">P</tspan><tspan x="9.229" y="0" fill="#0B0C0C" font-family="'GDSTransportWebsite'" font-size="16">ost Offi</tspan><tspan x="59.963" y="0" fill="#0B0C0C" font-family="'GDSTransportWebsite'" font-size="16">c</tspan><tspan x="68.079" y="0" fill="#0B0C0C" font-family="'GDSTransportWebsite'" font-size="16">e</tspan></text>
<text transform="matrix(1 0 0 1 777 327)" fill="#0B0C0C" font-family="'NTATabularNumbers-Light'" font-size="16">16</text>
<text transform="matrix(1 0 0 1 796.2031 327)" fill="#0B0C0C" font-family="'GDSTransportWebsite'" font-size="16">.</text>
<text transform="matrix(1 0 0 1 800.4297 327)" fill="#0B0C0C" font-family="'NTATabularNumbers-Light'" font-size="16">9</text>
<text transform="matrix(1 0 0 1 810.0312 327)" fill="#0B0C0C" font-family="'GDSTransportWebsite'" font-size="16">m</text>
<text transform="matrix(1 0 0 1 823.0547 327)" fill="#0B0C0C" font-family="'GDSTransportWebsite'" font-size="16"> </text>
<text transform="matrix(1 0 0 1 826.2578 327)" fill="#6F777B" font-family="'GDSTransportWebsite'" font-size="14">(</text>
<text transform="matrix(1 0 0 1 831.6787 327)" fill="#6F777B" font-family="'NTATabularNumbers-Light'" font-size="14">44</text>
<text transform="matrix(1 0 0 1 848.4814 327)" fill="#6F777B" font-family="'GDSTransportWebsite'" font-size="14">%)</text>
<rect x="759" y="333" fill="#D6007D" width="14" height="14"/>
<text transform="matrix(1 0 0 1 777 347)"><tspan x="0" y="0" fill="#0B0C0C" font-family="'GDSTransportWebsite'" font-size="16">M</tspan><tspan x="13.396" y="0" fill="#0B0C0C" font-family="'GDSTransportWebsite'" font-size="16">anual</tspan></text>
<text transform="matrix(1 0 0 1 777 367)" fill="#0B0C0C" font-family="'NTATabularNumbers-Light'" font-size="16">0</text>
<text transform="matrix(1 0 0 1 786.6016 367)" fill="#0B0C0C" font-family="'GDSTransportWebsite'" font-size="16">.</text>
<text transform="matrix(1 0 0 1 790.8281 367)" fill="#0B0C0C" font-family="'NTATabularNumbers-Light'" font-size="16">86</text>
<text transform="matrix(1 0 0 1 810.0312 367)" fill="#0B0C0C" font-family="'GDSTransportWebsite'" font-size="16">m</text>
<text transform="matrix(1 0 0 1 823.0547 367)" fill="#0B0C0C" font-family="'GDSTransportWebsite'" font-size="16"> </text>
<text transform="matrix(1 0 0 1 826.2578 367)" fill="#6F777B" font-family="'GDSTransportWebsite'" font-size="14">(</text>
<text transform="matrix(1 0 0 1 831.6787 367)" fill="#6F777B" font-family="'NTATabularNumbers-Light'" font-size="14">2</text>
<text transform="matrix(1 0 0 1 840.0801 367)" fill="#6F777B" font-family="'GDSTransportWebsite'" font-size="14">%)</text>
<line fill="none" stroke="#444444" x1="34.044" y1="367.532" x2="34.044" y2="373.525"/>
<text transform="matrix(1 0 0 1 19.7554 390.8623)"><tspan x="0" y="0" font-family="'GDSTransportWebsite'" font-size="16">N</tspan><tspan x="12.035" y="0" font-family="'GDSTransportWebsite'" font-size="16">o</tspan><tspan x="20.688" y="0" font-family="'GDSTransportWebsite'" font-size="16">v</tspan></text>
<line fill="none" stroke="#444444" x1="98.053" y1="367.532" x2="98.053" y2="373.525"/>
<text transform="matrix(1 0 0 1 84.1704 390.8623)" font-family="'GDSTransportWebsite'" font-size="16">Dec</text>
<line fill="none" stroke="#444444" x1="162.062" y1="367.532" x2="162.062" y2="373.525"/>
<text transform="matrix(1 0 0 1 150.4136 390.8623)"><tspan x="0" y="0" font-family="'GDSTransportWebsite'" font-size="16">J</tspan><tspan x="6.482" y="0" font-family="'GDSTransportWebsite'" font-size="16">an</tspan></text>
<line fill="none" stroke="#444444" x1="226.071" y1="367.532" x2="226.071" y2="373.525"/>
<text transform="matrix(1 0 0 1 212.9185 390.8623)"><tspan x="0" y="0" font-family="'GDSTransportWebsite'" font-size="16">F</tspan><tspan x="8.657" y="0" font-family="'GDSTransportWebsite'" font-size="16">eb</tspan></text>
<line fill="none" stroke="#444444" x1="290.08" y1="367.532" x2="290.08" y2="373.525"/>
<text transform="matrix(1 0 0 1 276.4937 390.8623)"><tspan x="0" y="0" font-family="'GDSTransportWebsite'" font-size="16">M</tspan><tspan x="13.396" y="0" font-family="'GDSTransportWebsite'" font-size="16">ar</tspan></text>
<line fill="none" stroke="#444444" x1="354.088" y1="367.532" x2="354.088" y2="373.525"/>
<text transform="matrix(1 0 0 1 341.8149 390.8623)" font-family="'GDSTransportWebsite'" font-size="16">Apr</text>
<line fill="none" stroke="#444444" x1="418.097" y1="367.532" x2="418.097" y2="373.525"/>
<text transform="matrix(1 0 0 1 403.5854 390.8623)"><tspan x="0" y="0" font-family="'GDSTransportWebsite'" font-size="16">M</tspan><tspan x="13.396" y="0" font-family="'GDSTransportWebsite'" font-size="16">a</tspan><tspan x="21.395" y="0" font-family="'GDSTransportWebsite'" font-size="16">y</tspan></text>
<line fill="none" stroke="#444444" x1="482.106" y1="367.532" x2="482.106" y2="373.525"/>
<text transform="matrix(1 0 0 1 470.1523 390.8623)"><tspan x="0" y="0" font-family="'GDSTransportWebsite'" font-size="16">J</tspan><tspan x="6.498" y="0" font-family="'GDSTransportWebsite'" font-size="16">un</tspan></text>
<line fill="none" stroke="#444444" x1="546.115" y1="367.532" x2="546.115" y2="373.525"/>
<text transform="matrix(1 0 0 1 536.377 390.8623)"><tspan x="0" y="0" font-family="'GDSTransportWebsite'" font-size="16">J</tspan><tspan x="6.497" y="0" font-family="'GDSTransportWebsite'" font-size="16">ul</tspan></text>
<line fill="none" stroke="#444444" x1="610.124" y1="367.532" x2="610.124" y2="373.525"/>
<text transform="matrix(1 0 0 1 596.4434 390.8623)"><tspan x="0" y="0" font-family="'GDSTransportWebsite'" font-size="16">A</tspan><tspan x="9.777" y="0" font-family="'GDSTransportWebsite'" font-size="16">ug</tspan></text>
<line fill="none" stroke="#444444" x1="674.133" y1="367.532" x2="674.133" y2="373.525"/>
<text transform="matrix(1 0 0 1 660.6445 390.8623)" font-family="'GDSTransportWebsite'" font-size="16">Sep</text>
<line fill="none" stroke="#444444" x1="738.142" y1="367.532" x2="738.142" y2="373.525"/>
<text transform="matrix(1 0 0 1 725.3203 390.8623)" font-family="'GDSTransportWebsite'" font-size="16">Oct</text>
<text transform="matrix(1 0 0 1 18.4507 364.6562)" font-family="'NTATabularNumbers-Light'" font-size="16">0</text>
<text transform="matrix(1 0 0 1 5.4272 297.7422)" font-family="'NTATabularNumbers-Light'" font-size="16">1</text>
<text transform="matrix(1 0 0 1 15.0288 297.7422)" font-family="'GDSTransportWebsite'" font-size="16">m</text>
<text transform="matrix(1 0 0 1 5.4272 229.8301)" font-family="'NTATabularNumbers-Light'" font-size="16">2</text>
<text transform="matrix(1 0 0 1 15.0288 229.8301)" font-family="'GDSTransportWebsite'" font-size="16">m</text>
<text transform="matrix(1 0 0 1 5.4272 162.915)" font-family="'NTATabularNumbers-Light'" font-size="16">3</text>
<text transform="matrix(1 0 0 1 15.0288 162.915)" font-family="'GDSTransportWebsite'" font-size="16">m</text>
<text transform="matrix(1 0 0 1 5.4272 95.0029)" font-family="'NTATabularNumbers-Light'" font-size="16">4</text>
<text transform="matrix(1 0 0 1 15.0288 95.0029)" font-family="'GDSTransportWebsite'" font-size="16">m</text>
<text transform="matrix(1 0 0 1 5.4272 28.0879)" font-family="'NTATabularNumbers-Light'" font-size="16">5</text>
<text transform="matrix(1 0 0 1 15.0288 28.0879)" font-family="'GDSTransportWebsite'" font-size="16">m</text>
<polygon fill="#F4BFDE" points="34.544,353.55 104.904,355.548 175.264,353.55 245.623,353.55 315.983,352.552 386.343,352.552 
	456.703,352.552 527.062,352.552 597.422,355.548 667.782,356.546 738.142,356.546 738.142,359.543 667.782,359.543 
	597.422,359.543 527.062,359.543 456.703,359.543 386.343,359.543 315.983,359.543 245.623,359.543 175.264,359.543 
	104.904,359.543 34.544,359.543 "/>
<polygon fill="#C3C8E0" points="34.544,258.672 104.904,277.648 175.264,284.639 245.623,242.693 315.983,240.695 386.343,226.713 
	456.703,237.699 527.062,254.677 597.422,233.704 667.782,248.686 738.142,251.681 738.142,356.546 667.782,356.546 
	597.422,355.548 527.062,352.552 456.703,352.552 386.343,352.552 315.983,352.552 245.623,353.55 175.264,353.55 104.904,355.548 
	34.544,353.55 "/>
<polygon fill="#C1DFE4" points="34.544,157.801 104.904,178.775 175.264,188.762 245.623,91.886 315.983,111.86 386.343,68.915 
	456.703,100.874 527.062,132.833 597.422,93.883 667.782,99.876 738.142,119.85 738.142,251.681 667.782,248.686 597.422,233.704 
	527.062,254.677 456.703,237.699 386.343,226.713 315.983,240.695 245.623,242.693 175.264,284.639 104.904,277.648 34.544,258.672 
	"/>
<polyline fill="none" stroke="#D6007D" stroke-width="2.5" stroke-linecap="round" stroke-linejoin="round" stroke-miterlimit="10" points="
	34.544,353.55 104.904,355.548 175.264,353.55 245.623,353.55 315.983,352.552 386.343,352.552 456.703,352.552 527.062,352.552 
	597.422,355.548 667.782,356.546 738.142,356.546 "/>
<polyline fill="none" stroke="#112684" stroke-width="2.5" stroke-linecap="round" stroke-linejoin="round" stroke-miterlimit="10" points="
	34.544,258.672 104.904,277.647 175.264,284.639 245.623,242.692 315.983,240.695 386.343,226.713 456.703,237.699 527.062,254.678 
	597.422,233.704 667.782,248.685 738.142,251.682 "/>
<polyline fill="none" stroke="#097F96" stroke-width="2.5" stroke-linecap="round" stroke-linejoin="round" stroke-miterlimit="10" points="
	34.544,157.802 104.904,178.774 175.264,188.762 245.623,91.886 315.983,111.86 386.343,68.916 456.703,100.875 527.062,132.833 
	597.422,93.884 667.782,99.876 738.142,119.85 "/>
<line fill="none" stroke="#444444" x1="742.136" y1="185.766" x2="754.121" y2="185.766"/>
<line fill="none" stroke="#444444" x1="742.136" y1="303.614" x2="754.121" y2="299.619"/>
<line fill="none" stroke="#444444" x1="742.136" y1="358.544" x2="754.121" y2="339.568"/>
</svg>
