<?xml version="1.0" encoding="utf-8"?>
<!-- Generator: Adobe Illustrator 16.0.4, SVG Export Plug-In . SVG Version: 6.00 Build 0)  -->
<!DOCTYPE svg PUBLIC "-//W3C//DTD SVG 1.1//EN" "http://www.w3.org/Graphics/SVG/1.1/DTD/svg11.dtd">
<svg version="1.1" id="Layer_1" xmlns="http://www.w3.org/2000/svg" xmlns:xlink="http://www.w3.org/1999/xlink" x="0px" y="0px"
	 width="930px" height="450.5px" viewBox="0 0 930 450.5" enable-background="new 0 0 930 450.5" xml:space="preserve">
<text transform="matrix(0.94 0 0 1 5.5527 13.5146)" font-family="'GDSTransportWebsite-Bold'" font-size="15.3325">September 2013</text>
<g>
	<rect x="5.875" y="375.373" fill="none" width="171.533" height="24.064"/>
	<text transform="matrix(0.94 0 0 1 5.8745 386.1084)" font-family="'GDSTransportWebsite'" font-size="15.3325">Percentage dropping off</text>
</g>
<line fill="none" stroke="#DEE0E2" stroke-miterlimit="10" stroke-dasharray="6" x1="279" y1="30.5" x2="279" y2="436.5"/>
<line fill="none" stroke="#DEE0E2" stroke-miterlimit="10" stroke-dasharray="6" x1="351" y1="30.5" x2="351" y2="436.5"/>
<line fill="none" stroke="#DEE0E2" stroke-miterlimit="10" stroke-dasharray="6" x1="424" y1="30.5" x2="424" y2="436.5"/>
<line fill="none" stroke="#DEE0E2" stroke-miterlimit="10" stroke-dasharray="6" x1="496" y1="30.5" x2="496" y2="436.5"/>
<line fill="none" stroke="#DEE0E2" stroke-miterlimit="10" stroke-dasharray="6" x1="567" y1="30.5" x2="567" y2="436.5"/>
<line fill="none" stroke="#DEE0E2" stroke-miterlimit="10" stroke-dasharray="6" x1="639" y1="27.5" x2="639" y2="433.5"/>
<line fill="none" stroke="#DEE0E2" stroke-miterlimit="10" stroke-dasharray="6" x1="711" y1="30.5" x2="711" y2="436.5"/>
<line fill="none" stroke="#DEE0E2" stroke-miterlimit="10" stroke-dasharray="6" x1="783" y1="30.5" x2="783" y2="436.5"/>
<line fill="none" stroke="#BEC0C2" stroke-miterlimit="10" x1="3.5" y1="361" x2="923.5" y2="361"/>
<line fill="none" stroke="#BEC0C2" stroke-miterlimit="10" x1="3.5" y1="28" x2="923.5" y2="28"/>
<line fill="none" stroke="#DEE0E2" stroke-miterlimit="10" stroke-dasharray="6" x1="855" y1="30.5" x2="855" y2="436.5"/>
<g>
	<text transform="matrix(0.94 0 0 1 25.5732 67.083)" font-family="'GDSTransportWebsite'" font-size="15.3325">Total users</text>
</g>
<rect x="3" y="52" fill="#E6E6E6" stroke="#999999" stroke-miterlimit="10" width="16" height="17"/>
<g>
	<text transform="matrix(0.94 0 0 1 25.5732 102.54)"><tspan x="0" y="0" font-family="'GDSTransportWebsite'" font-size="15.3325">Number of users</tspan><tspan x="0" y="18.399" font-family="'GDSTransportWebsite'" font-size="15.3325">who dropped off</tspan></text>
</g>
<rect x="3" y="88" fill="#DE1A2B" stroke="#B63233" stroke-miterlimit="10" width="16" height="16"/>
<line fill="none" stroke="#808080" stroke-width="0.842" stroke-miterlimit="10" x1="212.944" y1="335.221" x2="922.95" y2="335.221"/>
<g>
	<text transform="matrix(1 0 0 1 161.479 296.2168)" fill="#231F20" font-family="'GDSTransportWebsite'" font-size="13.4159">0.50k</text>
</g>
<g>
	<text transform="matrix(1 0 0 1 164.4531 248.666)" fill="#231F20" font-family="'GDSTransportWebsite'" font-size="13.4159">1.00k</text>
</g>
<g>
	<text transform="matrix(1 0 0 1 164.9512 201.1133)" fill="#231F20" font-family="'GDSTransportWebsite'" font-size="13.4159">1.50k</text>
</g>
<g>
	<text transform="matrix(1 0 0 1 161.4199 153.5625)" fill="#231F20" font-family="'GDSTransportWebsite'" font-size="13.4159">2.00k</text>
</g>
<g>
	<text transform="matrix(1 0 0 1 161.918 106.0088)" fill="#231F20" font-family="'GDSTransportWebsite'" font-size="13.4159">2.50k</text>
</g>
<g>
	<text transform="matrix(1 0 0 1 161.3677 58.458)" fill="#231F20" font-family="'GDSTransportWebsite'" font-size="13.4159">3.00k</text>
</g>
<line fill="#FFFFFF" stroke="#000000" stroke-miterlimit="10" x1="206.5" y1="196" x2="199.5" y2="196"/>
<line fill="#FFFFFF" stroke="#000000" stroke-miterlimit="10" x1="206.5" y1="243" x2="199.5" y2="243"/>
<line fill="#FFFFFF" stroke="#000000" stroke-miterlimit="10" x1="206.5" y1="288" x2="199.5" y2="288"/>
<g>
	<text transform="matrix(1 0 0 1 188.3633 343.0781)" fill="#231F20" font-family="'GDSTransportWebsite'" font-size="13.4159">0</text>
</g>
<line fill="#FFFFFF" stroke="#000000" stroke-miterlimit="10" x1="206.5" y1="335" x2="199.5" y2="335"/>
<line fill="#FFFFFF" stroke="#000000" stroke-miterlimit="10" x1="206.5" y1="103" x2="199.5" y2="103"/>
<line fill="#FFFFFF" stroke="#000000" stroke-miterlimit="10" x1="206.5" y1="149" x2="199.5" y2="149"/>
<line fill="#FFFFFF" stroke="#000000" stroke-miterlimit="10" x1="206.5" y1="57" x2="199.5" y2="57"/>
<text transform="matrix(1 0 0 1 227.2563 13.8955)" font-family="'GDSTransportWebsite'" font-size="13.4159">Stage 1</text>
<text transform="matrix(1 0 0 1 297.0923 13.8955)" font-family="'GDSTransportWebsite'" font-size="13.4159">Stage 2</text>
<text transform="matrix(1 0 0 1 368.4189 13.8955)" font-family="'GDSTransportWebsite'" font-size="13.4159">Stage 3</text>
<text transform="matrix(1 0 0 1 439.5454 13.8955)" font-family="'GDSTransportWebsite'" font-size="13.4159">Stage 4</text>
<text transform="matrix(1 0 0 1 511.1816 13.8955)" font-family="'GDSTransportWebsite'" font-size="13.4159">Stage 5</text>
<text transform="matrix(1 0 0 1 582.3564 13.8955)" font-family="'GDSTransportWebsite'" font-size="13.4159">Stage 6</text>
<text transform="matrix(1 0 0 1 654.3096 13.8955)" font-family="'GDSTransportWebsite'" font-size="13.4159">Stage 7</text>
<text transform="matrix(1 0 0 1 725.1133 13.8955)" font-family="'GDSTransportWebsite'" font-size="13.4159">Stage 8</text>
<text transform="matrix(1 0 0 1 796.4219 13.8955)" font-family="'GDSTransportWebsite'" font-size="13.4159">Stage 9</text>
<text transform="matrix(1 0 0 1 865.2207 13.8955)" font-family="'GDSTransportWebsite'" font-size="13.4159">Stage 10</text>
<g>
	<g>
		
			<text transform="matrix(1 0 0 1 660.9961 397.4473)" fill="#9B9B9B" font-family="'GDSTransportWebsite-Bold'" font-size="15.3325">N/A</text>
	</g>
	<g>
		
			<text transform="matrix(1 0 0 1 660.7285 323.4492)" fill="#9B9B9B" font-family="'GDSTransportWebsite-Bold'" font-size="15.3325">N/A</text>
	</g>
</g>
<text transform="matrix(1 0 0 1 450.0205 429.0703)" fill="#666666" font-family="'GDSTransportWebsite-Bold'" font-size="13.4159">0%</text>
<path fill="#E6E6E6" stroke="#999999" stroke-miterlimit="10" d="M459.124,374.099c-6.291,0-10.751,2.762-14.252,7.9
	c-5.836,8.562-3.824,20.458,4.241,26.771l0,0c3.214,2.488,6.665,3.661,10.639,3.661c9.925,0,17.685-8.582,17.685-19.166
	C477.436,382.678,469.01,374.099,459.124,374.099z M459.659,402.848c-1.986,0-3.682-0.587-5.288-1.831l0.019-0.006
	c-0.007-0.007-0.007-0.015-0.017-0.021l-0.011,0.019c-4.02-3.208-5.113-9.108-2.205-13.377c1.744-2.559,4.269-3.936,6.966-3.948
	c0,0,0.268-0.002,0.281-0.002c4.945,0,9.158,4.289,9.158,9.583C468.562,398.557,464.622,402.848,459.659,402.848z"/>
<g>
	<rect x="440.349" y="196.613" fill="#E6E6E6" stroke="#999999" stroke-miterlimit="10" width="31.026" height="138.607"/>
</g>
<text transform="matrix(1 0 0 1 735.2764 429.0703)" fill="#DE1A2B" font-family="'GDSTransportWebsite-Bold'" font-size="13.4159">19%</text>
<g>
	<path fill="#DE1A2B" stroke="#B63233" stroke-miterlimit="10" d="M754.573,387.632c-1.75-2.569-4.146-3.95-7.292-3.95
		c-0.081,0-0.281,0.011-0.281,0.014v-9.282c8,0,13.849,4.708,16.501,12.097l-7.872,3.24
		C755.359,389.014,755.03,388.301,754.573,387.632z"/>
	<path fill="#E6E6E6" stroke="#999999" stroke-miterlimit="10" d="M747,374.413v9.282c-6,0.137-8.753,4.361-8.753,9.569
		c0,5.292,4.022,9.583,8.985,9.583c1.986,0,3.723-0.587,5.328-1.831l0.002-0.006c3.377-2.621,4.547-7.277,3.096-11.237l8.014-3.264
		c0.835,2.331,1.296,4.256,1.296,6.755c0,10.411-7.927,18.852-17.661,18.852c-9.738,0-17.746-8.44-17.746-18.852
		S737,374.413,747,374.413z"/>
</g>
<rect x="727.298" y="236.6" fill="#E6E6E6" stroke="#999999" stroke-miterlimit="10" width="31.225" height="98.621"/>
<rect x="734.13" y="316.461" fill="#DE1A2B" stroke="#B63233" stroke-width="0.3608" stroke-miterlimit="10" width="31.146" height="18.733"/>
<text transform="matrix(1 0 0 1 373.4683 429.0703)" fill="#DE1A2B" font-family="'GDSTransportWebsite-Bold'" font-size="13.4159">40%</text>
<g>
	<path fill="#DE1A2B" stroke="#B63233" stroke-miterlimit="10" d="M392.785,401.017l-0.003-0.006
		c4.009-3.112,4.632-9.101,1.716-13.379c-1.743-2.559-3.497-3.936-7.497-3.948v-9.271c5,0,10.971,2.716,14.414,7.771
		c5.74,8.422,3.955,20.212-3.943,26.333l-4.831-7.448C392.665,401.051,392.759,401.035,392.785,401.017z"/>
	<path fill="#E6E6E6" stroke="#999999" stroke-miterlimit="10" d="M387,374.413v9.271c0,0,0.263-0.002,0.25-0.002
		c-4.943,0-8.89,4.289-8.89,9.583c0,5.292,4.071,9.583,9.035,9.583c1.969,0,3.717-0.579,5.313-1.802l4.976,7.471
		c-3.16,2.447-6.742,3.6-10.647,3.6c-9.767,0-17.789-8.44-17.789-18.852C369.248,382.852,377,374.413,387,374.413z"/>
</g>
<rect x="368.158" y="187.979" fill="#E6E6E6" stroke="#999999" stroke-miterlimit="10" width="31.223" height="147.241"/>
<rect x="374.987" y="276.309" fill="#DE1A2B" stroke="#B63233" stroke-width="0.5235" stroke-miterlimit="10" width="31.146" height="58.886"/>
<text transform="matrix(1 0 0 1 234.5767 429.0703)" fill="#DE1A2B" font-family="'GDSTransportWebsite-Bold'" font-size="13.4159">25%</text>
<g>
	<path fill="#E6E6E6" stroke="#999999" stroke-miterlimit="10" d="M257.125,393c-0.103,6-4.056,9.611-8.952,9.611
		c-1.988,0-3.713-0.469-5.319-1.713l0.004,0.053c-4.009-3.111-4.92-9.069-2.004-13.349c1.233-1.81,2.366-2.999,4.261-3.562
		c0.713-0.212,0.887-0.32,1.887-0.344v-9.284c-2,0-2.658,0.211-4.167,0.643l0.218,0.064c-7.797,2.326-12.584,9.473-12.584,18.145
		c0,10.411,7.898,18.614,17.653,18.614c9.688,0,17.478-7.879,17.581-18.879H257.125z"/>
	<path fill="#DE1A2B" stroke="#B63233" stroke-miterlimit="10" d="M247.693,383.682c4.943,0,9.239,4.053,9.239,9.346
		c0,0.07,0.194-0.027,0.192-0.027h8.576c0,0-0.395,0.098-0.395,0.027c0-10.41-8.306-18.614-18.306-18.614v9.284
		C247,383.697,247.597,383.682,247.693,383.682z"/>
</g>
<rect x="228.827" y="63.164" fill="#E6E6E6" stroke="#999999" stroke-miterlimit="10" width="31.223" height="272.057"/>
<rect x="235.657" y="267.187" fill="#DE1A2B" stroke="#B63233" stroke-width="0.4138" stroke-miterlimit="10" width="31.145" height="68.008"/>
<text transform="matrix(1 0 0 1 523.7715 429.0703)" fill="#DE1A2B" font-family="'GDSTransportWebsite-Bold'" font-size="13.4159">1%</text>
<g>
	<path fill="#E6E6E6" stroke="#999999" stroke-miterlimit="10" d="M531,374.413v9.271c0,0,0.055-0.002,0.042-0.002
		c-4.943,0-8.995,4.289-8.995,9.583c0,5.292,4.342,9.583,9.306,9.583c1.985,0,3.647-0.587,5.647-1.831v-0.006
		c4-3.112,4.602-9.101,1.688-13.379c-1.617-2.374-3.912-3.717-6.707-3.911l0.557-9.263c9.362,0.697,16.486,8.812,16.486,18.807
		c0,10.411-7.96,18.852-17.737,18.852c-9.774,0-17.823-8.44-17.823-18.852S521,374.413,531,374.413z"/>
	<path fill="#DE1A2B" stroke="#B63233" stroke-miterlimit="10" d="M531,383.684v-9.271c0,0,0.926,0.017,1.314,0.045l-0.648,9.261
		C531.457,383.705,531,383.685,531,383.684z"/>
</g>
<rect x="512.282" y="202.159" fill="#E6E6E6" stroke="#999999" stroke-miterlimit="10" width="31.223" height="133.062"/>
<rect x="519.111" y="333.863" fill="#DE1A2B" stroke="#B63233" stroke-width="0.0828" stroke-miterlimit="10" width="31.146" height="1.331"/>
<text transform="matrix(1 0 0 1 593.5322 429.0703)" fill="#DE1A2B" font-family="'GDSTransportWebsite-Bold'" font-size="13.4159">4%</text>
<g>
	<path fill="#DE1A2B" stroke="#B63233" stroke-miterlimit="10" d="M604,383.697v-9.284c2,0,2.785,0.211,4.293,0.643l-2.12,9.004
		C605.454,383.845,605,383.721,604,383.697z"/>
	<path fill="#E6E6E6" stroke="#999999" stroke-miterlimit="10" d="M604,374.413v9.284c0,0-0.469-0.016-0.566-0.016
		c-4.943,0-9.174,4.289-9.174,9.583c0,5.292,3.93,9.583,8.894,9.583c1.985,0,3.677-0.587,5.283-1.831l-0.022-0.006
		c4.01-3.112,4.912-9.101,1.996-13.379c-1.248-1.834-2.815-3.051-4.747-3.603l2.147-8.974c7.912,2.264,12.878,9.464,12.878,18.209
		c0,10.411-7.849,18.852-17.604,18.852c-9.753,0-17.264-8.44-17.264-18.852S594,374.413,604,374.413z"/>
</g>
<rect x="583.898" y="212.944" fill="#E6E6E6" stroke="#999999" stroke-miterlimit="10" width="31.222" height="122.276"/>
<rect x="590.729" y="330.305" fill="#DE1A2B" stroke="#B63233" stroke-width="0.1655" stroke-miterlimit="10" width="31.144" height="4.89"/>
<rect x="800.22" y="229.607" fill="#E6E6E6" stroke="#999999" stroke-width="0.9161" stroke-miterlimit="10" width="31.223" height="105.604"/>
<text transform="matrix(1 0 0 1 806.3516 429.0703)" fill="#DE1A2B" font-family="'GDSTransportWebsite-Bold'" font-size="13.4159">76%</text>
<g>
	<path fill="#E6E6E6" stroke="#999999" stroke-miterlimit="10" d="M818.934,383.682c-4.723,0-8.564,3.922-8.903,8.894l-8.56-0.627
		c0.655-9.981,8.529-17.558,17.529-17.558v9.306C819,383.696,819.021,383.682,818.934,383.682z"/>
	<path fill="#DE1A2B" stroke="#B63233" stroke-miterlimit="10" d="M801.492,391.948l8.632,0.634
		c-0.013,0.227-0.031,0.452-0.031,0.683c0,5.292,3.999,9.583,8.963,9.583c1.985,0,3.713-0.587,5.317-1.831l-0.004-0.006
		c4.009-3.112,4.73-9.101,1.814-13.379c-1.701-2.498-3.184-3.86-7.184-3.936v-9.306c0,0,0.85,0.019,1.24,0.047
		c9.764,0.727,17.03,9.745,16.347,20.142c-0.682,10.399-9.046,18.239-18.809,17.512
		C808.015,411.363,800.811,402.344,801.492,391.948z"/>
</g>
<rect x="807.049" y="256.005" fill="#DE1A2B" stroke="#B63233" stroke-width="0.6566" stroke-miterlimit="10" width="31.145" height="79.192"/>
<text transform="matrix(1 0 0 1 881.9395 429.0703)" fill="#666666" font-family="'GDSTransportWebsite-Bold'" font-size="13.4159">0%</text>
<path fill="#E6E6E6" stroke="#999999" stroke-miterlimit="10" d="M890.208,374.709c-0.898,0-1.883,0.105-3.036,0.34l0.034,0.203
	c-7.982,2.023-13.035,9.288-13.035,18.013c0,10.248,7.794,18.556,17.579,18.556c9.789,0,17.094-8.308,17.094-18.556
	S900.992,374.709,890.208,374.709z M891.628,402.848c-1.987,0-3.669-0.587-5.275-1.831l0.026-0.006
	c-4.01-3.112-4.909-9.101-1.993-13.379c1.312-1.926,2.966-3.184,5.034-3.692l-0.022-0.13c0.191-0.038,0.427-0.067,0.811-0.086
	c0-0.019,0.833-0.042,1.088-0.042c4.944,0,9.208,4.289,9.208,9.583C900.504,398.557,896.59,402.848,891.628,402.848z"/>
<g>
	<rect x="872.295" y="312.428" fill="#E6E6E6" stroke="#999999" stroke-miterlimit="10" width="31.223" height="22.793"/>
</g>
<text transform="matrix(1 0 0 1 301.9224 429.0703)" fill="#DE1A2B" font-family="'GDSTransportWebsite-Bold'" font-size="13.4159">40%</text>
<g>
	<path fill="#DE1A2B" stroke="#B63233" stroke-miterlimit="10" d="M320.639,401.017l-0.006-0.006
		c4.01-3.112,4.922-9.101,2.005-13.379c-1.75-2.569-4.27-3.95-7.415-3.95c-0.018,0-0.223,0.003-0.223,0.003v-9.271
		c6,0,11.037,2.716,14.48,7.771c5.74,8.422,4.081,20.212-3.816,26.333l-5.075-7.495
		C320.589,401.021,320.636,401.019,320.639,401.017z"/>
	<path fill="#E6E6E6" stroke="#999999" stroke-miterlimit="10" d="M315,374.413v9.271c-4,0.032-8.811,4.306-8.811,9.58
		c0,5.292,4.081,9.583,9.047,9.583c1.983,0,3.749-0.585,5.353-1.825l5.134,7.494c-3.161,2.447-6.464,3.6-10.37,3.6
		c-9.765,0-17.853-8.44-17.853-18.852C297.501,382.852,306,374.413,315,374.413z"/>
</g>
<g>
	
		<rect x="296.898" y="83.457" fill="#E6E6E6" stroke="#999999" stroke-width="1.0285" stroke-miterlimit="10" width="31.221" height="251.764"/>
	
		<rect x="303.729" y="234.498" fill="#DE1A2B" stroke="#B63233" stroke-width="0.5384" stroke-miterlimit="10" width="31.143" height="100.694"/>
</g>
</svg>
