<?xml version="1.0" encoding="utf-8"?>
<!-- Generator: Adobe Illustrator 16.0.4, SVG Export Plug-In . SVG Version: 6.00 Build 0)  -->
<!DOCTYPE svg PUBLIC "-//W3C//DTD SVG 1.1//EN" "http://www.w3.org/Graphics/SVG/1.1/DTD/svg11.dtd">
<svg version="1.1" id="Layer_1" xmlns="http://www.w3.org/2000/svg" xmlns:xlink="http://www.w3.org/1999/xlink" x="0px" y="0px"
	 width="930px" height="400px" viewBox="0 0 930 400" enable-background="new 0 0 930 400" xml:space="preserve">
<line fill="none" stroke="#444444" stroke-width="0.9883" x1="55.866" y1="367.95" x2="55.866" y2="373.88"/>
<g>
	<path d="M32.486,389.848h2.37v-6.941H32.37v-1.149h0.81c0.36,0,0.653-0.029,0.881-0.09c0.226-0.059,0.401-0.152,0.524-0.28
		c0.124-0.13,0.207-0.296,0.251-0.499c0.043-0.203,0.065-0.452,0.065-0.745v-0.178h1.297v9.883h2.373v1.188h-6.084L32.486,389.848
		L32.486,389.848z"/>
	<path d="M45.068,379.826c0.468,0,0.923,0.064,1.363,0.195c0.439,0.133,0.831,0.321,1.174,0.571c0.341,0.25,0.617,0.561,0.822,0.931
		c0.206,0.371,0.308,0.795,0.308,1.274c0,0.247-0.033,0.495-0.097,0.744c-0.064,0.25-0.169,0.487-0.316,0.711
		c-0.146,0.225-0.341,0.426-0.583,0.606c-0.242,0.18-0.538,0.327-0.887,0.439c0.391,0.107,0.726,0.262,1.008,0.46
		c0.281,0.197,0.512,0.423,0.695,0.675c0.183,0.252,0.316,0.521,0.401,0.808c0.085,0.285,0.128,0.575,0.128,0.868
		c0,0.505-0.114,0.949-0.34,1.336c-0.227,0.387-0.528,0.707-0.903,0.966c-0.375,0.258-0.805,0.452-1.286,0.583
		c-0.481,0.131-0.977,0.197-1.486,0.197s-1.007-0.066-1.491-0.197s-0.914-0.325-1.29-0.583c-0.375-0.259-0.677-0.579-0.903-0.966
		c-0.227-0.387-0.34-0.831-0.34-1.336c0-0.293,0.042-0.583,0.127-0.868c0.085-0.286,0.218-0.557,0.401-0.808
		c0.183-0.252,0.414-0.477,0.695-0.675c0.28-0.198,0.617-0.352,1.008-0.46c-0.35-0.112-0.645-0.261-0.884-0.439
		c-0.24-0.181-0.433-0.383-0.58-0.606c-0.146-0.223-0.252-0.461-0.316-0.711c-0.064-0.249-0.097-0.497-0.097-0.744
		c0-0.479,0.103-0.903,0.309-1.274c0.206-0.37,0.479-0.681,0.818-0.931c0.34-0.25,0.729-0.438,1.17-0.571
		C44.137,379.891,44.594,379.826,45.068,379.826z M42.427,388.002c0,0.346,0.073,0.645,0.217,0.896
		c0.145,0.252,0.337,0.463,0.579,0.63s0.521,0.292,0.842,0.374c0.319,0.082,0.653,0.124,1.004,0.124
		c0.345,0,0.677-0.042,0.996-0.124s0.601-0.207,0.845-0.374s0.439-0.378,0.583-0.63c0.145-0.251,0.217-0.551,0.217-0.896
		c0-0.344-0.072-0.643-0.217-0.896c-0.144-0.252-0.339-0.462-0.583-0.629c-0.245-0.167-0.527-0.293-0.845-0.375
		c-0.319-0.082-0.651-0.123-0.996-0.123c-0.35,0-0.685,0.041-1.004,0.123c-0.32,0.082-0.6,0.208-0.842,0.375
		s-0.435,0.377-0.579,0.629C42.5,387.358,42.427,387.658,42.427,388.002z M42.759,382.906c0,0.306,0.065,0.575,0.193,0.814
		c0.128,0.239,0.298,0.44,0.51,0.603c0.21,0.162,0.456,0.286,0.733,0.371c0.278,0.084,0.569,0.127,0.873,0.127
		c0.298,0,0.587-0.043,0.865-0.127c0.277-0.085,0.523-0.209,0.737-0.371c0.214-0.162,0.385-0.363,0.514-0.603
		c0.129-0.239,0.193-0.51,0.193-0.814c0-0.303-0.064-0.573-0.193-0.81c-0.128-0.236-0.3-0.437-0.514-0.599
		c-0.213-0.162-0.459-0.285-0.737-0.37c-0.278-0.085-0.566-0.128-0.865-0.128c-0.304,0-0.595,0.043-0.873,0.128
		c-0.277,0.085-0.522,0.208-0.733,0.37c-0.212,0.162-0.382,0.362-0.51,0.599C42.824,382.331,42.759,382.603,42.759,382.906z"/>
</g>
<g>
	<path d="M56.868,387.683l-1.108,3.354h-1.423l3.622-10.661h1.661l3.639,10.661h-1.47l-1.14-3.354H56.868z M60.363,386.607
		l-1.043-3.067c-0.237-0.696-0.396-1.329-0.555-1.946h-0.032c-0.158,0.632-0.332,1.281-0.538,1.929l-1.043,3.085H60.363z"/>
	<path d="M71.336,388.948c0,0.791,0.016,1.487,0.063,2.088h-1.233l-0.08-1.249h-0.032c-0.363,0.616-1.171,1.422-2.531,1.422
		c-1.202,0-2.642-0.664-2.642-3.354v-4.477h1.392v4.24c0,1.455,0.442,2.436,1.708,2.436c0.933,0,1.582-0.648,1.834-1.265
		c0.079-0.207,0.126-0.46,0.126-0.713v-4.698h1.391L71.336,388.948L71.336,388.948z"/>
	<path d="M80.398,383.38c-0.032,0.555-0.063,1.171-0.063,2.104v4.445c0,1.756-0.348,2.832-1.091,3.495
		c-0.743,0.696-1.819,0.918-2.784,0.918c-0.917,0-1.93-0.222-2.547-0.633l0.348-1.06c0.506,0.316,1.297,0.602,2.247,0.602
		c1.423,0,2.468-0.744,2.468-2.674v-0.854h-0.033c-0.427,0.712-1.25,1.281-2.436,1.281c-1.898,0-3.258-1.614-3.258-3.733
		c0-2.594,1.692-4.063,3.448-4.063c1.329,0,2.057,0.695,2.389,1.327h0.031l0.063-1.154L80.398,383.38L80.398,383.38z
		 M78.958,386.402c0-0.236-0.016-0.442-0.079-0.634c-0.253-0.807-0.933-1.471-1.946-1.471c-1.329,0-2.278,1.124-2.278,2.896
		c0,1.503,0.76,2.752,2.262,2.752c0.854,0,1.629-0.538,1.93-1.423c0.079-0.237,0.111-0.507,0.111-0.743V386.402z"/>
</g>
<line fill="none" stroke="#444444" stroke-width="0.9883" x1="161.982" y1="367.95" x2="161.982" y2="373.88"/>
<g>
	<path d="M139.739,389.848h5.521v1.188h-7.374v-1.297c0.705-0.473,1.34-0.911,1.907-1.312c0.567-0.401,1.066-0.78,1.499-1.139
		s0.804-0.699,1.116-1.023c0.311-0.324,0.567-0.646,0.768-0.965c0.201-0.32,0.348-0.641,0.44-0.966
		c0.091-0.325,0.139-0.667,0.139-1.027c0-0.308-0.054-0.601-0.158-0.88c-0.105-0.278-0.258-0.521-0.456-0.729
		c-0.199-0.209-0.443-0.375-0.733-0.498c-0.291-0.124-0.622-0.186-0.992-0.186c-0.299,0-0.586,0.043-0.861,0.128
		c-0.275,0.085-0.52,0.22-0.733,0.404c-0.214,0.186-0.388,0.425-0.521,0.715c-0.134,0.291-0.208,0.639-0.224,1.046l-1.282-0.146
		c0.021-0.516,0.121-0.978,0.302-1.39c0.18-0.412,0.429-0.763,0.745-1.05c0.316-0.288,0.695-0.51,1.135-0.664
		c0.439-0.153,0.93-0.23,1.47-0.23c0.525,0,1.013,0.086,1.463,0.258c0.45,0.173,0.841,0.413,1.174,0.722
		c0.332,0.309,0.592,0.675,0.779,1.096c0.188,0.422,0.282,0.885,0.282,1.383c0,0.591-0.102,1.147-0.305,1.667
		c-0.204,0.521-0.514,1.031-0.93,1.533c-0.416,0.503-0.946,1.008-1.586,1.517c-0.64,0.51-1.396,1.049-2.266,1.614l-0.316,0.2
		L139.739,389.848L139.739,389.848z"/>
	<path d="M147.663,385.408l0.58-5.443h6.323v1.189h-5.227l-0.332,3.149c0.298-0.288,0.656-0.506,1.073-0.651
		c0.417-0.146,0.844-0.221,1.281-0.221c0.525,0,1.01,0.098,1.456,0.289c0.444,0.193,0.831,0.46,1.158,0.801
		c0.327,0.339,0.581,0.741,0.764,1.204c0.183,0.463,0.274,0.962,0.274,1.498c0,0.598-0.097,1.14-0.29,1.629
		s-0.464,0.907-0.814,1.255c-0.35,0.349-0.767,0.614-1.251,0.803c-0.484,0.188-1.017,0.282-1.598,0.282
		c-0.458,0-0.892-0.055-1.301-0.158c-0.409-0.105-0.779-0.267-1.108-0.479s-0.611-0.478-0.845-0.795
		c-0.234-0.316-0.4-0.687-0.498-1.108l1.351-0.285c0.057,0.221,0.151,0.433,0.286,0.629c0.133,0.198,0.304,0.374,0.51,0.525
		c0.206,0.151,0.442,0.271,0.71,0.359c0.268,0.087,0.566,0.131,0.896,0.131c0.396,0,0.751-0.066,1.065-0.201
		c0.313-0.134,0.579-0.32,0.795-0.559c0.216-0.239,0.382-0.523,0.498-0.853c0.116-0.329,0.174-0.688,0.174-1.073
		c0-0.402-0.058-0.768-0.174-1.097c-0.116-0.329-0.284-0.614-0.501-0.854c-0.22-0.238-0.486-0.425-0.8-0.555
		c-0.314-0.131-0.672-0.197-1.073-0.197c-0.19,0-0.385,0.023-0.583,0.07c-0.198,0.046-0.389,0.109-0.571,0.191
		c-0.183,0.082-0.354,0.184-0.514,0.303c-0.161,0.118-0.297,0.249-0.41,0.393L147.663,385.408z"/>
</g>
<g>
	<path d="M162.984,387.683l-1.108,3.354h-1.423l3.622-10.661h1.661l3.639,10.661h-1.47l-1.14-3.354H162.984z M166.479,386.607
		l-1.043-3.067c-0.237-0.696-0.396-1.329-0.554-1.946h-0.032c-0.158,0.632-0.332,1.281-0.538,1.929l-1.044,3.085H166.479z"/>
	<path d="M177.453,388.948c0,0.791,0.016,1.487,0.063,2.088h-1.234l-0.079-1.249h-0.032c-0.363,0.616-1.171,1.422-2.531,1.422
		c-1.202,0-2.642-0.664-2.642-3.354v-4.477h1.392v4.24c0,1.455,0.442,2.436,1.708,2.436c0.934,0,1.583-0.648,1.835-1.265
		c0.079-0.207,0.126-0.46,0.126-0.713v-4.698h1.392v5.569H177.453z"/>
	<path d="M186.515,383.38c-0.032,0.555-0.063,1.171-0.063,2.104v4.445c0,1.756-0.348,2.832-1.091,3.495
		c-0.743,0.696-1.819,0.918-2.784,0.918c-0.917,0-1.93-0.222-2.547-0.633l0.348-1.06c0.506,0.316,1.296,0.602,2.246,0.602
		c1.423,0,2.468-0.744,2.468-2.674v-0.854h-0.031c-0.427,0.712-1.25,1.281-2.437,1.281c-1.898,0-3.258-1.614-3.258-3.733
		c0-2.594,1.692-4.063,3.448-4.063c1.329,0,2.057,0.695,2.389,1.327h0.032l0.063-1.154L186.515,383.38L186.515,383.38z
		 M185.075,386.402c0-0.236-0.016-0.442-0.079-0.634c-0.253-0.807-0.934-1.471-1.946-1.471c-1.329,0-2.278,1.124-2.278,2.896
		c0,1.503,0.76,2.752,2.262,2.752c0.854,0,1.629-0.538,1.93-1.423c0.079-0.237,0.111-0.507,0.111-0.743V386.402L185.075,386.402z"/>
</g>
<line fill="none" stroke="#444444" stroke-width="0.9883" x1="268.099" y1="367.95" x2="268.099" y2="373.88"/>
<g>
	<path d="M250.155,389.848h2.37v-6.941h-2.486v-1.149h0.81c0.36,0,0.653-0.029,0.881-0.09c0.226-0.059,0.401-0.152,0.524-0.28
		c0.124-0.13,0.207-0.296,0.251-0.499c0.043-0.203,0.065-0.452,0.065-0.745v-0.178h1.297v9.883h2.37v1.188h-6.084v-1.188H250.155z"
		/>
</g>
<g>
	<path d="M262.739,389.36c0.617,0.379,1.519,0.695,2.468,0.695c1.407,0,2.23-0.744,2.23-1.819c0-0.996-0.569-1.566-2.009-2.12
		c-1.74-0.617-2.815-1.518-2.815-3.021c0-1.661,1.376-2.896,3.448-2.896c1.091,0,1.882,0.254,2.356,0.521l-0.379,1.124
		c-0.348-0.19-1.06-0.507-2.024-0.507c-1.456,0-2.01,0.871-2.01,1.598c0,0.997,0.65,1.487,2.12,2.057
		c1.804,0.695,2.721,1.565,2.721,3.132c0,1.646-1.218,3.069-3.734,3.069c-1.028,0-2.151-0.303-2.72-0.681L262.739,389.36z"/>
	<path d="M271.609,387.462c0.032,1.882,1.234,2.657,2.626,2.657c0.996,0,1.598-0.175,2.12-0.396l0.237,0.996
		c-0.49,0.224-1.328,0.476-2.546,0.476c-2.357,0-3.766-1.551-3.766-3.86s1.36-4.128,3.59-4.128c2.5,0,3.164,2.198,3.164,3.605
		c0,0.284-0.032,0.507-0.047,0.648L271.609,387.462L271.609,387.462z M275.691,386.465c0.016-0.886-0.364-2.263-1.931-2.263
		c-1.408,0-2.024,1.297-2.136,2.263H275.691z"/>
	<path d="M278.915,385.88c0-0.981-0.031-1.771-0.063-2.5h1.25l0.063,1.313h0.032c0.569-0.934,1.471-1.486,2.721-1.486
		c1.851,0,3.242,1.565,3.242,3.891c0,2.753-1.677,4.112-3.479,4.112c-1.012,0-1.898-0.442-2.357-1.201h-0.032v4.159h-1.377V385.88z
		 M280.291,387.92c0,0.206,0.032,0.396,0.063,0.569c0.253,0.966,1.091,1.63,2.089,1.63c1.471,0,2.325-1.203,2.325-2.958
		c0-1.536-0.807-2.848-2.278-2.848c-0.948,0-1.835,0.68-2.104,1.724c-0.048,0.175-0.095,0.381-0.095,0.569V387.92z"/>
</g>
<line fill="none" stroke="#444444" stroke-width="0.9883" x1="374.216" y1="367.95" x2="374.216" y2="373.88"/>
<g>
	<path d="M359.206,379.826c0.469,0,0.923,0.064,1.363,0.195c0.439,0.133,0.832,0.321,1.174,0.571s0.617,0.561,0.822,0.931
		c0.206,0.371,0.309,0.795,0.309,1.274c0,0.247-0.032,0.495-0.097,0.744c-0.064,0.25-0.17,0.487-0.316,0.711
		c-0.146,0.225-0.341,0.426-0.583,0.606c-0.242,0.18-0.538,0.327-0.887,0.439c0.391,0.107,0.726,0.262,1.007,0.46
		c0.281,0.197,0.513,0.423,0.695,0.675c0.183,0.252,0.317,0.521,0.402,0.808c0.085,0.285,0.127,0.575,0.127,0.868
		c0,0.505-0.114,0.949-0.339,1.336c-0.227,0.387-0.528,0.707-0.903,0.966c-0.376,0.258-0.805,0.452-1.286,0.583
		s-0.976,0.197-1.486,0.197s-1.007-0.066-1.49-0.197c-0.484-0.131-0.915-0.325-1.29-0.583c-0.375-0.259-0.677-0.579-0.903-0.966
		c-0.227-0.387-0.34-0.831-0.34-1.336c0-0.293,0.042-0.583,0.127-0.868c0.085-0.286,0.218-0.557,0.401-0.808
		c0.183-0.252,0.415-0.477,0.695-0.675c0.281-0.198,0.617-0.352,1.008-0.46c-0.35-0.112-0.645-0.261-0.885-0.439
		c-0.24-0.181-0.433-0.383-0.579-0.606c-0.146-0.223-0.252-0.461-0.316-0.711c-0.065-0.249-0.097-0.497-0.097-0.744
		c0-0.479,0.103-0.903,0.309-1.274c0.206-0.37,0.478-0.681,0.818-0.931c0.34-0.25,0.729-0.438,1.169-0.571
		C358.275,379.891,358.732,379.826,359.206,379.826z M356.565,388.002c0,0.346,0.072,0.645,0.216,0.896
		c0.144,0.252,0.337,0.463,0.579,0.63c0.242,0.167,0.522,0.292,0.842,0.374s0.653,0.124,1.004,0.124
		c0.345,0,0.677-0.042,0.996-0.124c0.319-0.082,0.601-0.207,0.845-0.374s0.439-0.378,0.583-0.63
		c0.145-0.251,0.216-0.551,0.216-0.896c0-0.344-0.072-0.643-0.216-0.896c-0.144-0.252-0.339-0.462-0.583-0.629
		c-0.245-0.167-0.526-0.293-0.845-0.375c-0.319-0.082-0.651-0.123-0.996-0.123c-0.35,0-0.685,0.041-1.004,0.123
		c-0.319,0.082-0.6,0.208-0.842,0.375c-0.242,0.167-0.435,0.377-0.579,0.629C356.637,387.358,356.565,387.658,356.565,388.002z
		 M356.897,382.906c0,0.306,0.064,0.575,0.192,0.814s0.299,0.44,0.51,0.603c0.21,0.162,0.456,0.286,0.733,0.371
		c0.277,0.084,0.568,0.127,0.873,0.127c0.299,0,0.587-0.043,0.865-0.127c0.277-0.085,0.523-0.209,0.737-0.371
		c0.213-0.162,0.385-0.363,0.514-0.603c0.128-0.239,0.192-0.51,0.192-0.814c0-0.303-0.064-0.573-0.192-0.81
		s-0.301-0.437-0.514-0.599c-0.214-0.162-0.46-0.285-0.737-0.37S359.504,381,359.206,381c-0.305,0-0.595,0.043-0.873,0.128
		c-0.278,0.085-0.523,0.208-0.733,0.37c-0.211,0.162-0.382,0.362-0.51,0.599C356.961,382.331,356.897,382.603,356.897,382.906z"/>
</g>
<g>
	<path d="M368.855,389.36c0.617,0.379,1.519,0.695,2.468,0.695c1.407,0,2.23-0.744,2.23-1.819c0-0.996-0.57-1.566-2.01-2.12
		c-1.74-0.617-2.815-1.518-2.815-3.021c0-1.661,1.376-2.896,3.448-2.896c1.091,0,1.882,0.254,2.357,0.521l-0.38,1.124
		c-0.348-0.19-1.06-0.507-2.025-0.507c-1.456,0-2.009,0.871-2.009,1.598c0,0.997,0.649,1.487,2.12,2.057
		c1.804,0.695,2.721,1.565,2.721,3.132c0,1.646-1.218,3.069-3.733,3.069c-1.029,0-2.152-0.303-2.721-0.681L368.855,389.36z"/>
	<path d="M377.726,387.462c0.032,1.882,1.234,2.657,2.626,2.657c0.996,0,1.599-0.175,2.12-0.396l0.237,0.996
		c-0.49,0.224-1.328,0.476-2.546,0.476c-2.357,0-3.766-1.551-3.766-3.86s1.36-4.128,3.59-4.128c2.5,0,3.164,2.198,3.164,3.605
		c0,0.284-0.032,0.507-0.047,0.648L377.726,387.462L377.726,387.462z M381.808,386.465c0.016-0.886-0.364-2.263-1.93-2.263
		c-1.408,0-2.025,1.297-2.136,2.263H381.808z"/>
	<path d="M385.031,385.88c0-0.981-0.031-1.771-0.063-2.5h1.25l0.063,1.313h0.032c0.569-0.934,1.471-1.486,2.721-1.486
		c1.851,0,3.242,1.565,3.242,3.891c0,2.753-1.677,4.112-3.48,4.112c-1.012,0-1.898-0.442-2.357-1.201h-0.032v4.159h-1.376V385.88z
		 M386.407,387.92c0,0.206,0.032,0.396,0.063,0.569c0.253,0.966,1.091,1.63,2.088,1.63c1.471,0,2.326-1.203,2.326-2.958
		c0-1.536-0.807-2.848-2.278-2.848c-0.949,0-1.835,0.68-2.104,1.724c-0.048,0.175-0.095,0.381-0.095,0.569V387.92z"/>
</g>
<line fill="none" stroke="#444444" stroke-width="0.9883" x1="480.332" y1="367.95" x2="480.332" y2="373.88"/>
<g>
	<path d="M457.446,389.848h2.37v-6.941h-2.487v-1.149h0.811c0.36,0,0.653-0.029,0.88-0.09c0.227-0.059,0.401-0.152,0.525-0.28
		c0.124-0.13,0.207-0.296,0.251-0.499c0.043-0.203,0.065-0.452,0.065-0.745v-0.178h1.296v9.883h2.373v1.188h-6.084L457.446,389.848
		L457.446,389.848z"/>
	<path d="M466.507,385.408l0.579-5.443h6.323v1.189h-5.227l-0.332,3.149c0.298-0.288,0.656-0.506,1.073-0.651
		c0.416-0.146,0.843-0.221,1.281-0.221c0.525,0,1.011,0.098,1.455,0.289c0.445,0.193,0.832,0.46,1.159,0.801
		c0.326,0.339,0.581,0.741,0.764,1.204s0.274,0.962,0.274,1.498c0,0.598-0.098,1.14-0.29,1.629s-0.465,0.907-0.814,1.255
		c-0.351,0.349-0.768,0.614-1.251,0.803c-0.484,0.188-1.017,0.282-1.598,0.282c-0.459,0-0.893-0.055-1.302-0.158
		c-0.409-0.105-0.778-0.267-1.107-0.479s-0.612-0.478-0.845-0.795c-0.234-0.316-0.4-0.687-0.498-1.108l1.351-0.285
		c0.057,0.221,0.151,0.433,0.285,0.629c0.135,0.198,0.305,0.374,0.511,0.525s0.442,0.271,0.711,0.359
		c0.268,0.087,0.566,0.131,0.896,0.131c0.396,0,0.751-0.066,1.065-0.201c0.312-0.134,0.579-0.32,0.795-0.559
		c0.216-0.239,0.382-0.523,0.498-0.853s0.174-0.688,0.174-1.073c0-0.402-0.058-0.768-0.174-1.097s-0.284-0.614-0.502-0.854
		c-0.22-0.238-0.485-0.425-0.8-0.555c-0.313-0.131-0.672-0.197-1.073-0.197c-0.19,0-0.385,0.023-0.583,0.07
		c-0.199,0.046-0.389,0.109-0.571,0.191s-0.354,0.184-0.514,0.303c-0.16,0.118-0.296,0.249-0.409,0.393L466.507,385.408z"/>
</g>
<g>
	<path d="M479.913,389.36c0.616,0.379,1.519,0.695,2.467,0.695c1.408,0,2.231-0.744,2.231-1.819c0-0.996-0.569-1.566-2.01-2.12
		c-1.739-0.617-2.815-1.518-2.815-3.021c0-1.661,1.376-2.896,3.449-2.896c1.091,0,1.881,0.254,2.356,0.521l-0.38,1.124
		c-0.349-0.19-1.06-0.507-2.026-0.507c-1.455,0-2.008,0.871-2.008,1.598c0,0.997,0.648,1.487,2.12,2.057
		c1.804,0.695,2.721,1.565,2.721,3.132c0,1.646-1.218,3.069-3.733,3.069c-1.028,0-2.151-0.303-2.721-0.681L479.913,389.36z"/>
	<path d="M488.783,387.462c0.032,1.882,1.234,2.657,2.626,2.657c0.996,0,1.599-0.175,2.12-0.396l0.237,0.996
		c-0.49,0.224-1.328,0.476-2.546,0.476c-2.358,0-3.766-1.551-3.766-3.86s1.36-4.128,3.591-4.128c2.499,0,3.163,2.198,3.163,3.605
		c0,0.284-0.031,0.507-0.047,0.648L488.783,387.462L488.783,387.462z M492.865,386.465c0.017-0.886-0.363-2.263-1.931-2.263
		c-1.407,0-2.024,1.297-2.134,2.263H492.865z"/>
	<path d="M496.089,385.88c0-0.981-0.031-1.771-0.063-2.5h1.25l0.063,1.313h0.031c0.569-0.934,1.471-1.486,2.722-1.486
		c1.851,0,3.243,1.565,3.243,3.891c0,2.753-1.678,4.112-3.48,4.112c-1.014,0-1.899-0.442-2.356-1.201h-0.033v4.159h-1.376V385.88z
		 M497.465,387.92c0,0.206,0.033,0.396,0.063,0.569c0.253,0.966,1.091,1.63,2.088,1.63c1.471,0,2.326-1.203,2.326-2.958
		c0-1.536-0.808-2.848-2.279-2.848c-0.948,0-1.833,0.68-2.104,1.724c-0.048,0.175-0.096,0.381-0.096,0.569L497.465,387.92
		L497.465,387.92z"/>
</g>
<line fill="none" stroke="#444444" stroke-width="0.9883" x1="586.448" y1="367.95" x2="586.448" y2="373.88"/>
<g>
	<path d="M564.698,389.848h5.521v1.188h-7.373v-1.297c0.704-0.473,1.339-0.911,1.907-1.312c0.565-0.401,1.065-0.78,1.498-1.139
		s0.803-0.699,1.116-1.023c0.31-0.324,0.566-0.646,0.768-0.965c0.2-0.32,0.348-0.641,0.439-0.966s0.14-0.667,0.14-1.027
		c0-0.308-0.055-0.601-0.158-0.88c-0.105-0.278-0.259-0.521-0.456-0.729c-0.197-0.209-0.443-0.375-0.732-0.498
		c-0.291-0.124-0.622-0.186-0.993-0.186c-0.299,0-0.587,0.043-0.86,0.128c-0.275,0.085-0.521,0.22-0.733,0.404
		c-0.214,0.186-0.389,0.425-0.521,0.715c-0.136,0.291-0.209,0.639-0.225,1.046l-1.281-0.146c0.02-0.516,0.119-0.978,0.301-1.39
		c0.18-0.412,0.429-0.763,0.745-1.05c0.316-0.288,0.695-0.51,1.136-0.664c0.438-0.153,0.929-0.23,1.47-0.23
		c0.524,0,1.011,0.086,1.463,0.258c0.449,0.173,0.842,0.413,1.174,0.722s0.591,0.675,0.779,1.096
		c0.188,0.422,0.282,0.885,0.282,1.383c0,0.591-0.103,1.147-0.306,1.667c-0.204,0.521-0.514,1.031-0.93,1.533
		c-0.416,0.503-0.946,1.008-1.586,1.517c-0.641,0.51-1.397,1.049-2.267,1.614l-0.316,0.2L564.698,389.848L564.698,389.848z"/>
	<path d="M574.346,389.848h5.521v1.188h-7.373v-1.297c0.704-0.473,1.339-0.911,1.907-1.312c0.565-0.401,1.065-0.78,1.498-1.139
		s0.803-0.699,1.116-1.023c0.31-0.324,0.567-0.646,0.769-0.965c0.199-0.32,0.347-0.641,0.438-0.966
		c0.093-0.325,0.14-0.667,0.14-1.027c0-0.308-0.055-0.601-0.158-0.88c-0.105-0.278-0.259-0.521-0.455-0.729
		c-0.199-0.209-0.444-0.375-0.733-0.498c-0.292-0.124-0.622-0.186-0.992-0.186c-0.3,0-0.587,0.043-0.861,0.128
		c-0.275,0.085-0.521,0.22-0.733,0.404c-0.214,0.186-0.388,0.425-0.52,0.715c-0.137,0.291-0.21,0.639-0.226,1.046l-1.281-0.146
		c0.02-0.516,0.119-0.978,0.301-1.39c0.181-0.412,0.43-0.763,0.745-1.05c0.316-0.288,0.695-0.51,1.135-0.664
		c0.44-0.153,0.93-0.23,1.471-0.23c0.524,0,1.011,0.086,1.463,0.258c0.449,0.173,0.842,0.413,1.174,0.722s0.591,0.675,0.78,1.096
		c0.187,0.422,0.281,0.885,0.281,1.383c0,0.591-0.103,1.147-0.306,1.667c-0.204,0.521-0.514,1.031-0.93,1.533
		c-0.416,0.503-0.946,1.008-1.586,1.517c-0.641,0.51-1.397,1.049-2.267,1.614l-0.316,0.2L574.346,389.848L574.346,389.848z"/>
</g>
<g>
	<path d="M586.029,389.36c0.616,0.379,1.519,0.695,2.467,0.695c1.408,0,2.231-0.744,2.231-1.819c0-0.996-0.569-1.566-2.009-2.12
		c-1.74-0.617-2.816-1.518-2.816-3.021c0-1.661,1.376-2.896,3.448-2.896c1.092,0,1.882,0.254,2.357,0.521l-0.381,1.124
		c-0.348-0.19-1.059-0.507-2.024-0.507c-1.456,0-2.01,0.871-2.01,1.598c0,0.997,0.649,1.487,2.121,2.057
		c1.804,0.695,2.721,1.565,2.721,3.132c0,1.646-1.218,3.069-3.732,3.069c-1.029,0-2.151-0.303-2.721-0.681L586.029,389.36z"/>
	<path d="M594.9,387.462c0.031,1.882,1.234,2.657,2.626,2.657c0.996,0,1.598-0.175,2.119-0.396l0.237,0.996
		c-0.49,0.224-1.328,0.476-2.546,0.476c-2.357,0-3.766-1.551-3.766-3.86s1.36-4.128,3.591-4.128c2.499,0,3.164,2.198,3.164,3.605
		c0,0.284-0.032,0.507-0.048,0.648L594.9,387.462L594.9,387.462z M598.981,386.465c0.017-0.886-0.363-2.263-1.931-2.263
		c-1.406,0-2.024,1.297-2.134,2.263H598.981z"/>
	<path d="M602.205,385.88c0-0.981-0.031-1.771-0.062-2.5h1.25l0.063,1.313h0.03c0.569-0.934,1.471-1.486,2.722-1.486
		c1.851,0,3.243,1.565,3.243,3.891c0,2.753-1.678,4.112-3.48,4.112c-1.013,0-1.899-0.442-2.356-1.201h-0.033v4.159h-1.376V385.88
		L602.205,385.88z M603.581,387.92c0,0.206,0.033,0.396,0.063,0.569c0.253,0.966,1.091,1.63,2.088,1.63
		c1.471,0,2.326-1.203,2.326-2.958c0-1.536-0.807-2.848-2.279-2.848c-0.948,0-1.833,0.68-2.104,1.724
		c-0.047,0.175-0.096,0.381-0.096,0.569L603.581,387.92L603.581,387.92z"/>
</g>
<line fill="none" stroke="#444444" stroke-width="0.9883" x1="692.564" y1="367.95" x2="692.564" y2="373.88"/>
<g>
	<path d="M670.815,389.848h5.521v1.188h-7.374v-1.297c0.705-0.473,1.339-0.911,1.907-1.312c0.565-0.401,1.065-0.78,1.498-1.139
		c0.434-0.358,0.803-0.699,1.116-1.023c0.31-0.324,0.566-0.646,0.768-0.965c0.2-0.32,0.349-0.641,0.44-0.966
		s0.139-0.667,0.139-1.027c0-0.308-0.054-0.601-0.158-0.88c-0.105-0.278-0.259-0.521-0.456-0.729
		c-0.197-0.209-0.442-0.375-0.732-0.498c-0.291-0.124-0.622-0.186-0.993-0.186c-0.299,0-0.587,0.043-0.859,0.128
		c-0.276,0.085-0.521,0.22-0.733,0.404c-0.215,0.186-0.39,0.425-0.521,0.715c-0.135,0.291-0.208,0.639-0.224,1.046l-1.282-0.146
		c0.02-0.516,0.119-0.978,0.302-1.39c0.179-0.412,0.428-0.763,0.745-1.05c0.316-0.288,0.694-0.51,1.135-0.664
		c0.438-0.153,0.929-0.23,1.47-0.23c0.525,0,1.012,0.086,1.463,0.258c0.45,0.173,0.842,0.413,1.174,0.722s0.592,0.675,0.779,1.096
		c0.188,0.422,0.282,0.885,0.282,1.383c0,0.591-0.103,1.147-0.305,1.667c-0.205,0.521-0.515,1.031-0.931,1.533
		c-0.416,0.503-0.945,1.008-1.586,1.517c-0.641,0.51-1.397,1.049-2.267,1.614l-0.315,0.2L670.815,389.848L670.815,389.848z"/>
	<path d="M686.229,385.185c0,0.499-0.034,0.995-0.103,1.489c-0.069,0.494-0.179,0.965-0.324,1.409
		c-0.147,0.445-0.336,0.86-0.567,1.243c-0.231,0.385-0.512,0.716-0.838,0.992c-0.328,0.278-0.703,0.498-1.129,0.656
		c-0.424,0.159-0.905,0.239-1.439,0.239c-0.386,0-0.745-0.045-1.077-0.135s-0.637-0.215-0.915-0.374
		c-0.278-0.16-0.525-0.349-0.741-0.564c-0.216-0.215-0.401-0.45-0.556-0.702l1.329-0.409c0.257,0.355,0.544,0.62,0.864,0.795
		c0.317,0.176,0.683,0.264,1.096,0.264c0.355,0,0.677-0.059,0.962-0.174c0.286-0.115,0.541-0.275,0.764-0.479
		c0.224-0.204,0.417-0.444,0.579-0.722s0.298-0.582,0.405-0.911c0.108-0.329,0.189-0.677,0.247-1.043
		c0.056-0.365,0.089-0.736,0.102-1.111h-0.031c-0.1,0.19-0.239,0.378-0.421,0.563c-0.184,0.186-0.401,0.351-0.656,0.498
		c-0.256,0.146-0.545,0.267-0.864,0.358c-0.322,0.094-0.669,0.14-1.04,0.14c-0.523,0-1.007-0.092-1.447-0.274
		c-0.44-0.182-0.82-0.434-1.138-0.756c-0.32-0.322-0.567-0.704-0.746-1.147c-0.178-0.442-0.267-0.923-0.267-1.443
		c0-0.53,0.093-1.024,0.282-1.482c0.186-0.458,0.447-0.857,0.783-1.197c0.334-0.339,0.735-0.606,1.204-0.803
		c0.468-0.194,0.981-0.293,1.537-0.293c0.588,0,1.132,0.11,1.637,0.332c0.504,0.222,0.941,0.549,1.312,0.98
		c0.371,0.433,0.662,0.967,0.876,1.602c0.213,0.637,0.32,1.366,0.32,2.189V385.185L686.229,385.185z M684.647,383.54
		c0-0.382-0.064-0.731-0.189-1.051c-0.128-0.318-0.301-0.594-0.525-0.822c-0.223-0.228-0.49-0.406-0.795-0.532
		c-0.307-0.127-0.643-0.188-1.008-0.188c-0.354,0-0.685,0.061-0.988,0.182c-0.306,0.12-0.565,0.292-0.783,0.515
		c-0.222,0.221-0.392,0.489-0.518,0.802c-0.127,0.313-0.189,0.664-0.189,1.05c0,0.391,0.062,0.746,0.187,1.065
		c0.125,0.318,0.295,0.591,0.517,0.813c0.221,0.226,0.482,0.396,0.788,0.518c0.304,0.121,0.637,0.182,1.004,0.182
		c0.371,0,0.708-0.061,1.016-0.182c0.305-0.121,0.566-0.292,0.787-0.515c0.219-0.221,0.39-0.486,0.514-0.799
		C684.586,384.265,684.647,383.921,684.647,383.54z"/>
</g>
<g>
	<path d="M692.146,389.36c0.615,0.379,1.518,0.695,2.467,0.695c1.408,0,2.231-0.744,2.231-1.819c0-0.996-0.57-1.566-2.01-2.12
		c-1.74-0.617-2.816-1.518-2.816-3.021c0-1.661,1.376-2.896,3.448-2.896c1.092,0,1.882,0.254,2.358,0.521l-0.382,1.124
		c-0.348-0.19-1.059-0.507-2.024-0.507c-1.456,0-2.01,0.871-2.01,1.598c0,0.997,0.649,1.487,2.122,2.057
		c1.804,0.695,2.72,1.565,2.72,3.132c0,1.646-1.218,3.069-3.732,3.069c-1.029,0-2.151-0.303-2.721-0.681L692.146,389.36z"/>
	<path d="M701.017,387.462c0.032,1.882,1.234,2.657,2.626,2.657c0.996,0,1.599-0.175,2.119-0.396l0.237,0.996
		c-0.49,0.224-1.327,0.476-2.546,0.476c-2.357,0-3.766-1.551-3.766-3.86s1.361-4.128,3.591-4.128c2.499,0,3.164,2.198,3.164,3.605
		c0,0.284-0.032,0.507-0.047,0.648L701.017,387.462L701.017,387.462z M705.098,386.465c0.017-0.886-0.362-2.263-1.93-2.263
		c-1.407,0-2.025,1.297-2.134,2.263H705.098z"/>
	<path d="M708.321,385.88c0-0.981-0.03-1.771-0.062-2.5h1.25l0.063,1.313h0.031c0.569-0.934,1.471-1.486,2.722-1.486
		c1.85,0,3.242,1.565,3.242,3.891c0,2.753-1.677,4.112-3.48,4.112c-1.012,0-1.899-0.442-2.356-1.201h-0.033v4.159h-1.376V385.88
		L708.321,385.88z M709.697,387.92c0,0.206,0.033,0.396,0.064,0.569c0.253,0.966,1.09,1.63,2.087,1.63
		c1.471,0,2.326-1.203,2.326-2.958c0-1.536-0.807-2.848-2.278-2.848c-0.949,0-1.834,0.68-2.104,1.724
		c-0.047,0.175-0.096,0.381-0.096,0.569L709.697,387.92L709.697,387.92z"/>
</g>
<line fill="none" stroke="#444444" stroke-width="0.9883" x1="798.682" y1="367.95" x2="798.682" y2="373.88"/>
<g>
	<path d="M780.175,385.833c0-0.5,0.033-0.996,0.103-1.487s0.178-0.962,0.324-1.409c0.146-0.448,0.334-0.862,0.564-1.243
		c0.227-0.381,0.505-0.71,0.833-0.988c0.326-0.278,0.703-0.497,1.128-0.656c0.426-0.159,0.903-0.239,1.439-0.239
		c0.387,0,0.745,0.045,1.081,0.136c0.335,0.09,0.639,0.214,0.916,0.371c0.273,0.156,0.521,0.344,0.737,0.559
		c0.216,0.215,0.4,0.45,0.555,0.702l-1.328,0.417c-0.494-0.71-1.148-1.065-1.961-1.065c-0.53,0-0.984,0.127-1.362,0.38
		c-0.379,0.252-0.691,0.586-0.938,0.999c-0.247,0.414-0.433,0.888-0.552,1.421c-0.122,0.533-0.188,1.083-0.197,1.648h0.031
		c0.093-0.189,0.229-0.378,0.413-0.562c0.182-0.187,0.401-0.353,0.656-0.502c0.255-0.15,0.542-0.271,0.864-0.362
		c0.321-0.094,0.668-0.141,1.039-0.141c0.524,0,1.009,0.093,1.447,0.274c0.44,0.182,0.82,0.437,1.143,0.761
		c0.32,0.324,0.571,0.708,0.749,1.15c0.179,0.442,0.268,0.923,0.268,1.436c0,0.53-0.096,1.026-0.282,1.486
		c-0.188,0.462-0.451,0.861-0.787,1.202c-0.338,0.34-0.741,0.605-1.209,0.802c-0.47,0.196-0.979,0.293-1.537,0.293
		c-0.587,0-1.132-0.109-1.637-0.332c-0.506-0.221-0.94-0.548-1.312-0.98c-0.37-0.431-0.663-0.966-0.873-1.602
		c-0.213-0.637-0.315-1.368-0.315-2.197V385.833L780.175,385.833z M781.757,387.478c0,0.387,0.062,0.737,0.189,1.054
		c0.126,0.316,0.299,0.59,0.521,0.818c0.221,0.228,0.484,0.406,0.791,0.533c0.306,0.126,0.641,0.188,1.009,0.188
		c0.354,0,0.684-0.061,0.988-0.182c0.303-0.12,0.565-0.292,0.787-0.513c0.221-0.223,0.394-0.489,0.521-0.804
		c0.125-0.313,0.188-0.664,0.188-1.049c0-0.392-0.062-0.745-0.186-1.062c-0.125-0.316-0.298-0.587-0.518-0.811
		c-0.222-0.224-0.486-0.396-0.791-0.517c-0.308-0.12-0.643-0.183-1.009-0.183s-0.702,0.062-1.008,0.183
		c-0.307,0.121-0.571,0.293-0.791,0.514c-0.223,0.221-0.394,0.487-0.515,0.799C781.817,386.758,781.757,387.102,781.757,387.478z"/>
</g>
<g>
	<path d="M803.116,385.596c0,3.669-2.23,5.614-4.952,5.614c-2.815,0-4.794-2.183-4.794-5.409c0-3.386,2.104-5.601,4.952-5.601
		C801.233,380.2,803.116,382.431,803.116,385.596z M794.843,385.769c0,2.278,1.234,4.319,3.4,4.319c2.184,0,3.418-2.01,3.418-4.43
		c0-2.119-1.107-4.335-3.4-4.335C795.982,381.323,794.843,383.428,794.843,385.769z"/>
	<path d="M810.468,390.752c-0.363,0.19-1.17,0.443-2.199,0.443c-2.31,0-3.812-1.566-3.812-3.908c0-2.356,1.613-4.065,4.113-4.065
		c0.822,0,1.55,0.206,1.929,0.396l-0.315,1.075c-0.333-0.189-0.854-0.364-1.613-0.364c-1.756,0-2.705,1.296-2.705,2.896
		c0,1.771,1.138,2.863,2.656,2.863c0.792,0,1.312-0.206,1.709-0.38L810.468,390.752z"/>
	<path d="M813.93,381.182v2.198h1.993v1.061h-1.993v4.128c0,0.95,0.269,1.487,1.044,1.487c0.364,0,0.633-0.047,0.806-0.095
		l0.063,1.044c-0.268,0.111-0.695,0.19-1.233,0.19c-0.648,0-1.171-0.206-1.503-0.586c-0.395-0.411-0.537-1.092-0.537-1.994v-4.176
		h-1.187v-1.061h1.187v-1.834L813.93,381.182z"/>
</g>
<line fill="none" stroke="#444444" stroke-width="0.9883" x1="904.798" y1="367.95" x2="904.798" y2="373.88"/>
<g>
	<path d="M882.407,389.848h2.37v-6.941h-2.486v-1.149h0.811c0.358,0,0.652-0.029,0.881-0.09c0.226-0.059,0.4-0.152,0.523-0.28
		c0.124-0.13,0.207-0.296,0.252-0.499c0.043-0.203,0.065-0.452,0.065-0.745v-0.178h1.296v9.883h2.372v1.188h-6.084V389.848z"/>
	<path d="M892.348,388.203c0.211,0.529,0.533,0.965,0.966,1.301c0.432,0.336,1.005,0.506,1.722,0.506c0.39,0,0.733-0.053,1.03-0.158
		c0.296-0.104,0.544-0.251,0.745-0.436c0.201-0.186,0.352-0.398,0.452-0.641c0.1-0.242,0.15-0.505,0.15-0.787
		c0-0.623-0.243-1.105-0.729-1.448c-0.486-0.344-1.114-0.515-1.881-0.515h-0.478v-1.188h0.433c0.422,0,0.787-0.059,1.097-0.174
		c0.308-0.116,0.564-0.269,0.771-0.46c0.205-0.189,0.359-0.404,0.461-0.641c0.1-0.235,0.149-0.475,0.149-0.718
		c0-0.231-0.048-0.458-0.143-0.681c-0.097-0.221-0.231-0.42-0.409-0.595c-0.178-0.174-0.405-0.312-0.68-0.409
		c-0.276-0.097-0.588-0.146-0.931-0.146c-0.613,0-1.133,0.156-1.56,0.471c-0.429,0.314-0.741,0.706-0.941,1.174l-1.136-0.555
		c0.313-0.726,0.797-1.286,1.445-1.684c0.647-0.396,1.378-0.594,2.192-0.594c0.514,0,0.988,0.072,1.421,0.22
		c0.434,0.147,0.807,0.355,1.124,0.625c0.316,0.271,0.562,0.587,0.741,0.95c0.178,0.362,0.267,0.757,0.267,1.178
		c0,0.339-0.054,0.648-0.158,0.926c-0.105,0.278-0.251,0.528-0.433,0.75c-0.183,0.221-0.401,0.404-0.656,0.552
		s-0.524,0.248-0.807,0.306c0.328,0.052,0.634,0.155,0.911,0.312s0.518,0.351,0.719,0.583c0.202,0.232,0.359,0.498,0.475,0.799
		c0.115,0.303,0.174,0.617,0.174,0.946c0,0.524-0.104,0.988-0.309,1.39c-0.206,0.401-0.486,0.738-0.838,1.012
		c-0.354,0.271-0.76,0.477-1.216,0.613c-0.459,0.136-0.94,0.205-1.451,0.205c-0.907,0-1.718-0.21-2.433-0.631
		c-0.716-0.42-1.224-1.019-1.521-1.802L892.348,388.203z"/>
</g>
<g>
	<path d="M914.174,385.596c0,3.669-2.23,5.614-4.952,5.614c-2.814,0-4.793-2.183-4.793-5.409c0-3.386,2.104-5.601,4.952-5.601
		C912.291,380.2,914.174,382.431,914.174,385.596z M905.901,385.769c0,2.278,1.234,4.319,3.399,4.319c2.184,0,3.418-2.01,3.418-4.43
		c0-2.119-1.107-4.335-3.4-4.335C907.041,381.323,905.901,383.428,905.901,385.769z"/>
	<path d="M921.525,390.752c-0.363,0.19-1.17,0.443-2.198,0.443c-2.31,0-3.812-1.566-3.812-3.908c0-2.356,1.613-4.065,4.113-4.065
		c0.822,0,1.55,0.206,1.93,0.396l-0.316,1.075c-0.333-0.189-0.854-0.364-1.613-0.364c-1.756,0-2.706,1.296-2.706,2.896
		c0,1.771,1.139,2.863,2.658,2.863c0.791,0,1.312-0.206,1.709-0.38L921.525,390.752z"/>
	<path d="M924.987,381.182v2.198h1.994v1.061h-1.994v4.128c0,0.95,0.27,1.487,1.044,1.487c0.364,0,0.633-0.047,0.807-0.095
		l0.063,1.044c-0.269,0.111-0.696,0.19-1.233,0.19c-0.648,0-1.172-0.206-1.504-0.586c-0.394-0.411-0.537-1.092-0.537-1.994v-4.176
		h-1.187v-1.061h1.187v-1.834L924.987,381.182z"/>
</g>
<polygon fill="#C1DFE4" points="56.36,87.279 162.106,123.845 267.852,140.646 374.586,88.267 480.332,94.197 586.078,89.255 
	692.812,73.443 798.558,34.9 905.292,85.302 905.292,360.044 798.558,360.044 692.812,360.044 586.078,360.044 480.332,360.044 
	374.586,360.044 267.852,360.044 162.106,360.044 56.36,360.044 "/>
<polyline fill="none" stroke="#097F96" stroke-width="2.4707" stroke-linecap="round" stroke-linejoin="round" stroke-miterlimit="10" points="
	56.36,87.279 162.106,123.845 267.852,140.646 374.586,88.267 480.332,94.197 586.078,89.255 692.812,73.443 798.558,34.9 
	905.292,85.302 "/>
<text transform="matrix(1 0 0 1 3.0166 299.0811)" font-family="'GDSTransportWebsite'" font-size="15.8125">£0.20</text>
<text transform="matrix(1 0 0 1 2.4219 235.1543)" font-family="'GDSTransportWebsite'" font-size="15.8125">£0.40</text>
<text transform="matrix(1 0 0 1 2.6689 171.2275)" font-family="'GDSTransportWebsite'" font-size="15.8125">£0.60</text>
<text transform="matrix(1 0 0 1 2.7847 107.2998)" font-family="'GDSTransportWebsite'" font-size="15.8125">£0.80</text>
<text transform="matrix(1 0 0 1 6.5913 43.3726)" font-family="'GDSTransportWebsite'" font-size="15.8125">£1.00</text>
<text transform="matrix(1 0 0 1 26.5342 363.0088)" font-family="'GDSTransportWebsite'" font-size="15.8125">£0</text>
</svg>
