<?xml version="1.0" encoding="utf-8"?>
<!-- Generator: Adobe Illustrator 16.0.4, SVG Export Plug-In . SVG Version: 6.00 Build 0)  -->
<!DOCTYPE svg PUBLIC "-//W3C//DTD SVG 1.1//EN" "http://www.w3.org/Graphics/SVG/1.1/DTD/svg11.dtd">
<svg version="1.1" id="Layer_1" xmlns="http://www.w3.org/2000/svg" xmlns:xlink="http://www.w3.org/1999/xlink" x="0px" y="0px"
	 width="142px" height="30px" viewBox="0 0 142 30" enable-background="new 0 0 142 30" xml:space="preserve">
<g>
	<path fill="none" d="M1,2h2.221h2.222h2.222h2.224h3.097h1.347h2.222h2.221H21h3.097h2.223h2.223h1.345h2.222h2.222h2.223h2.222
		h3.098h1.347h3.097h1.347h2.223h2.222h2.221c0,0,2.405,0.03,3.098,0c0.695-0.03,1.345,0,1.345,0H61h2.222h2.223h2.221h2.222h2.223
		h3.098h1.346h2.221h2.223h2.223h2.221h2.225h2.223h2.221h2.223h2.223h2.221H101h2.223h2.221h1.762h2.684h2.223h2.221h2.225h2.221
		H121h1.761h2.683h3.099h1.347h1.76h2.684h3.098h1.346H141l-0.081,26H1V2z"/>
	<path fill="none" stroke="#108095" stroke-width="1.5" d="M141,2h-2.223h-1.346h-3.098h-2.684h-1.76h-1.347h-3.099h-2.682h-1.762
		h-2.223h-2.221h-2.225h-2.22h-2.224h-2.684h-1.762h-2.221H101h-2.223h-2.221l-2.223,3.708h-2.223L89.891,2h-2.223h-2.225h-2.221H81
		h-2.223h-2.221h-1.346h-3.098H69.89h-2.222h-2.221h-2.223H61h-2.224c0,0-0.65-0.03-1.345,0c-0.693,0.03-3.098,0-3.098,0h-2.221
		H49.89h-2.224H46.32h-3.097h-1.347h-3.098h-2.222h-2.223h-2.222h-2.222h-1.345H26.32h-2.223H21h-2.223h-2.221h-2.222h-1.347H9.89
		H7.665H5.443H3.221H1"/>
</g>
</svg>
