<?xml version="1.0" encoding="utf-8"?>
<!-- Generator: Adobe Illustrator 16.0.4, SVG Export Plug-In . SVG Version: 6.00 Build 0)  -->
<!DOCTYPE svg PUBLIC "-//W3C//DTD SVG 1.1//EN" "http://www.w3.org/Graphics/SVG/1.1/DTD/svg11.dtd">
<svg version="1.1" id="Layer_1" xmlns="http://www.w3.org/2000/svg" xmlns:xlink="http://www.w3.org/1999/xlink" x="0px" y="0px"
	 width="142px" height="30px" viewBox="0 0 142 30" enable-background="new 0 0 142 30" xml:space="preserve">
<g>
	<path fill="none" stroke="#118094" stroke-width="2" d="M1.757,13.676l7-1.904l7-4.928l7,6.832l7,0.23c0,0,5-1.816,7-1.816
		s7,1.586,7,1.586h7l7-3.302l7,2.034l7-2.034l7,1.716l6,3.816l7,2.861l7-2.544h7l7,2.544l7-4.862l7,12.176h7l7-3.18"/>
</g>
<polyline fill="none" stroke="#662F8F" stroke-width="2" points="1.757,13.28 8.757,15.971 15.757,16.928 22.757,15.104 
	29.757,15.104 36.757,16.148 43.977,15.104 50.758,16.928 57.758,20.992 64.758,22.785 71.594,19.02 78.758,15.791 84.758,15.073 
	91.758,18.84 98.412,16.928 105.758,14.715 112.758,14.715 119.758,15.432 126.758,13.28 133.758,13.28 140.758,14.176 "/>
</svg>
