<?xml version="1.0" encoding="utf-8"?>
<!-- Generator: Adobe Illustrator 16.0.4, SVG Export Plug-In . SVG Version: 6.00 Build 0)  -->
<!DOCTYPE svg PUBLIC "-//W3C//DTD SVG 1.1//EN" "http://www.w3.org/Graphics/SVG/1.1/DTD/svg11.dtd">
<svg version="1.1" id="Layer_1" xmlns="http://www.w3.org/2000/svg" xmlns:xlink="http://www.w3.org/1999/xlink" x="0px" y="0px"
	 width="930px" height="265.887px" viewBox="0 0 930 265.887" enable-background="new 0 0 930 265.887" xml:space="preserve">
<text transform="matrix(1 0 0 1 2 74.4238)" fill="#097F96" font-family="'NTATabular-Bold'" font-size="46.1818">2182</text>
<text transform="matrix(1 0 0 1 115.6504 74.4238)" fill="#097F96" font-family="'GDSTransportWebsite-Bold'" font-size="46.1818">ms</text>
<text transform="matrix(1 0 0 1 2 95.5918)"><tspan x="0" y="0" fill="#0B0C0C" font-family="'GDSTransportWebsite'" font-size="15.3939">mean </tspan><tspan x="39.748" y="0" fill="#0B0C0C" font-family="'GDSTransportWebsite'" font-size="15.3939">f</tspan><tspan x="44.548" y="0" fill="#0B0C0C" font-family="'GDSTransportWebsite'" font-size="15.3939">o</tspan><tspan x="53.012" y="0" fill="#0B0C0C" font-family="'GDSTransportWebsite'" font-size="15.3939">r</tspan><tspan x="58.093" y="0" fill="#0B0C0C" font-family="'GDSTransportWebsite'" font-size="15.3939"> the last </tspan></text>
<text transform="matrix(1 0 0 1 115.958 95.5918)" fill="#0B0C0C" font-family="'NTATabularNumbers-Light'" font-size="15.3939">30</text>
<text transform="matrix(1 0 0 1 134.4341 95.5918)"><tspan x="0" y="0" fill="#0B0C0C" font-family="'GDSTransportWebsite'" font-size="15.3939"> d</tspan><tspan x="11.718" y="0" fill="#0B0C0C" font-family="'GDSTransportWebsite'" font-size="15.3939">a</tspan><tspan x="19.414" y="0" fill="#0B0C0C" font-family="'GDSTransportWebsite'" font-size="15.3939">y</tspan><tspan x="26.523" y="0" fill="#0B0C0C" font-family="'GDSTransportWebsite'" font-size="15.3939">s</tspan></text>
<text transform="matrix(1 0 0 1 2 204.3105)" fill="#097F96" font-family="'NTATabular-Bold'" font-size="46.1818">100</text>
<text transform="matrix(1 0 0 1 87.2378 204.3105)" fill="#097F96" font-family="'GDSTransportWebsite-Bold'" font-size="46.1818">%</text>
<text transform="matrix(1 0 0 1 2 225.4785)"><tspan x="0" y="0" fill="#0B0C0C" font-family="'GDSTransportWebsite'" font-size="15.3939">f</tspan><tspan x="4.801" y="0" fill="#0B0C0C" font-family="'GDSTransportWebsite'" font-size="15.3939">o</tspan><tspan x="13.264" y="0" fill="#0B0C0C" font-family="'GDSTransportWebsite'" font-size="15.3939">r</tspan><tspan x="18.345" y="0" fill="#0B0C0C" font-family="'GDSTransportWebsite'" font-size="15.3939"> the last </tspan></text>
<text transform="matrix(1 0 0 1 76.2104 225.4785)" fill="#0B0C0C" font-family="'NTATabularNumbers-Light'" font-size="15.3939">30</text>
<text transform="matrix(1 0 0 1 94.6865 225.4785)"><tspan x="0" y="0" fill="#0B0C0C" font-family="'GDSTransportWebsite'" font-size="15.3939"> d</tspan><tspan x="11.718" y="0" fill="#0B0C0C" font-family="'GDSTransportWebsite'" font-size="15.3939">a</tspan><tspan x="19.414" y="0" fill="#0B0C0C" font-family="'GDSTransportWebsite'" font-size="15.3939">y</tspan><tspan x="26.523" y="0" fill="#0B0C0C" font-family="'GDSTransportWebsite'" font-size="15.3939">s</tspan></text>
<text transform="matrix(1 0 0 1 2 23.4326)" fill="#0B0C0C" font-family="'GDSTransportWebsite-Bold'" font-size="18.2803">Page load time</text>
<text transform="matrix(1 0 0 1 2 153.3184)" fill="#0B0C0C" font-family="'GDSTransportWebsite-Bold'" font-size="18.2803">Uptime</text>
<line fill="none" stroke="#444444" stroke-width="0.9621" x1="261.772" y1="124.455" x2="261.772" y2="130.227"/>
<line fill="none" stroke="#444444" stroke-width="0.9621" x1="284.665" y1="124.455" x2="284.665" y2="130.227"/>
<line fill="none" stroke="#444444" stroke-width="0.9621" x1="307.557" y1="124.455" x2="307.557" y2="130.227"/>
<line fill="none" stroke="#444444" stroke-width="0.9621" x1="330.448" y1="124.455" x2="330.448" y2="130.227"/>
<line fill="none" stroke="#444444" stroke-width="0.9621" x1="353.34" y1="124.455" x2="353.34" y2="130.227"/>
<line fill="none" stroke="#444444" stroke-width="0.9621" x1="376.232" y1="124.455" x2="376.232" y2="130.227"/>
<line fill="none" stroke="#444444" stroke-width="0.9621" x1="399.124" y1="124.455" x2="399.124" y2="130.227"/>
<line fill="none" stroke="#444444" stroke-width="0.9621" x1="422.016" y1="124.455" x2="422.016" y2="130.227"/>
<line fill="none" stroke="#444444" stroke-width="0.9621" x1="444.907" y1="124.455" x2="444.907" y2="130.227"/>
<line fill="none" stroke="#444444" stroke-width="0.9621" x1="467.799" y1="124.455" x2="467.799" y2="130.227"/>
<line fill="none" stroke="#444444" stroke-width="0.9621" x1="490.691" y1="124.455" x2="490.691" y2="130.227"/>
<line fill="none" stroke="#444444" stroke-width="0.9621" x1="512.629" y1="124.455" x2="512.629" y2="130.227"/>
<line fill="none" stroke="#444444" stroke-width="0.9621" x1="536.475" y1="124.455" x2="536.475" y2="130.227"/>
<line fill="none" stroke="#444444" stroke-width="0.9621" x1="559.366" y1="124.455" x2="559.366" y2="130.227"/>
<line fill="none" stroke="#444444" stroke-width="0.9621" x1="582.259" y1="124.455" x2="582.259" y2="130.227"/>
<line fill="none" stroke="#444444" stroke-width="0.9621" x1="605.15" y1="124.455" x2="605.15" y2="130.227"/>
<line fill="none" stroke="#444444" stroke-width="0.9621" x1="628.042" y1="124.455" x2="628.042" y2="130.227"/>
<line fill="none" stroke="#444444" stroke-width="0.9621" x1="650.935" y1="124.455" x2="650.935" y2="130.227"/>
<line fill="none" stroke="#444444" stroke-width="0.9621" x1="673.826" y1="124.455" x2="673.826" y2="130.227"/>
<line fill="none" stroke="#444444" stroke-width="0.9621" x1="696.719" y1="124.455" x2="696.719" y2="130.227"/>
<line fill="none" stroke="#444444" stroke-width="0.9621" x1="719.609" y1="124.455" x2="719.609" y2="130.227"/>
<line fill="none" stroke="#444444" stroke-width="0.9621" x1="742.501" y1="124.455" x2="742.501" y2="130.227"/>
<line fill="none" stroke="#444444" stroke-width="0.9621" x1="765.394" y1="124.455" x2="765.394" y2="130.227"/>
<line fill="none" stroke="#444444" stroke-width="0.9621" x1="788.285" y1="124.455" x2="788.285" y2="130.227"/>
<line fill="none" stroke="#444444" stroke-width="0.9621" x1="811.177" y1="124.455" x2="811.177" y2="130.227"/>
<line fill="none" stroke="#444444" stroke-width="0.9621" x1="834.068" y1="124.455" x2="834.068" y2="130.227"/>
<line fill="none" stroke="#444444" stroke-width="0.9621" x1="856.962" y1="124.455" x2="856.962" y2="130.227"/>
<line fill="none" stroke="#444444" stroke-width="0.9621" x1="879.853" y1="124.455" x2="879.853" y2="130.227"/>
<line fill="none" stroke="#444444" stroke-width="0.9621" x1="902.744" y1="124.455" x2="902.744" y2="130.227"/>
<line fill="none" stroke="#444444" stroke-width="0.9621" x1="925.636" y1="124.455" x2="925.636" y2="130.227"/>
<text transform="matrix(1 0 0 1 227.1509 121.6846)" font-family="'NTATabularNumbers-Light'" font-size="15.3939">0</text>
<text transform="matrix(1 0 0 1 236.3892 121.6846)" font-family="'GDSTransportWebsite'" font-size="15.3939">ms</text>
<text transform="matrix(1 0 0 1 199.4375 76.4648)" font-family="'NTATabularNumbers-Light'" font-size="15.3939">2000</text>
<text transform="matrix(1 0 0 1 236.3892 76.4648)" font-family="'GDSTransportWebsite'" font-size="15.3939">ms</text>
<text transform="matrix(1 0 0 1 199.4375 30.2832)" font-family="'NTATabularNumbers-Light'" font-size="15.3939">4000</text>
<text transform="matrix(1 0 0 1 236.3892 30.2832)" font-family="'GDSTransportWebsite'" font-size="15.3939">ms</text>
<polygon fill="#C1DFE4" points="262.254,67.689 284.382,69.614 307.474,62.879 330.564,67.689 353.655,66.728 375.784,58.068 
	398.875,62.879 421.966,61.917 445.057,55.182 468.147,70.576 490.276,75.387 512.405,76.348 536.458,60.955 559.549,61.917 
	582.641,55.182 604.769,41.712 627.86,62.879 650.95,79.234 674.042,77.311 697.133,70.576 719.262,71.538 742.353,77.311 
	765.443,59.993 788.534,70.576 811.625,69.614 833.754,67.689 856.845,68.651 879.936,71.538 903.026,70.576 926.118,74.424 
	926.118,116.757 903.026,116.757 879.936,116.757 856.845,116.757 833.754,116.757 811.625,116.757 788.534,116.757 
	765.443,116.757 742.353,116.757 719.262,116.757 697.133,116.757 674.042,116.757 650.95,116.757 627.86,116.757 604.769,116.757 
	582.641,116.757 559.549,116.757 536.458,116.757 512.405,116.757 490.276,116.757 468.147,116.757 445.057,116.757 
	421.966,116.757 398.875,116.757 375.784,116.757 353.655,116.757 330.564,116.757 307.474,116.757 284.382,116.757 
	262.254,116.757 "/>
<polyline fill="none" stroke="#097F96" stroke-width="2.4053" stroke-linecap="round" stroke-linejoin="round" stroke-miterlimit="10" points="
	262.254,67.689 284.382,69.614 307.474,62.879 330.564,67.689 353.655,66.728 375.784,58.068 398.875,62.879 421.966,61.917 
	445.057,55.182 468.147,70.576 490.276,75.387 512.405,76.348 536.458,60.955 559.549,61.917 582.641,55.182 604.769,41.712 
	627.86,62.879 650.95,79.234 674.042,77.311 697.133,70.576 719.262,71.538 742.353,77.311 765.443,59.993 788.534,70.576 
	811.625,69.614 833.754,67.689 856.845,68.651 879.936,71.538 903.026,70.576 926.118,74.424 "/>
<polyline fill="none" points="194.424,6.114 194.424,136 954.5,136 "/>
<line fill="none" stroke="#444444" stroke-width="0.9621" x1="261.772" y1="230.287" x2="261.772" y2="236.061"/>
<line fill="none" stroke="#444444" stroke-width="0.9621" x1="284.665" y1="230.287" x2="284.665" y2="236.061"/>
<line fill="none" stroke="#444444" stroke-width="0.9621" x1="307.557" y1="230.287" x2="307.557" y2="236.061"/>
<line fill="none" stroke="#444444" stroke-width="0.9621" x1="330.448" y1="230.287" x2="330.448" y2="236.061"/>
<line fill="none" stroke="#444444" stroke-width="0.9621" x1="353.34" y1="230.287" x2="353.34" y2="236.061"/>
<line fill="none" stroke="#444444" stroke-width="0.9621" x1="376.232" y1="230.287" x2="376.232" y2="236.061"/>
<text transform="matrix(1 0 0 1 353.1187 252.7627)" font-family="'NTATabularNumbers-Light'" font-size="15.3939">21</text>
<text transform="matrix(1 0 0 1 371.5942 252.7627)" font-family="'GDSTransportWebsite'" font-size="15.3939"> Oct</text>
<line fill="none" stroke="#444444" stroke-width="0.9621" x1="399.124" y1="230.287" x2="399.124" y2="236.061"/>
<line fill="none" stroke="#444444" stroke-width="0.9621" x1="422.016" y1="230.287" x2="422.016" y2="236.061"/>
<line fill="none" stroke="#444444" stroke-width="0.9621" x1="444.907" y1="230.287" x2="444.907" y2="236.061"/>
<line fill="none" stroke="#444444" stroke-width="0.9621" x1="467.799" y1="230.287" x2="467.799" y2="236.061"/>
<line fill="none" stroke="#444444" stroke-width="0.9621" x1="490.691" y1="230.287" x2="490.691" y2="236.061"/>
<line fill="none" stroke="#444444" stroke-width="0.9621" x1="512.629" y1="230.287" x2="512.629" y2="236.061"/>
<line fill="none" stroke="#444444" stroke-width="0.9621" x1="536.475" y1="230.287" x2="536.475" y2="236.061"/>
<text transform="matrix(1 0 0 1 513.3613 252.7627)" font-family="'NTATabularNumbers-Light'" font-size="15.3939">28</text>
<text transform="matrix(1 0 0 1 531.8359 252.7627)" font-family="'GDSTransportWebsite'" font-size="15.3939"> Oct</text>
<line fill="none" stroke="#444444" stroke-width="0.9621" x1="559.366" y1="230.287" x2="559.366" y2="236.061"/>
<line fill="none" stroke="#444444" stroke-width="0.9621" x1="582.259" y1="230.287" x2="582.259" y2="236.061"/>
<line fill="none" stroke="#444444" stroke-width="0.9621" x1="605.15" y1="230.287" x2="605.15" y2="236.061"/>
<line fill="none" stroke="#444444" stroke-width="0.9621" x1="628.042" y1="230.287" x2="628.042" y2="236.061"/>
<line fill="none" stroke="#444444" stroke-width="0.9621" x1="650.935" y1="230.287" x2="650.935" y2="236.061"/>
<line fill="none" stroke="#444444" stroke-width="0.9621" x1="673.826" y1="230.287" x2="673.826" y2="236.061"/>
<line fill="none" stroke="#444444" stroke-width="0.9621" x1="696.719" y1="230.287" x2="696.719" y2="236.061"/>
<text transform="matrix(1 0 0 1 676.8086 252.7627)" font-family="'NTATabularNumbers-Light'" font-size="15.3939">4</text>
<text transform="matrix(1 0 0 1 686.0479 252.7627)"><tspan x="0" y="0" font-family="'GDSTransportWebsite'" font-size="15.3939"> </tspan><tspan x="3.082" y="0" font-family="'GDSTransportWebsite'" font-size="15.3939">N</tspan><tspan x="14.676" y="0" font-family="'GDSTransportWebsite'" font-size="15.3939">o</tspan><tspan x="23.001" y="0" font-family="'GDSTransportWebsite'" font-size="15.3939">v</tspan></text>
<line fill="none" stroke="#444444" stroke-width="0.9621" x1="719.609" y1="230.287" x2="719.609" y2="236.061"/>
<line fill="none" stroke="#444444" stroke-width="0.9621" x1="742.501" y1="230.287" x2="742.501" y2="236.061"/>
<line fill="none" stroke="#444444" stroke-width="0.9621" x1="765.394" y1="230.287" x2="765.394" y2="236.061"/>
<line fill="none" stroke="#444444" stroke-width="0.9621" x1="788.285" y1="230.287" x2="788.285" y2="236.061"/>
<line fill="none" stroke="#444444" stroke-width="0.9621" x1="811.177" y1="230.287" x2="811.177" y2="236.061"/>
<line fill="none" stroke="#444444" stroke-width="0.9621" x1="834.068" y1="230.287" x2="834.068" y2="236.061"/>
<line fill="none" stroke="#444444" stroke-width="0.9621" x1="856.962" y1="230.287" x2="856.962" y2="236.061"/>
<text transform="matrix(1 0 0 1 832.4336 252.7627)" font-family="'NTATabularNumbers-Light'" font-size="15.3939">11</text>
<text transform="matrix(1 0 0 1 850.9102 252.7627)"><tspan x="0" y="0" font-family="'GDSTransportWebsite'" font-size="15.3939"> </tspan><tspan x="3.082" y="0" font-family="'GDSTransportWebsite'" font-size="15.3939">N</tspan><tspan x="14.676" y="0" font-family="'GDSTransportWebsite'" font-size="15.3939">o</tspan><tspan x="23.001" y="0" font-family="'GDSTransportWebsite'" font-size="15.3939">v</tspan></text>
<line fill="none" stroke="#444444" stroke-width="0.9621" x1="879.853" y1="230.287" x2="879.853" y2="236.061"/>
<line fill="none" stroke="#444444" stroke-width="0.9621" x1="902.744" y1="230.287" x2="902.744" y2="236.061"/>
<line fill="none" stroke="#444444" stroke-width="0.9621" x1="925.636" y1="230.287" x2="925.636" y2="236.061"/>
<text transform="matrix(1 0 0 1 234.2314 227.5186)" font-family="'NTATabularNumbers-Light'" font-size="15.3939">0</text>
<text transform="matrix(1 0 0 1 243.4697 227.5186)" font-family="'GDSTransportWebsite'" font-size="15.3939">%</text>
<text transform="matrix(1 0 0 1 224.9941 193.8438)" font-family="'NTATabularNumbers-Light'" font-size="15.3939">50</text>
<text transform="matrix(1 0 0 1 243.4697 193.8438)" font-family="'GDSTransportWebsite'" font-size="15.3939">%</text>
<text transform="matrix(1 0 0 1 215.7559 160.1699)" font-family="'NTATabularNumbers-Light'" font-size="15.3939">100</text>
<text transform="matrix(1 0 0 1 243.4697 160.1699)" font-family="'GDSTransportWebsite'" font-size="15.3939">%</text>
<polygon fill="#C1DFE4" points="262.254,155.243 284.382,155.243 307.474,155.243 330.564,155.243 353.655,155.243 375.784,155.243 
	398.875,155.243 421.966,155.243 445.057,155.243 468.147,155.243 490.276,155.243 512.405,155.243 536.458,155.243 
	559.549,155.243 582.641,155.243 604.769,155.243 627.86,155.243 650.95,155.243 674.042,155.243 697.133,155.243 719.262,155.243 
	742.353,155.243 765.443,155.243 788.534,155.243 811.625,155.243 833.754,155.243 856.845,155.243 879.936,155.243 
	903.026,155.243 926.118,155.243 926.118,222.591 903.026,222.591 879.936,222.591 856.845,222.591 833.754,222.591 
	811.625,222.591 788.534,222.591 765.443,222.591 742.353,222.591 719.262,222.591 697.133,222.591 674.042,222.591 650.95,222.591 
	627.86,222.591 604.769,222.591 582.641,222.591 559.549,222.591 536.458,222.591 512.405,222.591 490.276,222.591 468.147,222.591 
	445.057,222.591 421.966,222.591 398.875,222.591 375.784,222.591 353.655,222.591 330.564,222.591 307.474,222.591 
	284.382,222.591 262.254,222.591 "/>
<polyline fill="none" stroke="#097F96" stroke-width="2.4053" stroke-linecap="round" stroke-linejoin="round" stroke-miterlimit="10" points="
	262.254,155.243 284.382,155.243 307.474,155.243 330.564,155.243 353.655,155.243 375.784,155.243 398.875,155.243 
	421.966,155.243 445.057,155.243 468.147,155.243 490.276,155.243 512.405,155.243 536.458,155.243 559.549,155.243 
	582.641,155.243 604.769,155.243 627.86,155.243 650.95,155.243 674.042,155.243 697.133,155.243 719.262,155.243 742.353,155.243 
	765.443,155.243 788.534,155.243 811.625,155.243 833.754,155.243 856.845,155.243 879.936,155.243 903.026,155.243 
	926.118,155.243 "/>
<polyline fill="none" points="954.5,136 194.424,136 194.424,265.887 954.5,265.887 "/>
</svg>
